SplineFontDB: 3.2
FontName: Cooper-Regular
FullName: Cooper* Regular
FamilyName: Cooper*
Weight: Regular
Copyright: 
Version: 0.1
ItalicAngle: 0
UnderlinePosition: -200
UnderlineWidth: 100
Ascent: 1600
Descent: 400
InvalidEm: 0
LayerCount: 2
Layer: 0 0 "Back" 1
Layer: 1 0 "Fore" 0
XUID: [1021 31 -699969567 16487490]
FSType: 0
OS2Version: 0
OS2_WeightWidthSlopeOnly: 0
OS2_UseTypoMetrics: 1
CreationTime: 1460762150
ModificationTime: 1689268772
PfmFamily: 17
TTFWeight: 400
TTFWidth: 5
LineGap: 0
VLineGap: 0
OS2TypoAscent: 2500
OS2TypoAOffset: 0
OS2TypoDescent: -850
OS2TypoDOffset: 0
OS2TypoLinegap: 0
OS2WinAscent: 2500
OS2WinAOffset: 0
OS2WinDescent: 850
OS2WinDOffset: 0
HheadAscent: 2500
HheadAOffset: 0
HheadDescent: -850
HheadDOffset: 0
OS2CapHeight: 1500
OS2XHeight: 1040
OS2FamilyClass: 256
OS2Vendor: 'it* '
OS2UnicodeRanges: 00000001.00000000.00000000.00000000
Lookup: 3 0 0 "'swsh' Swash in Latin lookup 1" { "'swsh' Swash in Latin lookup 1-1"  } ['swsh' ('DFLT' <'dflt' > 'latn' <'dflt' > ) ]
Lookup: 4 0 1 "'liga' Standard Ligatures lookup" { "'liga' Standard Ligatures lookup"  } ['liga' ('DFLT' <'dflt' > 'grek' <'dflt' > 'latn' <'dflt' > ) ]
Lookup: 258 0 0 "'kern' Horizontal Kerning lookup 0" { "'kern' Horizontal Kerning lookup 0-1" [300,0,4] } ['kern' ('DFLT' <'dflt' > 'grek' <'dflt' > 'latn' <'dflt' > ) ]
MarkAttachClasses: 1
DEI: 91125
KernClass2: 12 12 "'kern' Horizontal Kerning lookup 0-1"
 113 A L Agrave Aacute Acircumflex Atilde Adieresis Aring Amacron Abreve Aogonek Lacute uni013B Lslash uni01CD uni0394
 73 D O Q Eth Ograve Oacute Ocircumflex Otilde Odieresis Oslash Dcaron Dcroat
 10 F P F.swsh
 11 K X uni0136
 107 V W Y Yacute Wcircumflex Ycircumflex Ydieresis Wgrave Wacute Wdieresis uni1E86 uni1E88 Ygrave T.swsh Y.swsh
 88 b o ograve oacute ocircumflex otilde odieresis oslash thorn omacron obreve ohungarumlaut
 48 h m n hbar nacute uni0146 ncaron napostrophe eng

StartChar: zero
Encoding: 48 48 0
Width: 1024
VWidth: 1920
Flags: HMW
LayerCount: 2
Fore
SplineSet
77 636 m 260
 77 990 243 1255 540 1255 c 260
 772 1255 947 1035 947 608 c 260
 947 227 791 -25 501 -25 c 260
 237 -25 77 212 77 636 c 260
532 54 m 260
 671 54 777 290 777 535 c 260
 777 950 664 1177 513 1177 c 260
 370 1177 257 982 257 688 c 260
 257 240 394 54 532 54 c 260
EndSplineSet
Validated: 1
EndChar

StartChar: A
Encoding: 65 65 1
Width: 1588
VWidth: 1920
Flags: HMW
AnchorPoint: "ogonek" 1356 0 basechar 0
AnchorPoint: "bottom" 751 0 basechar 0
AnchorPoint: "top" 751 1400 basechar 0
LayerCount: 2
Fore
SplineSet
470 506 m 2
 377 253 l 2
 348 174 342 132 342 111 c 0
 342 75 370 63 404 63 c 0
 428 63 457 75 476 75 c 0
 498 75 508 57 508 34 c 0
 508 -10 433 -15 300 -15 c 0
 109 -15 7 1 7 49 c 0
 7 72 21 89 44 89 c 0
 67 89 90 78 122 78 c 0
 186 78 213 117 330 402 c 2
 534 886 l 2
 607 1060 669 1247 669 1315 c 0
 669 1396 684 1446 749 1446 c 0
 818 1446 860 1366 928 1236 c 0
 1099 908 1222 570 1354 248 c 0
 1387.77045985 165.262373357 1407.28537022 101.769738518 1454.06690092 84.0000008702 c 0
 1490.02225974 70.342532126 1524.50121629 89 1550 89 c 0
 1572 89 1581 70 1581 51 c 0
 1581 35 1580 15 1544 2 c 0
 1490 -17 1370 -23 1277 -23 c 0
 1161 -23 1069 -12 1026 14 c 0
 1009 24 999 35 999 55 c 0
 999 76 1010 89 1029 89 c 0
 1054 89 1089 76 1115 76 c 0
 1149 76 1161 95 1161 123 c 0
 1161 155 1148 199 1138 228 c 2
 1045 490 l 2
 1030 532 1013 560 972 567 c 0
 917 576 823 583 744 583 c 0
 675 583 588 574 540 568 c 0
 504 563 485 546 470 506 c 2
732 684 m 0
 815 684 880 679 918 679 c 0
 946 679 958 686 958 704 c 0
 958 718 939 756 926 784 c 2
 836 976 l 2
 815 1020 779 1094 733 1094 c 0
 705 1094 688 1059 667 1004 c 2
 576 771 l 2
 565 742 552 710 552 692 c 0
 552 671 564 671 580 671 c 0
 595 671 650 684 732 684 c 0
EndSplineSet
AlternateSubs2: "'swsh' Swash in Latin lookup 1-1" A.swsh
EndChar

StartChar: B
Encoding: 66 66 2
Width: 1388
VWidth: 1920
Flags: HMW
AnchorPoint: "top" 706 1400 basechar 0
AnchorPoint: "bottom" 727 0 basechar 0
LayerCount: 2
Fore
SplineSet
762 69 m 4
 958 69 1081 162 1081 362 c 4
 1081 582 952 693 812 693 c 4
 753 693 619 688 572 688 c 4
 495 688 472 665 472 624 c 4
 472 579 471 503 471 456 c 4
 471 312 474 203 490 153 c 4
 502 117 554 69 762 69 c 4
692 772 m 4
 898 772 971 912 971 1032 c 4
 971 1212 844 1327 682 1327 c 4
 517 1327 488 1293 483 1234 c 4
 475 1147 472 1072 472 984 c 4
 472 941 472 864 474 840 c 4
 478 783 484 772 692 772 c 4
407 9 m 4
 321 9 287 -5 192 -5 c 4
 119 -5 102 14 102 41 c 4
 102 94 151 83 216 93 c 4
 286 104 290 179 290 590 c 6
 290 900 l 6
 290 1085 289 1186 280 1244 c 4
 272 1296 260 1310 223 1310 c 4
 201 1310 183 1307 168 1307 c 4
 135 1307 116 1325 116 1352 c 4
 116 1386 134 1401 171 1401 c 4
 239 1401 249 1394 351 1394 c 4
 473 1394 593 1408 712 1408 c 4
 969 1408 1153 1308 1153 1078 c 4
 1153 982 1116 901 1048 843 c 4
 1014 814 973 802 973 783 c 4
 973 770 1019 752 1064 740 c 4
 1201 702 1286 577 1286 438 c 4
 1286 199 1103 -7 772 -7 c 4
 653 -7 521 9 407 9 c 4
EndSplineSet
Validated: 1
AlternateSubs2: "'swsh' Swash in Latin lookup 1-1" B.swsh
EndChar

StartChar: C
Encoding: 67 67 3
Width: 1474
VWidth: 1920
Flags: HMW
AnchorPoint: "top" 810 1400 basechar 0
AnchorPoint: "bottom" 802 0 basechar 0
LayerCount: 2
Fore
SplineSet
802 -25 m 0
 355 -25 74 278 74 688 c 0
 74 1065 327 1425 812 1425 c 0
 1092 1425 1126 1326 1196 1326 c 0
 1252 1326 1242 1346 1290 1346 c 0
 1330 1346 1372 1214 1372 1098 c 0
 1372 986 1319 939 1274 939 c 0
 1219 939 1227 1013 1218 1066 c 0
 1195 1203 1021 1349 804 1349 c 0
 399 1349 278 1006 278 758 c 0
 278 388 515 76 852 76 c 0
 1069 76 1214 201 1266 348 c 0
 1284 399 1285 472 1330 472 c 0
 1365 472 1400 449 1400 377 c 0
 1400 311 1368 184 1330 139 c 0
 1317 124 1302 114 1282 114 c 0
 1266 114 1254 121 1244 121 c 0
 1181 121 1066 -25 802 -25 c 0
EndSplineSet
EndChar

StartChar: D
Encoding: 68 68 4
Width: 1592
VWidth: 1920
Flags: HMW
AnchorPoint: "top" 746 1400 basechar 0
AnchorPoint: "bottom" 717 0 basechar 0
LayerCount: 2
Fore
SplineSet
799 77 m 4
 896 77 991 77 1082 124 c 4
 1284 228 1355 447 1355 627 c 4
 1355 1017 1151 1329 781 1329 c 4
 607 1329 501 1310 489 1301 c 4
 472 1288 466 1245 463 1208 c 4
 455 1111 449 999 449 888 c 4
 449 686 455 401 458 195 c 4
 458 171 465 129 486 120 c 4
 525 103 625 77 799 77 c 4
751 -13 m 4
 603 -13 458 6 357 6 c 4
 271 6 227 -5 132 -5 c 4
 59 -5 43 17 43 44 c 4
 43 82 69 97 107 97 c 4
 126 97 149 94 173 94 c 4
 193 94 216 104 229 131 c 4
 255 187 260 314 260 590 c 6
 260 900 l 6
 260 1247 222 1317 164 1317 c 4
 141 1317 114 1313 98 1313 c 4
 65 1313 57 1331 57 1357 c 4
 57 1391 85 1407 122 1407 c 4
 190 1407 210 1397 312 1397 c 4
 469 1397 599 1408 802 1408 c 4
 1249 1408 1549 1157 1549 747 c 4
 1549 407 1335 69 990 5 c 4
 912 -9 831 -13 751 -13 c 4
EndSplineSet
Validated: 1
AlternateSubs2: "'swsh' Swash in Latin lookup 1-1" D.swsh
EndChar

StartChar: E
Encoding: 69 69 5
Width: 1240
VWidth: 1920
Flags: HMW
AnchorPoint: "ogonek" 1032 0 basechar 0
AnchorPoint: "top" 626 1400 basechar 0
AnchorPoint: "bottom" 617 0 basechar 0
LayerCount: 2
Fore
SplineSet
367 -1 m 0
 281 -1 249 -3 164 -3 c 0
 93 -3 58 17 58 51 c 0
 58 80 75 89 101 89 c 0
 121 89 144 83 173 83 c 0
 226 83 227 135 239 378 c 0
 247 542 249 622 249 820 c 0
 249 1062 243 1209 232 1276 c 0
 227 1306 206 1320 178 1320 c 0
 155 1320 127 1312 108 1312 c 0
 84 1312 67 1327 67 1355 c 0
 67 1389 95 1405 162 1405 c 0
 230 1405 300 1401 402 1401 c 0
 524 1401 698 1396 817 1396 c 0
 930 1396 971 1426 1008 1426 c 0
 1041 1426 1105 1298 1105 1168 c 0
 1105 1133 1076 1095 1058 1095 c 0
 1038 1095 1027 1134 1005 1183 c 0
 977 1246 938 1296 855 1309 c 0
 793 1319 674 1319 612 1319 c 0
 477 1319 455 1313 449 1244 c 0
 443 1180 433 1021 433 838 c 0
 433 791 445 773 472 763 c 0
 501 753 547 750 612 750 c 0
 746 750 805 794 805 858 c 0
 805 874 803 885 803 901 c 0
 803 914 810 926 828 926 c 0
 885 926 895 840 895 716 c 0
 895 570 875 495 831 495 c 0
 812 495 803 518 803 556 c 0
 803 602 784 672 652 672 c 0
 457 672 450 668 444 613 c 0
 439 564 437 521 437 446 c 0
 437 315 443 235 450 135 c 0
 452 113 455 109 481 103 c 0
 528 91 636 80 732 80 c 0
 817 80 874 81 927 95 c 0
 984 110 1030 150 1063 203 c 0
 1102 266 1108 314 1129 314 c 0
 1150 314 1182 277 1182 239 c 0
 1182 166 1074 -27 1028 -27 c 0
 994 -27 985 -3 937 -3 c 0
 820 -3 709 -3 624 -3 c 0
 537 -3 451 -1 367 -1 c 0
EndSplineSet
Validated: 1
AlternateSubs2: "'swsh' Swash in Latin lookup 1-1" E.swsh
EndChar

StartChar: F
Encoding: 70 70 6
Width: 1240
VWidth: 1920
Flags: HMW
AnchorPoint: "top" 646 1400 basechar 0
AnchorPoint: "bottom" 726 0 basechar 0
LayerCount: 2
Fore
SplineSet
346 -16 m 4
 205 -16 146 0 118 18 c 4
 98 32 92 47 92 58 c 4
 92 79 109 87 122 87 c 4
 144 87 160 78 196 78 c 4
 224 78 245 91 258 134 c 4
 277 200 280 341 280 590 c 6
 280 900 l 6
 280 1247 255 1312 204 1312 c 4
 181 1312 147 1305 128 1305 c 4
 104 1305 88 1315 88 1343 c 4
 88 1387 135 1400 192 1400 c 4
 260 1400 330 1396 432 1396 c 4
 554 1396 703 1399 822 1399 c 4
 895 1399 979 1425 1026 1425 c 4
 1077 1425 1152 1304 1152 1174 c 4
 1152 1130 1121 1093 1084 1093 c 4
 1064 1093 1063.55356448 1136.29865802 1038 1183 c 4
 1009 1236 921 1311 838 1314 c 4
 775.009394958 1316.27676886 714 1318 652 1318 c 4
 487 1318 482 1293 476 1234 c 4
 468 1160 464 1066 464 918 c 4
 464 888 462 848 462 818 c 4
 462 771 462 762 500 754 c 4
 525 748 571 745 652 745 c 4
 770 745 820 771 820 825 c 4
 820 851 816 884 816 900 c 4
 816 913 826 929 846 929 c 4
 900 929 928 870 928 706 c 4
 928 530 908 489 854 489 c 4
 842 489 828 500 828 520 c 4
 828 533 830 556 830 571 c 4
 830 606 811 638 774 654 c 4
 751 664 721 665 682 665 c 4
 600 665 537 660 506 660 c 4
 476 660 468 646 468 622 c 4
 468 572 466 511 466 436 c 6
 466 328 l 6
 466 170 482 73 538 73 c 4
 582 73 583 87 618 87 c 4
 638 87 654 76 654 53 c 4
 654 37 649 21 626 11 c 4
 590 -4 516 -16 346 -16 c 4
EndSplineSet
AlternateSubs2: "'swsh' Swash in Latin lookup 1-1" F.swsh
EndChar

StartChar: G
Encoding: 71 71 7
Width: 1588
VWidth: 1920
Flags: HMW
AnchorPoint: "top" 742 1400 basechar 0
AnchorPoint: "bottom" 744 0 basechar 0
LayerCount: 2
Fore
SplineSet
796 -42 m 4
 389 -42 68 283 68 693 c 4
 68 1070 331 1448 816 1448 c 4
 1096 1448 1150 1338 1220 1338 c 4
 1276 1338 1262 1357 1310 1357 c 4
 1350 1357 1386 1231 1386 1115 c 4
 1386 1003 1343 940 1288 940 c 4
 1233 940 1249 1016 1238 1069 c 4
 1205 1226 1015 1369 798 1369 c 4
 393 1369 264 1006 264 758 c 4
 264 388 509 53 846 53 c 4
 1123 53 1182 178 1182 359 c 4
 1182 386 1173 464 1126 464 c 4
 1095 464 1057 444 1032 444 c 4
 1007 444 990 457 990 479 c 4
 990 497 1002 514 1030 525 c 4
 1071 541 1155 557 1276 557 c 4
 1306 557 1397 553 1452 545 c 4
 1496 538 1520 520 1520 485 c 4
 1520 457 1505 450 1486 450 c 4
 1466 450 1452 455 1434 455 c 4
 1407 455 1391 408 1388 357 c 4
 1385 301 1379 260 1354 219 c 4
 1274 89 1053 -42 796 -42 c 4
EndSplineSet
Validated: 1
AlternateSubs2: "'swsh' Swash in Latin lookup 1-1" G.swsh
EndChar

StartChar: H
Encoding: 72 72 8
Width: 1570
VWidth: 1920
Flags: HMW
AnchorPoint: "top" 772 1400 basechar 0
AnchorPoint: "bottom" 782 0 basechar 0
LayerCount: 2
Fore
SplineSet
208 591 m 6
 208 901 l 6
 208 1248 197 1321 122 1321 c 4
 97 1321 79 1303 40 1303 c 4
 20 1303 10 1319 10 1339 c 4
 10 1373 41 1387 78 1395 c 4
 140 1408 207 1415 298 1415 c 4
 384 1415 455 1406 502 1399 c 4
 555 1391 576 1370 576 1345 c 4
 576 1328 566 1305 538 1305 c 4
 515 1305 495 1323 458 1323 c 4
 398 1323 386 1255 386 884 c 4
 386 810 396 783 450 783 c 4
 488 783 588 779 780 779 c 4
 968 779 1073 788 1116 793 c 4
 1162 798 1178 801 1178 861 c 4
 1178 1035 1171 1218 1155 1275 c 4
 1145 1309 1114 1315 1092 1315 c 4
 1057 1315 1045 1298 1016 1298 c 4
 996 1298 978 1318 978 1338 c 4
 978 1372 1021 1388 1058 1397 c 4
 1118 1411 1187 1415 1278 1415 c 4
 1364 1415 1435 1407 1482 1396 c 4
 1534 1384 1544 1362 1544 1337 c 4
 1544 1320 1534 1297 1506 1297 c 4
 1483 1297 1465 1313 1428 1313 c 4
 1368 1313 1364 1225 1364 814 c 6
 1364 504 l 6
 1364 157 1373 80 1448 80 c 4
 1473 80 1499 101 1528 101 c 4
 1548 101 1560 85 1560 65 c 4
 1560 31 1531 17 1494 9 c 4
 1432 -4 1375 -15 1284 -15 c 4
 1198 -15 1115 -10 1068 1 c 4
 1016 13 994 28 994 53 c 4
 994 70 1004 90 1032 90 c 4
 1055 90 1071 75 1108 75 c 4
 1132 75 1148 88 1154 110 c 4
 1165 152 1178 294 1178 397 c 4
 1178 438 1178 583 1178 631 c 4
 1178 674 1166 685 1124 685 c 4
 1080 685 974 689 786 689 c 4
 606 689 482 680 444 675 c 4
 404 670 400 649 400 614 c 4
 400 555 405 444 405 402 c 4
 406 292 411 179 422 133 c 4
 430 98 454 87 482 87 c 4
 517 87 531 104 560 104 c 4
 580 104 596 87 596 67 c 4
 596 33 561 13 524 5 c 4
 462 -8 385 -15 294 -15 c 4
 208 -15 135 -10 88 1 c 4
 36 13 18 29 18 54 c 4
 18 71 24 94 52 94 c 4
 75 94 105 77 142 77 c 4
 202 77 208 180 208 591 c 6
EndSplineSet
Validated: 1
EndChar

StartChar: I
Encoding: 73 73 9
Width: 719
VWidth: 1920
Flags: HMW
AnchorPoint: "ogonek" 427 0 basechar 0
AnchorPoint: "top" 356 1400 basechar 0
AnchorPoint: "bottom" 357 0 basechar 0
LayerCount: 2
Fore
SplineSet
274 591 m 6
 274 901 l 6
 274 1248 246 1320 181 1320 c 4
 146 1320 125 1304 105 1304 c 4
 85 1304 72 1318 72 1338 c 4
 72 1372 91 1385 137 1395 c 4
 199 1408 266 1415 357 1415 c 4
 443 1415 516 1412 562 1405 c 4
 615 1397 644 1380 644 1349 c 4
 644 1332 624 1312 596 1312 c 4
 573 1312 559 1330 522 1330 c 4
 472 1330 451 1305 451 894 c 6
 451 604 l 6
 451 348 454 169 482 113 c 4
 494 89 508 86 528 86 c 4
 572 86 589 105 618 105 c 4
 642 105 654 87 654 64 c 4
 654 30 619 16 573 7 c 4
 516 -4 444 -15 353 -15 c 4
 267 -15 195 -14 148 -5 c 4
 99 4 65 12 65 45 c 4
 65 62 81 85 109 85 c 4
 132 85 154 72 191 72 c 4
 210 72 228 82 239 108 c 4
 263 166 274 307 274 591 c 6
EndSplineSet
EndChar

StartChar: J
Encoding: 74 74 10
Width: 719
VWidth: 1920
Flags: HMW
AnchorPoint: "top" 372 1400 basechar 0
LayerCount: 2
Fore
SplineSet
286 111 m 6
 286 901 l 6
 286 1248 258 1317 193 1317 c 4
 168 1317 145 1304 116 1304 c 4
 96 1304 78 1318 78 1338 c 4
 78 1372 111 1387 148 1395 c 4
 210 1408 277 1415 368 1415 c 4
 454 1415 526 1410 573 1399 c 4
 625 1387 641 1371 641 1346 c 4
 641 1329 624 1311 596 1311 c 4
 573 1311 556 1320 519 1320 c 4
 459 1320 456 1225 456 814 c 6
 456 284 l 6
 456 -59 326 -379 159 -379 c 4
 95 -379 51 -351 51 -286 c 4
 51 -229 88 -188 136 -188 c 4
 179 -188 196 -202 233 -202 c 4
 245 -202 262 -191 269 -163 c 4
 280 -120 286 -36 286 111 c 6
EndSplineSet
Validated: 1
EndChar

StartChar: K
Encoding: 75 75 11
Width: 1559
VWidth: 1920
Flags: HMW
AnchorPoint: "top" 738 1400 basechar 0
AnchorPoint: "bottom" 769 0 basechar 0
LayerCount: 2
Fore
SplineSet
267 591 m 6
 267 901 l 6
 267 1248 264 1310 199 1310 c 4
 174 1310 146 1295 117 1295 c 4
 97 1295 80 1309 80 1329 c 4
 80 1363 108 1379 144 1390 c 4
 206 1408 263 1415 354 1415 c 4
 440 1415 475 1410 540 1403 c 4
 599 1396 614 1383 614 1356 c 4
 614 1329 595 1320 568 1320 c 4
 556 1320 542 1322 529 1322 c 4
 496 1322 478 1302 465 1271 c 4
 451 1237 440 1169 440 1016 c 4
 440 887 443 826 466 816 c 4
 479 810 495 812 508 818 c 4
 523 825 538 844 565 871 c 6
 840 1141 l 6
 904 1205 956 1267 956 1304 c 4
 956 1316 943 1322 928 1322 c 4
 916 1322 902 1319 892 1319 c 4
 872 1319 854 1333 854 1353 c 4
 854 1385 904 1415 1084 1415 c 4
 1201 1415 1287 1410 1287 1371 c 4
 1287 1334 1220 1326 1192 1326 c 4
 1085 1326 1070 1275 922 1124 c 6
 652 849 l 6
 628 824 626 801 659 769 c 6
 1182 252 l 6
 1255 176 1287 139 1345 102 c 4
 1373 84 1410 79 1429 79 c 4
 1459 79 1482 74 1482 50 c 4
 1482 2 1425 -19 1315 -19 c 4
 1291 -19 1238 -15 1208 -8 c 4
 1152 6 1115 59 986 192 c 6
 536 633 l 6
 504 666 485 678 463 654 c 4
 442 632 441 632 441 597 c 6
 441 516 l 6
 441 169 459 83 517 83 c 4
 540 83 564 96 583 96 c 4
 607 96 621 85 621 57 c 4
 621 4 505 -15 350 -15 c 4
 264 -15 192 -10 145 1 c 4
 93 13 77 29 77 54 c 4
 77 71 94 89 122 89 c 4
 145 89 162 78 199 78 c 4
 259 78 267 180 267 591 c 6
EndSplineSet
Validated: 33
EndChar

StartChar: L
Encoding: 76 76 12
Width: 1240
VWidth: 1920
Flags: HMW
AnchorPoint: "top" 325 1390 basechar 0
AnchorPoint: "bottom" 686 0 basechar 0
LayerCount: 2
Fore
SplineSet
376 0 m 4
 290 0 245 -5 160 -5 c 4
 87 -5 46 24 46 51 c 4
 46 78 67 89 87 89 c 4
 105 89 124 79 156 79 c 4
 183 79 206 91 220 122 c 4
 247 183 250 319 250 590 c 6
 250 901 l 6
 250 1248 227 1317 170 1317 c 4
 145 1317 118 1299 89 1299 c 4
 69 1299 51 1313 51 1333 c 4
 51 1367 74 1384 131 1395 c 4
 183 1405 260 1415 351 1415 c 4
 437 1415 528 1412 575 1402 c 4
 628 1391 644 1374 644 1349 c 4
 644 1332 627 1314 599 1314 c 4
 576 1314 557 1322 520 1322 c 4
 452 1322 444 1225 444 814 c 6
 444 558 l 6
 444 248 465 166 476 131 c 4
 494 77 582 76 741 76 c 4
 826 76 871 84 924 101 c 4
 986 121 1009 144 1044 180 c 4
 1111 249 1091 324 1132 324 c 4
 1167 324 1194 272 1194 234 c 4
 1194 171 1087 -32 1041 -32 c 4
 1007 -32 986 -6 938 -6 c 4
 821 -6 718 -3 633 -3 c 4
 546 -3 460 0 376 0 c 4
EndSplineSet
Validated: 1
EndChar

StartChar: M
Encoding: 77 77 13
Width: 1938
VWidth: 1920
Flags: HMW
AnchorPoint: "top" 906 1400 basechar 0
AnchorPoint: "bottom" 907 0 basechar 0
LayerCount: 2
Fore
SplineSet
310 591 m 2
 324 881 l 2
 335 1228 296 1314 231 1314 c 0
 206 1314 163 1300 134 1300 c 0
 114 1300 96 1314 96 1334 c 0
 96 1368 129 1383 166 1391 c 0
 228 1404 291 1410 382 1410 c 0
 403 1410 448 1408 471 1403 c 0
 508 1395 521 1378 532 1351 c 2
 911 441 l 2
 942 365 959 352 977 352 c 0
 992 352 1010 368 1040 441 c 2
 1417 1340 l 2
 1430 1372 1440 1387 1477 1396 c 0
 1505 1403 1570 1410 1612 1410 c 0
 1698 1410 1760 1407 1796 1403 c 0
 1849 1397 1864 1376 1864 1351 c 0
 1864 1321 1848 1310 1826 1310 c 0
 1807 1310 1782 1315 1749 1315 c 0
 1659 1315 1618 1241 1627 794 c 2
 1633 504 l 2
 1638.09211426 226.479772682 1648.94636801 116.061590313 1697.96063727 88.9999997482 c 0
 1730.45841063 71.0574403587 1762.61079899 93 1799 93 c 4
 1819 93 1835 77 1835 57 c 0
 1835 23 1802 6 1765 0 c 0
 1703 -10 1642 -15 1551 -15 c 0
 1465 -15 1363 -5 1316 6 c 0
 1264 18 1248 34 1248 59 c 0
 1248 76 1265 94 1293 94 c 0
 1316 94 1335 83 1372 83 c 0
 1432 83 1455 180 1448 591 c 2
 1443 871 l 2
 1441 976 1429 998 1400 998 c 0
 1376 998 1358 948 1337 899 c 2
 968 46 l 2
 945 -10 930 -19 918 -19 c 0
 904 -19 887 -9 864 45 c 2
 483 945 l 2
 468 981 452 1002 440 1002 c 0
 416 1002 408 970 403 794 c 2
 394 504 l 2
 388 302 392 184 413 127 c 0
 428 86 458 80 485 80 c 0
 510 80 509 86 538 86 c 0
 558 86 574 67 574 47 c 0
 574 -11 474 -15 308 -15 c 0
 225 -15 74 -11 74 58 c 0
 74 75 91 96 119 96 c 0
 142 96 155 82 192 82 c 0
 216 82 242 96 259 142 c 0
 281 200 299 346 310 591 c 2
EndSplineSet
AlternateSubs2: "'swsh' Swash in Latin lookup 1-1" M.swsh
EndChar

StartChar: N
Encoding: 78 78 14
Width: 1595
VWidth: 1920
Flags: HMW
AnchorPoint: "top" 778 1400 basechar 0
AnchorPoint: "bottom" 779 0 basechar 0
LayerCount: 2
Fore
SplineSet
215 551 m 6
 215 838 l 6
 215 1093 201 1232 163 1287 c 4
 149 1307 123 1314 106 1314 c 4
 81 1314 48 1307 19 1307 c 4
 -1 1307 -19 1321 -19 1341 c 4
 -19 1375 24 1388 61 1396 c 4
 123 1409 225 1410 286 1410 c 4
 352 1410 377 1393 405 1359 c 6
 1227 386 l 6
 1250 358 1267 345 1288 345 c 4
 1312 345 1314 410 1314 586 c 6
 1314 876 l 6
 1313 1223 1281 1323 1216 1323 c 4
 1191 1323 1156 1312 1127 1312 c 4
 1107 1312 1091 1328 1091 1348 c 4
 1091 1386 1145 1415 1341 1415 c 4
 1564 1415 1614 1375 1614 1336 c 4
 1614 1319 1597 1301 1569 1301 c 4
 1546 1301 1539 1311 1502 1311 c 4
 1442 1311 1399 1240 1399 829 c 6
 1399 539 l 6
 1399 175 1374 -35 1322 -35 c 4
 1286 -35 1275 -18 1252 8 c 6
 437 995 l 6
 424 1012 387 1049 365 1049 c 4
 341 1049 315 1006 315 831 c 6
 314 504 l 6
 315 157 347 73 412 73 c 4
 437 73 443 86 472 86 c 4
 492 86 507 72 507 52 c 4
 507 14 444 -15 278 -15 c 4
 115 -15 5 -1 5 54 c 4
 5 75 20 89 42 89 c 4
 65 89 84 74 121 74 c 4
 181 74 215 140 215 551 c 6
EndSplineSet
AlternateSubs2: "'swsh' Swash in Latin lookup 1-1" N.swsh
EndChar

StartChar: O
Encoding: 79 79 15
Width: 1595
VWidth: 1920
Flags: HMW
AnchorPoint: "top" 826 1400 basechar 0
AnchorPoint: "bottom" 818 0 basechar 0
LayerCount: 2
Fore
SplineSet
52 652 m 256
 52 1104 407 1435 833 1435 c 256
 1252 1435 1542 1126 1542 738 c 256
 1542 323 1207 -40 788 -40 c 256
 354 -40 52 245 52 652 c 256
820 53 m 256
 1132 53 1342 298 1342 646 c 256
 1342 1018 1126 1335 789 1335 c 256
 485 1335 262 1119 262 743 c 256
 262 386 501 53 820 53 c 256
EndSplineSet
EndChar

StartChar: P
Encoding: 80 80 16
Width: 1267
VWidth: 1920
Flags: HMW
AnchorPoint: "top" 686 1400 basechar 0
AnchorPoint: "bottom" 357 0 basechar 0
LayerCount: 2
Fore
SplineSet
652 689 m 4
 818 689 975 763 975 973 c 4
 975 1173 864 1329 662 1329 c 4
 497 1329 480 1294 470 1262 c 4
 463 1239 457 1119 457 1044 c 6
 457 968 l 6
 457 916 458 769 460 744 c 4
 463 716 534 689 652 689 c 4
457 607 m 6
 457 504 l 6
 457 157 458 97 533 97 c 4
 558 97 596 114 625 114 c 4
 645 114 662 101 662 73 c 4
 662 39 643 23 578 5 c 4
 517 -12 449 -15 358 -15 c 4
 272 -15 180 -3 133 8 c 4
 81 20 65 48 65 73 c 4
 65 95 82 108 110 108 c 4
 133 108 160 96 197 96 c 4
 257 96 270 180 270 591 c 6
 270 898 l 6
 270 1245 252 1313 194 1313 c 4
 166 1313 132 1302 110 1302 c 4
 76 1302 61 1324 61 1348 c 4
 61 1392 105 1402 142 1402 c 4
 210 1402 220 1398 322 1398 c 4
 524 1398 563 1407 682 1407 c 4
 959 1407 1166 1306 1166 1036 c 4
 1166 752 903 612 669 612 c 4
 528 612 490 637 473 637 c 4
 463 637 457 632 457 607 c 6
EndSplineSet
Validated: 1
AlternateSubs2: "'swsh' Swash in Latin lookup 1-1" P.swsh
EndChar

StartChar: Q
Encoding: 81 81 17
Width: 1592
VWidth: 1920
Flags: HMW
AnchorPoint: "top" 855 1400 basechar 0
LayerCount: 2
Fore
SplineSet
829 -81 m 0
 974 -136 1134 -195 1295 -195 c 0
 1354 -195 1430 -159 1431 -52 c 0
 1431 -28 1443 -20 1456 -20 c 0
 1479 -20 1486 -50 1486 -90 c 0
 1486 -199 1371 -345 1163 -345 c 0
 865 -345 397 -56 221 -56 c 0
 200 -56 189 -59 176 -59 c 0
 152 -59 145 -48 145 -32 c 0
 145 -11 163 24 271 24 c 0
 296 24 325 23 355 21 c 0
 377 19 378 19 387 39 c 0
 394 54 393 54 376 64 c 0
 174 182 51 392 51 652 c 0
 51 1104 406 1435 832 1435 c 0
 1251 1435 1541 1126 1541 738 c 0
 1541 338 1229 -29 830 -39 c 4
 808 -40 791 -41 791 -53 c 0
 791 -66 791 -66 829 -81 c 0
818 53 m 0
 1130 53 1341 298 1341 646 c 0
 1341 1018 1124 1335 787 1335 c 0
 483 1335 261 1119 261 743 c 0
 261 386 499 53 818 53 c 0
EndSplineSet
Validated: 1
EndChar

StartChar: R
Encoding: 82 82 18
Width: 1467
VWidth: 1920
Flags: HMW
AnchorPoint: "top" 645 1400 basechar 0
AnchorPoint: "bottom" 756 0 basechar 0
LayerCount: 2
Fore
SplineSet
422 626 m 2
 422 504 l 2
 422 266.39011938 423.370007107 163.869515652 446.845064967 122 c 0
 476 70 541.560975344 114 590 114 c 0
 610 114 627 101 627 73 c 0
 627 39 608 23 543 5 c 0
 482 -12 414 -15 323 -15 c 0
 237 -15 145 -3 98 8 c 0
 46 20 30 48 30 73 c 0
 30 95 47 108 75 108 c 0
 98 108 125 96 162 96 c 0
 222 96 235 180 235 591 c 2
 235 900 l 2
 235 1247 217 1312 159 1312 c 0
 131 1312 97 1301 75 1301 c 0
 41 1301 26 1323 26 1347 c 0
 26 1391 70 1401 107 1401 c 0
 175 1401 185 1397 287 1397 c 0
 489 1397 558 1416 677 1416 c 0
 954 1416 1131 1346 1131 1076 c 0
 1131 919 1050 811 939 744 c 0
 922 734 905 727 905 719 c 0
 905 712 913 704 929 697 c 0
 990 670 1063 618 1103 516 c 0
 1168 349 1187 104 1313 104 c 0
 1373 104 1362 171 1402 171 c 0
 1429 171 1441 156 1441 125 c 0
 1441 49 1333 -22 1243 -22 c 0
 1153 -22 1110 6 1054 68 c 0
 966 164 912 423 844 562 c 0
 798 657 686 662 634 662 c 0
 493 662 455 655 438 655 c 0
 428 655 422 651 422 626 c 2
617 756 m 0
 783 756 920 823 920 1033 c 0
 920 1233 829 1328 627 1328 c 0
 462 1328 445 1293 435 1261 c 0
 428 1238 422 1118 422 1043 c 2
 422 968 l 2
 422 916 423 809 425 784 c 0
 428 756 499 756 617 756 c 0
EndSplineSet
AlternateSubs2: "'swsh' Swash in Latin lookup 1-1" R.swsh
EndChar

StartChar: S
Encoding: 83 83 19
Width: 1163
VWidth: 1920
Flags: HMW
AnchorPoint: "top" 586 1400 basechar 0
AnchorPoint: "bottom" 586 0 basechar 0
LayerCount: 2
Fore
SplineSet
208 400 m 0
 231 168 363 47 572 47 c 256
 810 47 942 217 942 338 c 256
 942 484 831 584 586 606 c 0
 338 628 102 708 102 1003 c 256
 102 1243 314 1424 602 1424 c 256
 806 1424 858 1323 896 1323 c 0
 923 1323 942 1354 966 1354 c 0
 1031 1354 1046 1241 1046 1144 c 0
 1046 1061 1026 976 968 976 c 0
 916 976 922 1026 912 1086 c 0
 906 1123 889 1168 862 1204 c 0
 800 1285 693 1341 592 1341 c 256
 415 1341 246 1243 246 1093 c 256
 246 913 376 874 628 836 c 0
 869 799 1082 727 1082 458 c 256
 1082 201 921 -35 572 -35 c 256
 365.454172348 -35 192.623893914 22.7980843748 122.000003333 153.233934828 c 0
 106.990395865 180.955303604 82 245.625563139 82 369 c 0
 82 453 97 478 134 478 c 0
 180 478 203 449 208 400 c 0
EndSplineSet
EndChar

StartChar: T
Encoding: 84 84 20
Width: 1333
VWidth: 1920
Flags: HMW
AnchorPoint: "top" 650 1400 basechar 0
AnchorPoint: "bottom" 650 0 basechar 0
LayerCount: 2
Fore
SplineSet
574 591 m 6
 574 901 l 6
 574 1209 553 1311 501 1319 c 4
 435 1330 330 1315 278 1300 c 4
 195 1277 156 1216 128 1153 c 4
 106 1104 103 1055 74 1055 c 4
 56 1055 22 1093 22 1128 c 4
 22 1258 111 1446 154 1446 c 4
 211 1446 233 1400 346 1400 c 6
 988 1400 l 6
 1101 1400 1121 1446 1178 1446 c 4
 1221 1446 1310 1258 1310 1128 c 4
 1310 1093 1276 1055 1258 1055 c 4
 1229 1055 1228 1104 1206 1153 c 4
 1178 1216 1139 1277 1056 1300 c 4
 1000 1316 881 1328 817 1313 c 4
 770 1302 750 1214 750 894 c 6
 750 604 l 6
 750 348 754 176 782 120 c 4
 794 96 810 86 848 86 c 4
 902 86 929 111 958 111 c 4
 982 111 994 93 994 70 c 4
 994 36 928 9 882 0 c 4
 825 -11 743 -15 652 -15 c 4
 566 -15 495 -14 448 -5 c 4
 399 4 304 21 304 74 c 4
 304 91 320 114 348 114 c 4
 371 114 403 86 470 86 c 4
 499 86 528 105 539 131 c 4
 563 189 574 307 574 591 c 6
EndSplineSet
Validated: 33
AlternateSubs2: "'swsh' Swash in Latin lookup 1-1" T.swsh
EndChar

StartChar: U
Encoding: 85 85 21
Width: 1586
VWidth: 1920
Flags: HMW
AnchorPoint: "ogonek" 889 0 basechar 0
AnchorPoint: "top" 823 1400 basechar 0
AnchorPoint: "bottom" 794 0 basechar 0
LayerCount: 2
Fore
SplineSet
1384 904 m 2
 1376 534 l 18
 1368 174 1156 -45 779 -45 c 0
 382 -45 185 161 184 528 c 2
 184 911 l 2
 184 1247 176 1323 112 1323 c 0
 77 1323 44 1304 24 1304 c 0
 4 1304 -8 1318 -8 1338 c 0
 -8 1372 10 1385 56 1395 c 0
 118 1408 175 1415 266 1415 c 0
 352 1415 450 1412 496 1405 c 0
 549 1397 578 1380 578 1349 c 0
 578 1332 566 1310 538 1310 c 0
 515 1310 503 1320 466 1320 c 0
 416 1320 374 1298 374 887 c 2
 374 558 l 2
 374 238 522 65 849 65 c 0
 1096 65 1308 199 1308 538 c 2
 1308 907 l 2
 1306 1241 1284 1327 1210 1327 c 0
 1185 1327 1139 1305 1110 1305 c 0
 1090 1305 1076 1323 1076 1343 c 0
 1076 1388 1178 1415 1344 1415 c 0
 1507 1415 1594 1404 1594 1349 c 0
 1594 1328 1580 1314 1558 1314 c 0
 1535 1314 1515 1329 1478 1329 c 0
 1418 1329 1392 1255 1384 904 c 2
EndSplineSet
EndChar

StartChar: V
Encoding: 86 86 22
Width: 1542
VWidth: 1920
Flags: HMW
AnchorPoint: "top" 811 1400 basechar 0
AnchorPoint: "bottom" 752 0 basechar 0
LayerCount: 2
Fore
SplineSet
1184 1147 m 0
 1213 1226 1219 1268 1219 1289 c 0
 1219 1325 1191 1337 1157 1337 c 0
 1133 1337 1084 1325 1065 1325 c 0
 1043 1325 1033 1343 1033 1366 c 0
 1033 1410 1128 1415 1261 1415 c 0
 1452 1415 1558 1399 1558 1351 c 0
 1558 1328 1544 1311 1521 1311 c 0
 1498 1311 1475 1322 1443 1322 c 0
 1379 1322 1342 1287 1235 998 c 2
 1056 514 l 2
 983 340 914 147 886 85 c 0
 847 0 821 -46 756 -46 c 0
 687 -46 655 30 597 164 c 0
 456 492 343 822 211 1144 c 0
 171 1242 151 1313 82 1313 c 0
 57 1313 34 1303 15 1303 c 0
 -7 1303 -16 1322 -16 1341 c 0
 -16 1357 -15 1377 21 1390 c 0
 75 1409 195 1415 288 1415 c 0
 404 1415 516 1404 559 1378 c 0
 576 1368 586 1357 586 1337 c 0
 586 1316 575 1303 556 1303 c 0
 531 1303 486 1316 460 1316 c 0
 426 1316 404 1297 404 1269 c 0
 404 1237 417 1193 427 1164 c 0
 522 886 614 658 729 424 c 0
 751 380 787 275 829 275 c 0
 866 275 886 342 908 396 c 0
 1047 738 1131 1003 1184 1147 c 0
EndSplineSet
Validated: 1
EndChar

StartChar: W
Encoding: 87 87 23
Width: 2083
VWidth: 1920
Flags: HMW
AnchorPoint: "top" 1016 1400 basechar 0
AnchorPoint: "bottom" 1018 0 basechar 0
LayerCount: 2
Fore
SplineSet
1736 1077 m 4
 1760 1157 1774 1206 1774 1257 c 4
 1774 1303 1756 1329 1712 1329 c 4
 1688 1329 1657 1318 1628 1318 c 4
 1596 1318 1578 1335 1578 1358 c 4
 1578 1402 1633 1415 1826 1415 c 4
 2057 1415 2124 1389 2124 1351 c 4
 2124 1328 2109 1309 2086 1309 c 4
 2063 1309 2040 1322 2008 1322 c 4
 1944 1322 1890 1264 1806 998 c 4
 1675 583 1565 286 1478 85 c 4
 1441 0 1429 -46 1384 -46 c 4
 1345 -46 1320 30 1262 164 c 4
 1193 324 1142 466 1081 628 c 4
 1065 670 1059 681 1041 681 c 4
 1023 681 1016 658 1000 612 c 4
 917 376 848 223 788 85 c 4
 751 0 739 -46 694 -46 c 4
 655 -46 630 30 572 164 c 4
 431 492 318 822 186 1144 c 4
 146 1242 127 1313 58 1313 c 4
 33 1313 9 1303 -10 1303 c 4
 -32 1303 -40 1322 -40 1341 c 4
 -40 1357 -40 1377 -4 1390 c 4
 50 1409 171 1415 264 1415 c 4
 380 1415 461 1404 504 1378 c 4
 521 1368 532 1357 532 1337 c 4
 532 1316 521 1303 502 1303 c 4
 477 1303 452 1310 426 1310 c 4
 392 1310 380 1297 380 1269 c 4
 380 1237 392 1193 402 1164 c 4
 497 886 585 648 680 414 c 4
 698 369 722 305 744 305 c 4
 762 305 786 341 806 396 c 4
 867 562 919 689 962 803 c 4
 973 833 987 856 987 871 c 4
 987 887 974 905 961 939 c 4
 933 1011 905 1074 876 1144 c 4
 836 1242 837 1303 768 1303 c 4
 743 1303 719 1293 700 1293 c 4
 678 1293 670 1312 670 1331 c 4
 670 1347 670 1367 706 1380 c 4
 760 1399 861 1415 954 1415 c 4
 1070 1415 1181 1404 1224 1378 c 4
 1241 1368 1252 1357 1252 1337 c 4
 1252 1316 1241 1303 1222 1303 c 4
 1197 1303 1152 1316 1126 1316 c 4
 1092 1316 1070 1297 1070 1269 c 4
 1070 1237 1082 1193 1092 1164 c 4
 1187 886 1275 648 1370 414 c 4
 1388 369 1412 305 1434 305 c 4
 1452 305 1476 341 1496 396 c 4
 1615 718 1693 933 1736 1077 c 4
EndSplineSet
Validated: 1
EndChar

StartChar: X
Encoding: 88 88 24
Width: 1570
VWidth: 1920
Flags: HMW
LayerCount: 2
Fore
SplineSet
860 948 m 10
 968 1145 l 2
 1006 1213 1030 1258 1030 1279 c 0
 1030 1295 1020 1313 986 1313 c 0
 962 1313 933 1308 914 1308 c 0
 892 1308 868 1313 868 1346 c 0
 868 1390 917 1415 1180 1415 c 0
 1431 1415 1484 1369 1484 1331 c 0
 1484 1294 1461 1291 1428 1291 c 0
 1405 1291 1344 1303 1302 1303 c 0
 1238 1303 1203 1255 1034 1018 c 2
 926 861 l 2
 916 847 900 826 900 804 c 0
 900 786 913 761 920 750 c 2
 1244 251 l 2
 1296.51259787 173.168828157 1334.12597656 112.245117188 1365 101.7890625 c 0
 1388 94 1433.53350254 104.52537706 1455 101.302734375 c 0
 1477 98 1492 84.3907078546 1492 54 c 0
 1492 18 1462 11 1424 2 c 0
 1393 -5 1301 -15 1208 -15 c 0
 1025 -15 945 -9 906 13 c 0
 878 29 868 46 868 62 c 0
 868 84 883 99 902 99 c 0
 927 99 970 88 986 88 c 0
 1010 88 1034 98 1034 126 c 0
 1034 158 1012 210 998 231 c 2
 812 537 l 2
 793 568 778 598 762 598 c 0
 751 598 739 580 722 552 c 2
 554 255 l 2
 517 192 508 128 508 107 c 0
 508 91 530 77 564 77 c 0
 588 77 617 82 636 82 c 0
 658 82 684 78 684 45 c 0
 684 1 643 -15 380 -15 c 0
 129 -15 78 17 78 55 c 0
 78 92 103 95 136 95 c 0
 159 95 206 82 248 82 c 0
 302 82 343 132 466 332 c 2
 656 651 l 2
 667 668 678 688 678 706 c 0
 678 729 663 751 654 765 c 2
 400 1149 l 2
 345 1233 321 1301 252 1301 c 0
 217 1301 183 1288 154 1288 c 0
 122 1288 94 1291 94 1326 c 0
 94 1362 123 1380 160 1391 c 0
 214 1407 335 1415 428 1415 c 0
 544 1415 685 1409 728 1383 c 0
 745 1373 756 1359 756 1338 c 0
 756 1312.01270554 743.731722372 1307.05674416 725.000001097 1306.16413961 c 0
 701.050334832 1305.02288938 676.526038513 1308 660 1308 c 0
 636 1308 614 1302 614 1274 c 0
 614 1242 621.284353624 1206.15741623 655 1152 c 2
 782 948 l 2
 795.504428655 926.307846886 808 912 820 912 c 0
 833 912 851 933 860 948 c 10
EndSplineSet
EndChar

StartChar: Y
Encoding: 89 89 25
Width: 1542
VWidth: 1920
Flags: HMW
AnchorPoint: "top" 811 1400 basechar 0
LayerCount: 2
Fore
SplineSet
908 870 m 10
 1024 1080 l 2
 1068 1160 1118 1248 1118 1269 c 0
 1118 1285 1108 1303 1074 1303 c 0
 1050 1303 1021 1298 1002 1298 c 0
 980 1298 954 1313 954 1346 c 0
 954 1390 1005 1415 1218 1415 c 0
 1409 1415 1462 1389 1462 1351 c 0
 1462 1314 1437 1299 1404 1299 c 0
 1381 1299 1366 1303 1334 1303 c 0
 1270 1303 1237 1239 1152 1093 c 2
 936 724 l 2
 916 690 896 658 896 574 c 0
 896 318 902 169 930 113 c 0
 942 89 966 86 986 86 c 0
 1030 86 1053 105 1082 105 c 0
 1106 105 1118 87 1118 64 c 0
 1118 30 1064 6 1018 -3 c 0
 961 -14 889 -15 798 -15 c 0
 712 -15 639 -14 592 -5 c 0
 543 4 490 22 490 55 c 0
 490 72 506 95 534 95 c 0
 557 95 591 79 628 79 c 0
 647 79 668 89 678 115 c 0
 701 173 700 296 700 541 c 0
 700 590 691 648 674 674 c 2
 362 1149 l 2
 310 1228 269 1291 230 1291 c 0
 195 1291 171 1278 142 1278 c 0
 110 1278 80 1291 80 1326 c 0
 80 1362 111 1380 148 1391 c 0
 202 1407 321 1415 414 1415 c 0
 530 1415 593 1409 636 1383 c 0
 653 1373 662 1359 662 1338 c 0
 662 1304 643 1296 624 1296 c 0
 609 1296 592 1298 576 1298 c 0
 559 1298 544 1290 544 1274 c 0
 544 1242 580 1190 594 1169 c 2
 802 854 l 2
 812 839 830 824 848 824 c 0
 870 824 893 843 908 870 c 10
EndSplineSet
AlternateSubs2: "'swsh' Swash in Latin lookup 1-1" Y.swsh
EndChar

StartChar: Z
Encoding: 90 90 26
Width: 1348
VWidth: 1920
Flags: HMW
AnchorPoint: "top" 661 1400 basechar 0
LayerCount: 2
Fore
SplineSet
466 0 m 0
 380 0 214 -11 130 -11 c 0
 97 -11 82 12 82 33 c 0
 82 46 91 61 113 94 c 2
 874 1232 l 2
 883 1246 887 1257 887 1267 c 0
 887 1295 831 1305 727 1305 c 0
 545 1305 449 1285 324 1259 c 0
 267.26507751 1247.05580579 224.989938082 1226.11539599 201.721304379 1193 c 0
 162 1136.46953325 182 1086.46953325 182 1052 c 0
 182 1029 167 1018 136 1018 c 0
 81 1018 64 1092 64 1140 c 0
 64 1223 131 1411 187 1411 c 0
 241 1411 282 1388 330 1388 c 0
 476 1388 547 1399 802 1399 c 0
 888 1399 1054 1410 1138 1410 c 0
 1171 1410 1186 1385 1186 1361 c 0
 1186 1347 1181 1334 1175 1324 c 2
 405 169 l 2
 398 158 395 150 395 140 c 0
 395 103 477 96 581 96 c 0
 763 96 889 114 1014 140 c 0
 1062.78926506 150.271424223 1105.31405006 172.302276678 1130.32775361 205.999997659 c 0
 1186 281 1166 307.244944656 1166 372 c 0
 1166 395 1181 406 1212 406 c 0
 1267 406 1284 332 1284 284 c 0
 1284 201 1217 -12 1161 -12 c 0
 1107 -12 1066 11 1018 11 c 0
 872 11 761 0 466 0 c 0
EndSplineSet
EndChar

StartChar: a
Encoding: 97 97 27
Width: 798
VWidth: 1920
Flags: HMW
AnchorPoint: "ogonek" 686 0 basechar 0
AnchorPoint: "top" 361 880 basechar 0
LayerCount: 2
Fore
SplineSet
92 672 m 0
 92 691 97 708 106 724 c 0
 142 790 249 838 376 838 c 0
 538 838 658 768 658 574 c 2
 658 234 l 2
 658 126 683 71 722 71 c 0
 736 71 741 78 750 78 c 0
 761 78 768 73 768 59 c 0
 768 23 721 -15 664 -15 c 0
 598 -15 565 23 544 74 c 0
 533 100 529 113 520 113 c 0
 511 113 492 100 466 73 c 0
 413 18 345 -8 282 -8 c 0
 128 -8 48 82 48 216 c 0
 48 380 201 462 378 462 c 0
 418 462 473 452 492 452 c 0
 510 452 512 460 512 497 c 2
 512 576 l 2
 512 710 487 784 356 784 c 0
 314 784 283 767 268 741 c 0
 255 718 255 686 238 655 c 0
 220 622 193 604 158 604 c 0
 117 604 92 629 92 672 c 0
512 326 m 2
 512 369 l 2
 512 393 512 393 484 398 c 0
 465 401 443 404 420 404 c 0
 277 404 202 330 202 226 c 0
 202 138 250 65 328 65 c 0
 417 65 512 161 512 326 c 2
EndSplineSet
EndChar

StartChar: l
Encoding: 108 108 28
Width: 569
VWidth: 1920
Flags: HMW
AnchorPoint: "top" 295 1405 basechar 0
LayerCount: 2
Fore
SplineSet
225 591 m 2
 225 901 l 2
 225 1248 220 1308 175 1308 c 0
 140 1308 124 1294 104 1294 c 0
 84 1294 71 1308 71 1328 c 0
 71 1353 90 1361 136 1381 c 0
 194 1406 326 1431 357 1431 c 0
 378 1431 381 1418 381 1391 c 0
 381 1315 374 1220 374 894 c 2
 374 604 l 2
 374 348 374 143 391 97 c 0
 400 72 415 67 435 67 c 0
 459 67 468 74 487 74 c 0
 501 74 516 64 516 48 c 0
 516 12 481 -15 282 -15 c 0
 102 -15 62 1 62 38 c 0
 62 55 69 70 88 70 c 0
 106 70 124 62 141 62 c 0
 160 62 185 75 196 101 c 0
 220 159 225 307 225 591 c 2
EndSplineSet
EndChar

StartChar: v
Encoding: 118 118 29
Width: 912
VWidth: 1920
Flags: HMW
LayerCount: 2
Fore
SplineSet
715 648 m 0
 727 697 727 729 727 742 c 0
 727 764 711 768 691 768 c 0
 677 768 654 764 643 764 c 0
 630 764 615 775 615 793 c 0
 615 839 705 839 785 839 c 0
 900 839 949 822 949 793 c 0
 949 770 931 761 881 761 c 0
 843 761 814 719 769 599 c 2
 661 308 l 2
 617 204 568 88 551 51 c 0
 528 0 510 -19 481 -19 c 0
 450 -19 423 18 385 98 c 0
 293 292 192 488 113 681 c 4
 89 740 78 745 67 745 c 4
 52 745 28 742 17 742 c 4
 -1 742 -15 755 -15 773 c 4
 -15 793 -3 809 29 820 c 4
 62 831 135 838 231 838 c 4
 350 838 373 825 373 794 c 4
 373 776 364 765 313 765 c 4
 293 765 281 753 281 736 c 4
 281 717 283 699 289 682 c 4
 346 515 395 394 469 254 c 0
 483 228 510 180 525 180 c 0
 547 180 558 205 571 238 c 0
 654 443 693 562 715 648 c 0
EndSplineSet
EndChar

StartChar: paragraph
Encoding: 182 182 32
Width: 1727
Flags: HMW
LayerCount: 2
Fore
SplineSet
50 708 m 0
 50 1272 480 1480 894 1480 c 0
 1158 1480 1324.65722656 1400.62402344 1394 1347 c 0
 1443.30761719 1308.87011719 1455 1274 1455 1190 c 0
 1455 1109.90039062 1434 188 1434 28 c 0
 1434 -128.051757812 1460 -208 1512 -208 c 16
 1564 -208 1633 -162 1665 -162 c 16
 1697 -162 1722 -173.887695312 1722 -215 c 0
 1722 -286 1478 -356 1406 -356 c 16
 1334 -356 1290 -284 1290 -215 c 16
 1290 -146 1330 928 1330 1036 c 16
 1330 1144 1302 1192 1254 1248 c 16
 1206 1304 1088 1376 890 1376 c 0
 642 1376 422 1226 422 746 c 0
 422 256 649.493164062 90 843 90 c 0
 1055 90 1080 271.75 1080 400 c 0
 1080 748 1038 923.252929688 1038 1000 c 0
 1038 1068 1060 1100 1102 1100 c 0
 1154 1100 1188 1056 1188 982 c 0
 1188 887.501953125 1192 360.111328125 1192 288 c 0
 1192 210 1182 144 1156 118 c 0
 1118.92578125 80.92578125 1024 -22 742 -22 c 0
 430 -22 50 244 50 708 c 0
EndSplineSet
Validated: 1
EndChar

StartChar: b
Encoding: 98 98 33
Width: 1026
VWidth: 1920
Flags: HMW
LayerCount: 2
Fore
SplineSet
150 603 m 2
 151 879 l 2
 151 1065 148 1253 136 1295 c 0
 131 1312 117 1320 102 1320 c 0
 83 1320 67 1304 37 1304 c 0
 17 1304 4 1318 4 1338 c 0
 4 1359 21 1371 69 1386 c 0
 126 1404 247 1430 278 1430 c 0
 291 1430 298 1418 298 1391 c 0
 298 1315 284 1220 284 894 c 2
 284 798 l 2
 284 734 292 711 306 711 c 0
 319 711 335 732 373 766 c 0
 434 821 507 854 584 854 c 0
 826 854 950 665 950 418 c 0
 950 157 794 -25 534 -25 c 0
 428 -25 367 6 312 53 c 0
 294 69 284 77 275 77 c 0
 266 77 256 68 238 51 c 0
 206 21 160 -7 130 -7 c 0
 110 -7 103 9 103 26 c 0
 103 50 143 110 143 217 c 0
 143 272 150 355 150 603 c 2
545 43 m 0
 684 43 797 170 797 335 c 0
 797 550 707 752 526 752 c 0
 394 752 290 584 290 392 c 2
 290 388 l 2
 290 170 377 43 545 43 c 0
EndSplineSet
EndChar

StartChar: o
Encoding: 111 111 34
Width: 1026
VWidth: 1920
Flags: HMW
AnchorPoint: "top" 519 880 basechar 0
LayerCount: 2
Fore
SplineSet
78 406 m 260
 78 660 274 855 541 855 c 260
 783 855 948 685 948 438 c 260
 948 177 762 -25 502 -25 c 260
 258 -25 78 162 78 406 c 260
543 54 m 260
 682 54 798 170 798 335 c 260
 798 550 665 777 484 777 c 260
 351 777 238 662 238 488 c 260
 238 270 375 54 543 54 c 260
EndSplineSet
EndChar

StartChar: n
Encoding: 110 110 35
Width: 1026
VWidth: 1920
Flags: HMW
AnchorPoint: "bottom" 533 0 basechar 0
AnchorPoint: "top" 481 880 basechar 0
LayerCount: 2
Fore
SplineSet
197 401 m 2
 197 469 l 2
 197 706 196 721 151 721 c 0
 116 721 99 707 79 707 c 0
 59 707 47 721 47 741 c 0
 47 766 65 774 111 794 c 0
 169 819 278 844 309 844 c 0
 330 844 333 831 333 804 c 0
 333 755 333 763 333 685 c 0
 333 666 334 647 345 647 c 0
 361 647 365 668 377 691 c 0
 425 785 505 845 591 845 c 0
 713 845 771 809 815 749 c 0
 872 671 871 551 871 414 c 0
 871 298 880 143 897 97 c 0
 906 72 921 67 941 67 c 0
 965 67 974 74 993 74 c 0
 1007 74 1021 64 1021 48 c 0
 1021 12 996 -15 797 -15 c 0
 617 -15 577 1 577 38 c 0
 577 55 584 70 603 70 c 0
 621 70 640 59 657 59 c 0
 676 59 689 60 699 86 c 0
 722 144 723 307 723 401 c 0
 723 595 714 747 553 747 c 0
 440 747 342 588 342 414 c 0
 342 298 342 143 357 97 c 0
 365 72 381 60 401 60 c 0
 425 60 434 67 453 67 c 0
 467 67 481 57 481 41 c 0
 481 5 456 -15 257 -15 c 0
 77 -15 37 1 37 38 c 0
 37 55 44 66 63 66 c 0
 81 66 108 57 125 57 c 0
 144 57 161 59 173 85 c 0
 195 133 197 307 197 401 c 2
EndSplineSet
EndChar

StartChar: d
Encoding: 100 100 36
Width: 1026
VWidth: 1920
Flags: HMW
LayerCount: 2
Fore
SplineSet
493 56 m 0
 632 56 737 270 737 465 c 2
 737 475 l 2
 737 641 659 787 481 787 c 0
 348 787 225 672 225 458 c 0
 225 240 333 56 493 56 c 0
75 416 m 0
 75 670 281 855 478 855 c 0
 566 855 642 813 689 775 c 0
 711 757 716 750 725 750 c 0
 734 750 738 753 738 771 c 2
 738 901 l 2
 738 1148 738 1253 726 1295 c 0
 721 1312 707 1320 692 1320 c 0
 673 1320 657 1304 627 1304 c 0
 607 1304 594 1318 594 1338 c 0
 594 1359 611 1371 659 1386 c 0
 716 1404 837 1430 868 1430 c 0
 881 1430 888 1418 888 1391 c 0
 888 1315 874 1220 874 894 c 2
 874 604 l 2
 874 348 877 194 877 147 c 0
 877 117 891 81 921 81 c 0
 955 81 955 102 984 102 c 0
 1005 102 1014 88 1014 72 c 0
 1014 43 968 17 873 -8 c 0
 828 -20 787 -34 761 -34 c 0
 741 -34 734 -28 734 9 c 0
 734 33 733 50 733 77 c 0
 733 116 724 139 708 139 c 0
 693 139 686 119 652 81 c 0
 594 15 520 -25 429 -25 c 0
 205 -25 75 172 75 416 c 0
EndSplineSet
EndChar

StartChar: c
Encoding: 99 99 37
Width: 912
VWidth: 1920
Flags: HMW
AnchorPoint: "top" 461 880 basechar 0
AnchorPoint: "bottom" 512 0 basechar 0
LayerCount: 2
Fore
SplineSet
516 855 m 0
 672 855 790 758 790 673 c 0
 790 647 760 600 712 600 c 0
 648 600 625 631 590 693 c 0
 578 714 552 757 440 757 c 0
 337 757 224 652 224 478 c 0
 224 260 380 64 548 64 c 0
 687 64 749 169 794 169 c 0
 813 169 822 159 822 138 c 0
 822 87 678 -25 468 -25 c 0
 224 -25 84 142 84 386 c 0
 84 640 279 855 516 855 c 0
EndSplineSet
EndChar

StartChar: e
Encoding: 101 101 38
Width: 912
VWidth: 1920
Flags: HMW
AnchorPoint: "ogonek" 586 1 basechar 0
AnchorPoint: "bottom" 512 0 basechar 0
AnchorPoint: "top" 471 880 basechar 0
LayerCount: 2
Fore
SplineSet
498 855 m 0
 714 855 814 652 814 527 c 0
 814 520 814 481 814 466 c 0
 814 445 798 440 784 440 c 2
 290 442 l 2
 256 442 244 435 244 415 c 0
 244 402 244 364 250 337 c 0
 284 182 387 74 540 74 c 0
 679 74 727 181 762 181 c 0
 778 181 784 174 784 153 c 0
 784 102 680 -25 470 -25 c 0
 226 -25 86 142 86 386 c 0
 86 650 241 855 498 855 c 0
638 503 m 22
 654.999383097 502.897594078 656 538 656 553 c 0
 656 657 594 787 462 787 c 0
 356 787 293 712 258 612 c 0
 246 577 242 542 242 528 c 0
 242 505 265 505 306 505 c 2
 638 503 l 22
EndSplineSet
EndChar

StartChar: f
Encoding: 102 102 39
Width: 682
VWidth: 1920
Flags: HMW
LayerCount: 2
Fore
SplineSet
250 760 m 2
 180 760 l 2
 160 760 130 765 130 795 c 0
 130 800 131 803 132 807 c 0
 139 826 163 830 180 830 c 2
 256 830 l 2
 279 830 280 830 280 859 c 2
 280 864 l 2
 280 991 252 1093 252 1172 c 0
 252 1327 371 1424 468 1424 c 0
 545 1424 582 1391 582 1341 c 0
 582 1288 555 1253 514 1253 c 0
 461 1253 450 1331 392 1331 c 0
 364 1331 349 1287 349 1260 c 0
 349 1184 411 1220 411 894 c 2
 411 861 l 2
 411 830 411 830 436 830 c 2
 538 830 l 2
 579 830 598 824 598 795 c 0
 598 788 597 782 595 778 c 0
 588 763 569 760 538 760 c 2
 438 760 l 2
 411 760 411 760 411 733 c 2
 411 604 l 2
 411 348 419 143 436 97 c 0
 445 72 470 64 490 64 c 0
 524 64 549 82 568 82 c 0
 587 82 598 72 598 56 c 0
 598 20 525 -15 326 -15 c 0
 146 -15 84 6 84 43 c 0
 84 61 94 75 110 75 c 0
 129 75 149 57 186 57 c 0
 225 57 230 75 241 101 c 0
 265 159 280 307 280 591 c 2
 280 731 l 2
 280 760 279 760 250 760 c 2
EndSplineSet
EndChar

StartChar: g
Encoding: 103 103 40
Width: 912
VWidth: 1920
Flags: HMW
AnchorPoint: "top" 521 880 basechar 0
LayerCount: 2
Fore
SplineSet
454 369 m 0
 543 369 600 440 600 525 c 0
 600 670 517 797 406 797 c 0
 323 797 274 732 274 638 c 0
 274 490 326 369 454 369 c 0
130 566 m 0
 130 740 295 855 462 855 c 0
 530 855 578 834 618 815 c 0
 638 806 662 797 698 797 c 0
 717 797 735 805 752 813 c 0
 802 835 822 869 842 869 c 0
 854 869 868 859 868 832 c 0
 868 795 815 701 762 694 c 0
 735 690 718 688 718 677 c 0
 718 663 722 637 722 611 c 0
 722 450 602 310 422 310 c 0
 371 310 348 317 326 317 c 0
 309 317 301 311 280 298 c 0
 252 280 232 255 232 223 c 0
 232 148 293 133 350 133 c 0
 438 133 485 152 602 152 c 0
 756 152 850 76 850 -43 c 0
 850 -210 725 -365 486 -365 c 0
 186 -365 115 -256 115 -121 c 0
 115 -55 145 -7 174 25 c 0
 179 30 180 30 180 34 c 0
 180 36 175 41 172 45 c 0
 147 77 132 117 132 163 c 0
 132 242 172 294 232 325 c 0
 244 331 254 334 254 339 c 0
 254 343 246 346 232 355 c 0
 164 398 130 469 130 566 c 0
190 -99 m 0
 190 -217 277 -303 486 -303 c 0
 649 -303 756 -228 756 -112 c 0
 756 -36 706 -17 630 -17 c 0
 524 -17 451 -39 360 -39 c 0
 316 -39 273 -28 236 -8 c 0
 227 -3 223 -2 220 -2 c 0
 217 -2 213 -6 210 -13 c 0
 198 -37 190 -64 190 -99 c 0
EndSplineSet
EndChar

StartChar: i
Encoding: 105 105 41
Width: 569
VWidth: 1920
Flags: HMW
AnchorPoint: "ogonek" 417 10 basechar 0
LayerCount: 2
Fore
SplineSet
218 1179 m 0
 218 1246 267 1288 324 1288 c 0
 381 1288 428 1246 428 1179 c 0
 428 1113 381 1070 324 1070 c 0
 267 1070 218 1113 218 1179 c 0
228 401 m 6
 228 469 l 6
 228 706 225 721 180 721 c 4
 145 721 130 707 110 707 c 4
 90 707 76 721 76 741 c 4
 76 766 96 774 142 794 c 4
 200 819 321 844 352 844 c 4
 373 844 376 831 376 804 c 4
 376 728 376 788 376 462 c 6
 376 414 l 6
 376 298 380 143 397 97 c 4
 406 72 420 67 440 67 c 4
 464 67 473 74 492 74 c 4
 506 74 522 64 522 48 c 4
 522 12 487 -15 288 -15 c 4
 108 -15 68 1 68 38 c 4
 68 55 75 70 94 70 c 4
 112 70 129 62 146 62 c 4
 165 62 191 75 202 101 c 4
 226 159 228 307 228 401 c 6
EndSplineSet
EndChar

StartChar: h
Encoding: 104 104 42
Width: 1026
VWidth: 1920
Flags: HMW
AnchorPoint: "top" 271 1400 basechar 0
LayerCount: 2
Fore
SplineSet
186 401 m 2
 186 1049 l 2
 186 1286 184 1301 139 1301 c 0
 104 1301 88 1287 68 1287 c 0
 48 1287 35 1301 35 1321 c 0
 35 1346 54 1354 100 1374 c 0
 158 1399 267 1424 298 1424 c 0
 319 1424 322 1411 322 1384 c 0
 322 1335 313 743 313 665 c 0
 313 646 315 627 326 627 c 0
 342 627 345 648 357 671 c 0
 405 765 503 845 589 845 c 0
 711 845 769 809 813 749 c 0
 870 671 870 551 870 414 c 0
 870 298 868 143 885 97 c 0
 894 72 909 67 929 67 c 0
 953 67 962 74 981 74 c 0
 995 74 1010 64 1010 48 c 0
 1010 12 985 -15 786 -15 c 0
 606 -15 581 1 581 38 c 0
 581 55 588 70 607 70 c 0
 625 70 643 59 660 59 c 0
 679 59 693 60 703 86 c 0
 726 144 731 307 731 401 c 0
 731 595 723 747 562 747 c 0
 449 747 331 588 331 414 c 0
 331 298 331 143 346 97 c 0
 354 72 369 60 389 60 c 0
 413 60 422 67 441 67 c 0
 455 67 470 57 470 41 c 0
 470 5 445 -15 246 -15 c 0
 66 -15 26 1 26 38 c 0
 26 55 33 66 52 66 c 0
 70 66 97 57 114 57 c 0
 133 57 150 59 162 85 c 0
 184 133 186 307 186 401 c 2
EndSplineSet
EndChar

StartChar: r
Encoding: 114 114 43
Width: 682
VWidth: 1920
Flags: HMW
AnchorPoint: "bottom" 303 0 basechar 0
AnchorPoint: "top" 349 880 basechar 0
LayerCount: 2
Fore
SplineSet
184 401 m 2
 184 469 l 2
 184 656 171 721 126 721 c 0
 91 721 86 707 66 707 c 0
 46 707 32 721 32 741 c 0
 32 766 52 774 98 794 c 0
 156 819 255 844 286 844 c 0
 307 844 308 831 310 804 c 0
 312 775 314 723 314 684 c 0
 314 635 314 620 324 620 c 0
 331 620 350 668 362 691 c 0
 410 785 470 845 556 845 c 0
 628 845 660 775 660 720 c 0
 660 674 622 620 576 620 c 0
 510 620 504 684 462 684 c 0
 450 684 446 680 442 675 c 0
 387 608 329 473 329 374 c 0
 329 258 339 143 354 97 c 0
 362 72 376 60 396 60 c 0
 420 60 449 77 468 77 c 0
 482 77 498 67 498 51 c 0
 498 15 453 -15 254 -15 c 0
 74 -15 34 1 34 38 c 0
 34 55 41 66 60 66 c 0
 78 66 105 57 122 57 c 0
 141 57 158 59 170 85 c 0
 192 133 184 307 184 401 c 2
EndSplineSet
EndChar

StartChar: j
Encoding: 106 106 44
Width: 569
VWidth: 1920
Flags: HMW
LayerCount: 2
Fore
SplineSet
246 1179 m 0
 246 1246 295 1288 352 1288 c 0
 409 1288 456 1246 456 1179 c 0
 456 1113 409 1070 352 1070 c 0
 295 1070 246 1113 246 1179 c 0
246 469 m 6
 246 706 245 721 200 721 c 4
 165 721 148 707 128 707 c 4
 108 707 96 721 96 741 c 4
 96 766 114 774 160 794 c 4
 218 819 349 844 380 844 c 4
 401 844 404 831 404 804 c 4
 404 728 396 788 396 462 c 6
 396 154 l 6
 396 7 416 -48 416 -127 c 4
 416 -282 357 -369 200 -369 c 4
 93 -369 42 -316 42 -246 c 4
 42 -203 73 -167 124 -167 c 4
 172 -167 189 -197 197 -224 c 4
 207 -260 201 -296 246 -296 c 4
 274 -296 286 -272 286 -225 c 4
 286 -150 247 -165 247 151 c 6
 246 469 l 6
EndSplineSet
EndChar

StartChar: k
Encoding: 107 107 45
Width: 1026
VWidth: 1920
Flags: HMW
AnchorPoint: "bottom" 612 0 basechar 0
LayerCount: 2
Fore
SplineSet
242 591 m 2
 242 901 l 2
 242 1248 237 1308 192 1308 c 0
 157 1308 142 1294 122 1294 c 0
 102 1294 88 1308 88 1328 c 0
 88 1353 108 1361 154 1381 c 0
 212 1406 343 1431 374 1431 c 0
 395 1431 398 1418 398 1391 c 0
 398 1315 392 1220 392 894 c 2
 392 576 l 2
 392 554 392 537 406 537 c 0
 420 537 467 574 498 601 c 2
 578 671 l 2
 644 730 656 738 656 760 c 0
 656 769 648 769 642 769 c 0
 638 769 633 768 626 768 c 0
 606 768 592 775 592 795 c 0
 592 827 618 845 748 845 c 0
 865 845 922 830 922 791 c 0
 922 769 900 760 878 760 c 0
 863 760 847 766 836 766 c 0
 799 766 766 747 672 664 c 2
 562 567 l 2
 538 542 536.836084848 545.36003226 564 509 c 2
 756 252 l 2
 819 168 860 120 888 93 c 0
 902 80 915 68 934 68 c 0
 984 68 1004 65 1004 31 c 0
 1004 7 990 0 940 0 c 2
 820 0 l 2
 777 0 761 1 748 12 c 0
 732 26 692 91 604 200 c 2
 440 403 l 2
 420 427 415 435 404 435 c 0
 391 435 386 424 386 389 c 0
 386 208 395 133 408 97 c 0
 417 72 432 67 452 67 c 0
 476 67 485 74 504 74 c 0
 518 74 534 64 534 48 c 0
 534 12 499 -15 300 -15 c 0
 120 -15 80 1 80 38 c 0
 80 55 87 70 106 70 c 0
 124 70 141 62 158 62 c 0
 177 62 203 75 214 101 c 0
 238 159 242 307 242 591 c 2
EndSplineSet
EndChar

StartChar: m
Encoding: 109 109 46
Width: 1596
VWidth: 1920
Flags: HMW
LayerCount: 2
Fore
SplineSet
206 401 m 2
 206 469 l 2
 206 706 195 721 150 721 c 0
 115 721 98 707 78 707 c 0
 58 707 46 721 46 741 c 0
 46 766 64 774 110 794 c 0
 168 819 277 844 308 844 c 0
 329 844 332 831 332 804 c 0
 332 755 342 743 342 665 c 0
 342 646 343 627 354 627 c 0
 370 627 374 648 386 671 c 0
 434 765 494 845 650 845 c 0
 782 845 814 789 836 739 c 0
 856 693 862 677 872 677 c 0
 880 677 892 689 906 711 c 0
 964 805 1032 845 1118 845 c 0
 1240 845 1298 809 1342 749 c 0
 1399 671 1400 551 1400 414 c 0
 1400 298 1407 143 1424 97 c 0
 1433 72 1448 67 1468 67 c 0
 1492 67 1501 74 1520 74 c 0
 1534 74 1550 64 1550 48 c 0
 1550 12 1525 -15 1326 -15 c 0
 1146 -15 1106 1 1106 38 c 0
 1106 55 1113 70 1132 70 c 0
 1150 70 1167 59 1184 59 c 0
 1203 59 1218 60 1228 86 c 0
 1251 144 1252 307 1252 401 c 0
 1252 595 1243 747 1082 747 c 0
 981 747 870 619 870 414 c 0
 870 298 879 143 896 97 c 0
 905 72 920 67 940 67 c 0
 964 67 973 74 992 74 c 0
 1006 74 1020 64 1020 48 c 0
 1020 12 995 -15 796 -15 c 0
 616 -15 576 1 576 38 c 0
 576 55 583 70 602 70 c 0
 620 70 639 59 656 59 c 0
 675 59 688 60 698 86 c 0
 721 144 732 307 732 401 c 0
 732 595 723 747 592 747 c 0
 479 747 362 588 362 414 c 0
 362 298 341 143 356 97 c 0
 364 72 380 60 400 60 c 0
 424 60 433 67 452 67 c 0
 466 67 480 57 480 41 c 0
 480 5 455 -15 256 -15 c 0
 76 -15 46 1 46 38 c 0
 46 55 53 66 72 66 c 0
 90 66 117 57 134 57 c 0
 153 57 170 59 182 85 c 0
 204 133 206 307 206 401 c 2
EndSplineSet
Validated: 33
EndChar

StartChar: p
Encoding: 112 112 47
Width: 1026
VWidth: 1920
Flags: HMW
LayerCount: 2
Fore
SplineSet
197 194 m 6
 197 334 l 6
 197 681 182 727 137 727 c 4
 102 727 91 711 71 711 c 4
 51 711 39 722 39 738 c 4
 39 763 53 780 99 805 c 4
 155 835 250 856 281 856 c 4
 311 856 323 841 323 814 c 4
 323 788 325 760 325 722 c 4
 325 682 325 663 331 664 c 4
 336 665 345 680 363 709 c 4
 420 799 503 855 597 855 c 4
 839 855 940 685 940 438 c 4
 940 197 775 -23 545 -23 c 4
 488 -23 420 -3 379 23 c 4
 354 39 348 41 341 41 c 4
 329 41 329 9 329 -13 c 4
 329 -173 331 -214 343 -247 c 4
 355 -281 376 -297 407 -297 c 4
 422 -297 432 -292 447 -292 c 4
 468 -292 481 -305 481 -324 c 4
 481 -352 453 -364 385 -364 c 4
 346 -364 294 -360 235 -352 c 4
 98 -334 45 -312 45 -276 c 4
 45 -258 58 -247 77 -247 c 4
 102 -247 112 -266 137 -266 c 4
 168 -266 172 -232 175 -206 c 4
 181 -144 197 10 197 194 c 6
559 44 m 4
 698 44 805 210 805 395 c 4
 805 570 712 737 551 737 c 4
 418 737 326 592 326 388 c 6
 326 228 l 6
 326 124 399 44 559 44 c 4
EndSplineSet
Validated: 1
EndChar

StartChar: q
Encoding: 113 113 48
Width: 1026
VWidth: 1920
Flags: HMW
LayerCount: 2
Fore
SplineSet
497 794 m 0
 358 794 262 636 262 451 c 0
 262 276 376 90 537 90 c 0
 668 90 731 223 731 423 c 2
 731 514 l 2
 731 618 655 794 497 794 c 0
764 747 m 0
 777 747 773 782 778 804 c 0
 782 820 790 828 810 839 c 0
 839 855 880 868 901 868 c 0
 921 868 933 857 933 838 c 0
 933 810 906 788 889 722 c 0
 871 653 864 549 864 442 c 2
 864 -13 l 2
 864 -173 870 -203 879 -237 c 0
 886 -265 902 -280 921 -280 c 0
 928 -280 943 -279 951 -279 c 0
 972 -279 987 -293 987 -312 c 0
 987 -340 957 -354 889 -354 c 0
 850 -354 800 -350 741 -342 c 0
 604 -324 581 -292 581 -266 c 0
 581 -248 592 -237 611 -237 c 0
 636 -237 646 -256 671 -256 c 0
 702 -256 710 -228 713 -202 c 0
 719 -141 727 -95 727 -16 c 0
 727 0 725 124 707 124 c 0
 702 124 693 117 673 89 c 0
 622 19 553 -17 459 -17 c 0
 257 -17 97 143 97 390 c 0
 97 631 271 861 511 861 c 0
 568 861 637 839 673 816 c 0
 703 797 755 747 764 747 c 0
EndSplineSet
Validated: 1
EndChar

StartChar: s
Encoding: 115 115 49
Width: 797
VWidth: 1920
Flags: HMW
AnchorPoint: "bottom" 383 0 basechar 0
AnchorPoint: "top" 409 880 basechar 0
LayerCount: 2
Fore
SplineSet
186 221 m 0
 240 83 311 44 395 44 c 256
 527 44 585 129 585 201 c 256
 585 278 530 326 384 339 c 0
 236 352 105 415 105 586 c 256
 105 719 191 851 372 851 c 256
 453 851 514 809 537 809 c 0
 563 809 580 839 594 839 c 0
 633 839 668 729 668 671 c 0
 668 622 647 601 622 601 c 0
 591 601 581 613 572 636 c 0
 564 657 554 685 538 706 c 0
 501 754 427 783 367 783 c 256
 272 783 202 729 202 650 c 256
 202 563 269 537 419 517 c 0
 582 495 699 423 699 273 c 256
 699 120 583 -21 375 -21 c 256
 324.515062501 -21 278.696987027 -10.1106552734 240.000005222 6.69821510362 c 0
 206.969721626 21.0456326433 179.127642898 39.7058303863 158.000003231 59.5881840922 c 0
 141.534677834 75.08302538 96 125.81161445 96 213 c 0
 96 253 102 268 117 268 c 0
 154 268 175 248 186 221 c 0
EndSplineSet
EndChar

StartChar: t
Encoding: 116 116 50
Width: 569
Flags: HMW
AnchorPoint: "bottom" 313 0 basechar 0
LayerCount: 2
Fore
SplineSet
276 250 m 2
 276 145 323 89 394 89 c 0
 430 89 461 103 482 117 c 0
 495 125 503 133 512 133 c 0
 526 133 534 126 534 111 c 0
 534 47 420 -22 310 -22 c 0
 213 -22 142 32 128 120 c 0
 124 146 120 198 120 250 c 2
 120 730 l 2
 120 740 116 750 104 750 c 2
 52 750 l 2
 31 750 22 760 22 771 c 0
 22 773 22.4580078125 774.830078125 23 777 c 0
 24 781 27 786 30 789 c 2
 238 997 l 2
 251 1010 258 1018 272 1018 c 0
 284 1018 290 1010 290 989 c 0
 290 981 284 852 284 851 c 0
 284 830 290 830 312 830 c 2
 516 830 l 2
 533 830 540 830 540 823 c 0
 540 820 538 815 536 808 c 2
 528 774 l 2
 523 750 523 750 498 750 c 2
 296 750 l 2
 280 750 276 745 276 730 c 2
 276 250 l 2
EndSplineSet
EndChar

StartChar: u
Encoding: 117 117 51
Width: 1026
VWidth: 1920
Flags: HMW
AnchorPoint: "ogonek" 847 10 basechar 0
AnchorPoint: "top" 519 880 basechar 0
LayerCount: 2
Fore
SplineSet
856 433 m 2
 856 365 l 2
 856 128 880 88 913 88 c 0
 938 88 945 97 965 97 c 0
 981 97 989 86 989 73 c 0
 989 48 983 40 937 20 c 0
 879 -5 812 -20 781 -20 c 0
 760 -20 753 -14 741 10 c 0
 732 28 729 71 729 119 c 0
 729 138 723 147 715 147 c 0
 706 147 699 133 683 113 c 0
 615 29 535 -21 419 -21 c 0
 307 -21 248 19 201 85 c 0
 158 145 153 255 153 390 c 0
 153 506 153 687 153 730 c 0
 153 756 129 767 109 767 c 0
 85 767 76 760 57 760 c 0
 43 760 25 772 25 788 c 0
 25 803.321639814 31.35546875 812.1640625 43 819.944335938 c 0
 72.93359375 839.944335938 137.630572237 846 279 846 c 0
 299 846 309 836 309 809 c 0
 309 791 303 671 303 363 c 0
 303 169 364 87 495 87 c 0
 608 87 707 216 707 390 c 0
 707 450 709 527 709 595 c 0
 709 659 706 715 699 737 c 0
 691 762 673 765 653 765 c 0
 629 765 616 760 597 760 c 0
 575 760 561 775 561 791 c 0
 561 803.201407902 564.87890625 812.258789062 582 819.828125 c 4
 604.877929688 829.942382812 645.780578573 834 717 834 c 2
 837 834 l 2
 860 834 869 831 869 794 c 0
 869 706 856 572 856 433 c 2
EndSplineSet
EndChar

StartChar: w
Encoding: 119 119 52
Width: 1366
VWidth: 1920
Flags: HMW
AnchorPoint: "bottom" 703 0 basechar 0
AnchorPoint: "top" 719 880 basechar 0
LayerCount: 2
Fore
SplineSet
1179 620 m 0
 1196 672 1202 705 1202 738 c 0
 1202 755 1194 767 1173 767 c 0
 1157 767 1133 761 1113 761 c 0
 1091 761 1077 774 1077 799 c 0
 1077 828 1104 841 1235 841 c 0
 1392 841 1409 813 1409 788 c 0
 1409 773 1399 759 1383 759 c 0
 1367 759 1363 761 1341 761 c 0
 1317 761 1294.71191406 750.033203125 1232 579 c 0
 1133 309 1080 183 1005 55 c 0
 973.864257812 1.8623046875 966 -6 941 -6 c 0
 914 -6 890 22 845 107 c 0
 790 211 768 255 727 360 c 0
 716 387 713 395 701 395 c 0
 689 395 683 382 671 352 c 0
 612 209 592 163 547 75 c 0
 519 20 496 -10 465 -10 c 0
 430 -10 400 20 361 107 c 0
 265 320 215 435 125 644 c 0
 98 708 85 751 61 751 c 0
 44 751 30 745 7 745 c 0
 -14 745 -35 761 -35 782 c 0
 -35 803 -24 815 1 823 c 0
 38 836 108 840 171 840 c 0
 250 840 317 836 345 822 c 0
 357 816 365 807 365 794 c 0
 365 770 346 763 333 763 c 0
 326 763 300 765 292 765 c 0
 279 765 270 763 270 745 c 0
 270 732 279 707 286 688 c 0
 350 507 400 391 465 239 c 0
 478 209 494 168 509 168 c 0
 521 168 535.864257812 191.462890625 551 227 c 0
 597 335 615 382 647 456 c 0
 655.182617188 474.921875 664 495 664 505 c 0
 664 515 661 523 651 544 c 0
 636 575 613 638 593 674 c 0
 560 735 552 747 525 747 c 0
 508 747 498 744 485 744 c 0
 470 744 455 757 455 775 c 0
 455 793 462 810 487 818 c 0
 524 831 578 840 671 840 c 0
 740 840 806 834 835 817 c 0
 847 810 863 802 863 779 c 0
 863 763 851 754 833 754 c 0
 816 754 788 761 770 761 c 0
 757 761 752 758 752 746 c 0
 752 725 764 696 771 677 c 0
 835 496 885 395 960 243 c 0
 974 214 990 190 999 190 c 0
 1008 190 1019 206 1030 231 c 0
 1119 441 1148 526 1179 620 c 0
EndSplineSet
EndChar

StartChar: x
Encoding: 120 120 53
Width: 1026
VWidth: 1920
Flags: HMW
LayerCount: 2
Fore
SplineSet
559 566 m 10
 643 687 l 2
 670 726 681 748 681 761 c 0
 681 771 675 782 655 782 c 0
 641 782 623 777 612 777 c 0
 599 777 583 786 583 806 c 0
 583 832 613 849 771 849 c 0
 922 849 954 822 954 799 c 0
 954 777 939 769 919 769 c 0
 905 769 870 776 845 776 c 0
 807 776 784 748 674 611 c 2
 598 517 l 2
 592 509 583 495 583 482 c 0
 583 471 591 457 595 450 c 2
 820 151 l 2
 854 101 884 83 913 83 c 0
 922 83 940 87 951 87 c 0
 970 87 988 79 988 58 c 0
 988 29 957 1 777 1 c 0
 596 1 524 18 524 62 c 0
 524 75 534 85 545 85 c 0
 580 85 607 78 627 78 c 0
 651 78 664 85 664 102 c 0
 664 121 658 126 650 139 c 2
 520 312 l 2
 507 329 501 339 491 339 c 0
 484 339 478 337 466 321 c 2
 335 153 l 2
 313 115 303 105 303 92 c 0
 303 82 318 74 338 74 c 0
 352 74 370 77 381 77 c 0
 394 77 409 69 409 49 c 0
 409 23 389 -9 231 -9 c 0
 80 -9 30 40 30 63 c 0
 30 85 44 93 64 93 c 0
 78 93 107 85 132 85 c 0
 164 85 198 98 283 199 c 2
 426 371 l 2
 433 381 439 393 439 404 c 0
 439 418 431 431 426 439 c 2
 233 689 l 2
 200 739 185 762 144 762 c 0
 123 762 103 754 86 754 c 0
 67 754 49 767 49 788 c 0
 49 824 99 849 269 849 c 0
 430 849 471 834 471 793 c 0
 471 773 458 762 441 762 c 0
 423 762 414 769 404 769 c 0
 396 769 386 767 386 758 c 0
 386 739 413 714 421 701 c 2
 512 566 l 2
 520 553 528 544 535 544 c 0
 543 544 554 557 559 566 c 10
EndSplineSet
Validated: 1
EndChar

StartChar: y
Encoding: 121 121 54
Width: 798
VWidth: 1920
Flags: HMW
AnchorPoint: "top" 429 880 basechar 0
LayerCount: 2
Fore
SplineSet
144 -247 m 0
 144 -194 181 -149 242 -149 c 0
 282.012965157 -149 294.0078125 -179.609375 304 -204.424804688 c 0
 310.558117416 -220.711779049 318.13480438 -227 332 -227 c 0
 360 -227 363 -206 374 -180 c 0
 387 -149 395 -114 402 -82 c 0
 406 -61 406 4 406 22 c 0
 406 45 398 80 380 118 c 0
 288 312 195 493 116 686 c 0
 92 745 79 750 68 750 c 0
 53 750 29 747 18 747 c 0
 0 747 -14 760 -14 778 c 0
 -14 798 -2 814 30 825 c 0
 63 836 136 843 232 843 c 0
 351 843 374 830 374 799 c 0
 374 781 365 770 314 770 c 0
 294 770 282 758 282 741 c 0
 282 722 284 704 290 687 c 0
 336 552 384 445 440 334 c 0
 460 294 473 283 484 283 c 0
 493 283 497 298 512 346 c 0
 552 473 576 591 590 658 c 0
 600 707 602 739 602 752 c 0
 602 774 586 778 566 778 c 0
 552 778 547 773 536 773 c 0
 523 773 508 784 508 802 c 0
 508 839 578 849 658 849 c 0
 773 849 812 832 812 803 c 0
 812 780 794 771 744 771 c 0
 706 771 698 731 660 609 c 2
 568 308 l 2
 536 203 483 -12 464 -89 c 0
 448 -158 404 -350 258 -350 c 0
 181 -350 144 -297 144 -247 c 0
EndSplineSet
EndChar

StartChar: z
Encoding: 122 122 55
Width: 797
VWidth: 1920
Flags: HMW
AnchorPoint: "top" 419 880 basechar 0
LayerCount: 2
Fore
SplineSet
299 5 m 0
 253 5 193 -5 109 -5 c 0
 76 -5 48 26 48 48 c 0
 48 61 55 77 79 109 c 2
 517 709 l 2
 527 723 531 734 531 744 c 0
 531 751 525 755 501 755 c 0
 449 755 335 748 262 736 c 0
 165 721 153 655 153 598 c 0
 153 575 134 564 113 564 c 0
 78 564 38 608 38 656 c 0
 38 729 95 844 151 844 c 0
 205 844 213 827 261 827 c 0
 347 827 526 825 571 825 c 0
 607 825 633 833 687 833 c 0
 720 833 735 807 735 783 c 0
 735 769 730 756 724 746 c 2
 298 126 l 2
 291 115 288 107 288 97 c 0
 288 80 311 70 335 70 c 0
 517 70 575 77 598 88 c 0
 640 108 669 160 674 200 c 0
 677 223 694 237 716 237 c 0
 741 237 757 215 757 177 c 0
 757 94 717 -7 671 -7 c 0
 617 -7 600 7 552 7 c 0
 476 7 384 5 299 5 c 0
EndSplineSet
EndChar

StartChar: period
Encoding: 46 46 56
Width: 569
VWidth: 1920
Flags: HMW
LayerCount: 2
Fore
SplineSet
144 123 m 4
 144 200 207 263 284 263 c 4
 361 263 424 200 424 123 c 4
 424 46 361 -17 284 -17 c 4
 207 -17 144 46 144 123 c 4
EndSplineSet
EndChar

StartChar: comma
Encoding: 44 44 57
Width: 569
VWidth: 1920
Flags: MW
LayerCount: 2
Fore
SplineSet
240 -261 m 4
 240 -236 259 -222 280 -209 c 4
 306 -193 356 -104 356 -44 c 4
 356 -14 346 -9 335 -9 c 4
 326 -9 312 -17 284 -17 c 4
 207 -17 144 46 144 123 c 4
 144 200 207 263 284 263 c 4
 392 263 452 152 452 10 c 4
 452 -148 344 -298 280 -298 c 4
 256 -298 240 -285 240 -261 c 4
EndSplineSet
Validated: 1
EndChar

StartChar: uniFB00
Encoding: 64256 64256 58
Width: 1254
VWidth: 1920
Flags: HMW
LayerCount: 2
Fore
SplineSet
231 760 m 2
 161 760 l 2
 141 760 111 765 111 795 c 0
 111 801.6618341 112.479334453 807.09088949 114.999999771 811.506167963 c 0
 123.830556716 826.974055625 145.441222733 830 161 830 c 2
 237 830 l 2
 260 830 261 830 261 859 c 2
 261 901 l 2
 261 988 223 1113 223 1192 c 0
 223 1347 382 1414 519 1414 c 0
 638 1414 720 1376 767 1331 c 0
 777 1321 782 1317 786 1317 c 0
 790 1317 792 1322 797 1332 c 0
 839 1418 931 1464 1039 1464 c 0
 1146 1464 1183 1411 1183 1361 c 0
 1183 1318 1156 1284 1105 1284 c 0
 1057 1284 1029 1306 1029 1335 c 0
 1029 1358 1037 1369 1037 1381 c 0
 1037 1398 1026 1400 1003 1400 c 0
 935 1400 873 1351 873 1304 c 0
 873 1228 1002 1150 1002 894 c 2
 1002 861 l 2
 1002 830 1002 830 1027 830 c 2
 1129 830 l 2
 1169 830 1189 825 1189 795 c 0
 1189 785.513167019 1187 778.526334039 1183 773.407045526 c 4
 1174.35088936 762.33772234 1156.35088936 760 1129 760 c 2
 1029 760 l 2
 1002 760 1002 760 1002 733 c 2
 1002 604 l 2
 1002 348 1010 143 1027 97 c 0
 1036 72 1061 64 1081 64 c 0
 1115 64 1140 82 1159 82 c 0
 1173 82 1189 72 1189 56 c 0
 1189 20 1116 -15 917 -15 c 0
 737 -15 675 6 675 43 c 0
 675 60 682 75 701 75 c 0
 719 75 740 57 777 57 c 0
 816 57 821 75 832 101 c 0
 856 159 871 307 871 591 c 2
 871 731 l 2
 871 760 870 760 841 760 c 2
 419 760 l 2
 392 760 392 760 392 733 c 2
 392 604 l 2
 392 348 400 143 417 97 c 0
 426 72 451 64 471 64 c 0
 505 64 530 82 549 82 c 0
 563 82 579 72 579 56 c 0
 579 20 506 -15 307 -15 c 0
 127 -15 65 6 65 43 c 0
 65 60 72 75 91 75 c 0
 109 75 130 57 167 57 c 0
 206 57 211 75 222 101 c 0
 246 159 261 307 261 591 c 2
 261 731 l 2
 261 760 260 760 231 760 c 2
770 1147 m 0
 752 1137 730 1133 705 1133 c 0
 654 1133 619 1173 619 1200 c 0
 619 1261 669 1258 669 1284 c 0
 669 1317 620 1351 513 1351 c 0
 395 1351 330 1295 330 1230 c 0
 330 1154 392 1090 392 894 c 2
 392 861 l 2
 392 830 392 830 417 830 c 2
 847 830 l 2
 870 830 871 830 871 859 c 2
 871 901 l 2
 871 1001 826 1077 797 1140 c 0
 793 1149 790 1155 787 1155 c 0
 784 1155 779 1152 770 1147 c 0
EndSplineSet
LCarets2: 1 0
Ligature2: "'liga' Standard Ligatures lookup" f f
EndChar

StartChar: uniFB01
Encoding: 64257 64257 59
Width: 1254
VWidth: 1920
Flags: HMW
LayerCount: 2
Fore
SplineSet
896 401 m 2
 896 508 l 2
 896 745 893 760 848 760 c 2
 446 760 l 2
 419 760 418 760 418 733 c 2
 418 604 l 2
 418 348 427 143 444 97 c 0
 453 72 478 64 498 64 c 0
 532 64 557 82 576 82 c 0
 590 82 606 72 606 56 c 0
 606 20 533 -15 334 -15 c 0
 154 -15 92 6 92 43 c 0
 92 60 99 75 118 75 c 0
 136 75 157 57 194 57 c 0
 233 57 237 75 248 101 c 0
 272 159 288 307 288 591 c 2
 288 731 l 2
 288 760 287 760 258 760 c 2
 188 760 l 2
 168 760 138 765 138 795 c 0
 138 801.6618341 139.479334453 807.09088949 141.999999771 811.506167963 c 4
 150.830556716 826.974055625 172.441222733 830 188 830 c 2
 264 830 l 2
 287 830 288 830 288 859 c 2
 288 901 l 2
 288 1088 232 1153 232 1232 c 0
 232 1387 389 1474 666 1474 c 0
 933 1474 1046 1369 1046 1259 c 0
 1046 1173 999 1110 942 1110 c 0
 885 1110 836 1143 836 1209 c 0
 836 1274 899 1293 899 1325 c 0
 899 1349 857 1404 666 1404 c 0
 458 1404 366 1347 366 1270 c 0
 366 1194 418 1180 418 894 c 2
 418 861 l 2
 418 830 419 830 444 830 c 2
 1020 830 l 2
 1041 830 1044 822 1044 795 c 2
 1044 414 l 2
 1044 298 1047 143 1064 97 c 0
 1073 72 1088 67 1108 67 c 0
 1132 67 1141 74 1160 74 c 0
 1174 74 1190 64 1190 48 c 0
 1190 12 1155 -15 956 -15 c 0
 776 -15 736 1 736 38 c 0
 736 55 743 70 762 70 c 0
 780 70 797 62 814 62 c 0
 833 62 859 75 870 101 c 0
 894 159 896 307 896 401 c 2
EndSplineSet
LCarets2: 1 0
Ligature2: "'liga' Standard Ligatures lookup" f i
EndChar

StartChar: uniFB02
Encoding: 64258 64258 60
Width: 1239
VWidth: 1920
Flags: HMW
LayerCount: 2
Fore
SplineSet
280 859 m 2
 280 901 l 2
 280 1088 224 1183 224 1262 c 0
 224 1417 381 1504 658 1504 c 0
 772.643554688 1504 855.89453125 1487.64160156 917 1456.84179688 c 0
 930.749023438 1449.91113281 933.549804688 1448.94238281 944 1448.94238281 c 0
 954 1448.94238281 1013.56152344 1461 1027 1461 c 0
 1048 1461 1051 1448 1051 1421 c 0
 1051 1345 1044 1220 1044 894 c 2
 1044 604 l 2
 1044 348 1044 143 1061 97 c 0
 1070 72 1085 67 1105 67 c 0
 1129 67 1138 74 1157 74 c 0
 1171 74 1186 64 1186 48 c 0
 1186 12 1151 -15 952 -15 c 0
 772 -15 732 1 732 38 c 0
 732 55 739 70 758 70 c 0
 776 70 794 62 811 62 c 0
 830 62 855 75 866 101 c 0
 890 159 895 307 895 591 c 2
 895 901 l 2
 895 1168 886 1235 886 1311 c 0
 886 1335 809 1434 638 1434 c 0
 440 1434 358 1377 358 1300 c 0
 358 1224 411 1180 411 894 c 2
 411 861 l 2
 411 830 411 830 436 830 c 2
 538 830 l 2
 578 830 598 825 598 795 c 0
 598 784.04554885 595.333333333 776.424431033 590 771.162917559 c 4
 580.727398467 762.01518295 563.394065133 760 538 760 c 2
 438 760 l 2
 411 760 411 760 411 733 c 2
 411 604 l 2
 411 348 419 143 436 97 c 0
 445 72 470 64 490 64 c 0
 524 64 549 82 568 82 c 0
 582 82 598 72 598 56 c 0
 598 20 525 -15 326 -15 c 0
 146 -15 84 6 84 43 c 0
 84 60 91 75 110 75 c 0
 128 75 149 57 186 57 c 0
 225 57 230 75 241 101 c 0
 265 159 280 307 280 591 c 2
 280 731 l 2
 280 760 279 760 250 760 c 2
 180 760 l 2
 160 760 130 765 130 795 c 0
 130 803.268999534 132.279211776 809.638655921 135.999999724 814.527786964 c 0
 145.778261809 827.376464549 165.512666356 830 180 830 c 2
 256 830 l 2
 279 830 280 830 280 859 c 2
EndSplineSet
Ligature2: "'liga' Standard Ligatures lookup" f l
EndChar

StartChar: uniFB03
Encoding: 64259 64259 61
Width: 1824
VWidth: 1920
Flags: HMW
LayerCount: 2
Fore
SplineSet
1476 401 m 6
 1476 508 l 6
 1476 745 1473 760 1428 760 c 6
 1026 760 l 6
 999 760 998 760 998 733 c 6
 998 604 l 6
 998 348 1007 143 1024 97 c 4
 1033 72 1058 64 1078 64 c 4
 1112 64 1137 82 1156 82 c 4
 1170 82 1186 72 1186 56 c 4
 1186 20 1113 -15 914 -15 c 4
 734 -15 672 6 672 43 c 4
 672 60 679 75 698 75 c 4
 716 75 737 57 774 57 c 4
 813 57 817 75 828 101 c 4
 852 159 868 307 868 591 c 6
 868 731 l 6
 868 760 867 760 838 760 c 6
 408 760 l 6
 381 760 381 760 381 733 c 6
 381 604 l 6
 381 348 389 143 406 97 c 4
 415 72 440 64 460 64 c 4
 494 64 519 82 538 82 c 4
 552 82 568 72 568 56 c 4
 568 20 495 -15 296 -15 c 4
 116 -15 54 6 54 43 c 4
 54 60 61 75 80 75 c 4
 98 75 119 57 156 57 c 4
 195 57 200 75 211 101 c 4
 235 159 250 307 250 591 c 6
 250 731 l 6
 250 760 249 760 220 760 c 6
 150 760 l 6
 130 760 100 765 100 795 c 4
 100 803.986102856 102.691668151 810.729148919 106.999999705 815.766640565 c 4
 117.074982995 827.54675626 135.990735237 830 150 830 c 6
 226 830 l 6
 249 830 250 830 250 859 c 6
 250 901 l 6
 250 1088 194 1183 194 1262 c 4
 194 1417 351 1504 628 1504 c 4
 743 1504 866 1468 927 1437 c 4
 941 1430 949 1426 951 1426 c 4
 955 1426 960.252091318 1427.45886578 965 1430 c 4
 1036 1468 1131 1499 1246 1499 c 4
 1513 1499 1626 1369 1626 1259 c 4
 1626 1173 1579 1110 1522 1110 c 4
 1465 1110 1416 1143 1416 1209 c 4
 1416 1274 1479 1293 1479 1325 c 4
 1479 1349 1437 1429 1246 1429 c 4
 1038 1429 946 1347 946 1270 c 4
 946 1194 998 1180 998 894 c 6
 998 861 l 6
 998 830 999 830 1024 830 c 6
 1600 830 l 6
 1621 830 1624 822 1624 795 c 6
 1624 414 l 6
 1624 298 1627 143 1644 97 c 4
 1653 72 1668 67 1688 67 c 4
 1712 67 1721 74 1740 74 c 4
 1754 74 1770 64 1770 48 c 4
 1770 12 1735 -15 1536 -15 c 4
 1356 -15 1316 1 1316 38 c 4
 1316 55 1323 70 1342 70 c 4
 1360 70 1377 62 1394 62 c 4
 1413 62 1439 75 1450 101 c 4
 1474 159 1476 307 1476 401 c 6
844 830 m 2
 867 830 868 830 868 859 c 2
 868 901 l 2
 868 1088 812 1153 812 1232 c 0
 812 1311.99609375 841 1322.28710938 841 1338 c 0
 841 1341.71679688 832.19140625 1353.74121094 826 1361 c 0
 797 1395 729.400390625 1434 608 1434 c 0
 410 1434 328 1377 328 1300 c 0
 328 1224 381 1180 381 894 c 2
 381 861 l 2
 381 830 381 830 406 830 c 2
 844 830 l 2
EndSplineSet
LCarets2: 2 0 0
Ligature2: "'liga' Standard Ligatures lookup" f f i
EndChar

StartChar: uniFB04
Encoding: 64260 64260 62
Width: 1824
VWidth: 1920
Flags: HMW
LayerCount: 2
Fore
SplineSet
844 830 m 2
 867 830 868 830 868 859 c 2
 868 901 l 2
 868 1088 812 1183 812 1262 c 0
 812 1314 829 1337 829 1352 c 0
 829 1361 823 1366 807 1380 c 0
 772 1411 698 1434 608 1434 c 0
 410 1434 328 1377 328 1300 c 0
 328 1224 381 1180 381 894 c 2
 381 861 l 2
 381 830 381 830 406 830 c 2
 844 830 l 2
408 760 m 2
 381 760 381 760 381 733 c 2
 381 604 l 2
 381 348 389 143 406 97 c 0
 415 72 440 64 460 64 c 0
 494 64 519 82 538 82 c 0
 552 82 568 72 568 56 c 0
 568 20 495 -15 296 -15 c 0
 116 -15 54 6 54 43 c 0
 54 60 61 75 80 75 c 0
 98 75 119 57 156 57 c 0
 195 57 200 75 211 101 c 0
 235 159 250 307 250 591 c 2
 250 731 l 2
 250 760 249 760 220 760 c 2
 150 760 l 2
 130 760 100 765 100 795 c 0
 100 800.725423427 101.092682447 805.540278148 102.9999998 809.583587933 c 0
 111.086619371 826.726360734 133.816948951 830 150 830 c 2
 226 830 l 2
 249 830 250 830 250 859 c 2
 250 901 l 2
 250 1088 194 1183 194 1262 c 0
 194 1417 351 1504 628 1504 c 0
 723 1504 823 1480 889 1454 c 0
 902 1449 910 1446 918 1446 c 0
 928 1446 940 1450 967 1461 c 0
 1038 1489 1132 1504 1246 1504 c 0
 1361 1504 1444 1488 1505 1457 c 0
 1519 1450 1522 1449 1532 1449 c 0
 1542 1449 1602 1461 1615 1461 c 0
 1636 1461 1639 1448 1639 1421 c 0
 1639 1345 1632 1220 1632 894 c 2
 1632 604 l 2
 1632 348 1632 143 1649 97 c 0
 1658 72 1673 67 1693 67 c 0
 1717 67 1726 74 1745 74 c 0
 1759 74 1774 64 1774 48 c 0
 1774 12 1739 -15 1540 -15 c 0
 1360 -15 1320 1 1320 38 c 0
 1320 55 1327 70 1346 70 c 0
 1364 70 1382 62 1399 62 c 0
 1418 62 1443 75 1454 101 c 0
 1478 159 1483 307 1483 591 c 2
 1483 901 l 2
 1483 1168 1474 1235 1474 1311 c 0
 1474 1345 1380 1434 1235 1434 c 0
 1035 1434 946 1376 946 1300 c 0
 946 1224 999 1180 999 894 c 2
 999 861 l 2
 999 830 999 830 1024 830 c 2
 1126 830 l 2
 1166 830 1186 825 1186 795 c 0
 1186 784.04554885 1183.33333333 776.424431033 1178 771.162917559 c 4
 1168.72739847 762.01518295 1151.39406513 760 1126 760 c 2
 1026 760 l 2
 999 760 999 760 999 733 c 2
 999 604 l 2
 999 348 1007 143 1024 97 c 0
 1033 72 1058 64 1078 64 c 0
 1112 64 1137 82 1156 82 c 0
 1170 82 1186 72 1186 56 c 0
 1186 20 1113 -15 914 -15 c 0
 734 -15 672 6 672 43 c 0
 672 60 679 75 698 75 c 0
 716 75 737 57 774 57 c 0
 813 57 817 75 828 101 c 0
 852 159 868 307 868 591 c 2
 868 731 l 2
 868 760 867 760 838 760 c 2
 408 760 l 2
EndSplineSet
Ligature2: "'liga' Standard Ligatures lookup" f f l
EndChar

StartChar: quotesingle
Encoding: 39 39 63
Width: 569
VWidth: 1920
Flags: HMW
LayerCount: 2
Fore
SplineSet
229 979 m 4
 206 979 203 994 203 1024 c 4
 203 1054.78417969 212.543945312 1094.77050781 212.543945312 1160 c 4
 212.543945312 1213.70019531 205 1281.82910156 205 1342 c 4
 205 1407 277 1453 344 1453 c 4
 389 1453 414 1435 414 1400 c 4
 414 1341.19433594 335.352539062 1217.45410156 310.293945312 1127 c 4
 274.833984375 999 254.833984375 979 229 979 c 4
EndSplineSet
Validated: 1
EndChar

StartChar: quoteright
Encoding: 8217 8217 66
Width: 569
VWidth: 1920
Flags: HMW
LayerCount: 2
Fore
SplineSet
250 977 m 4
 250 1002 273.513671875 1017.61132812 290 1036 c 4
 316 1065 336 1106 336 1166 c 4
 336 1196 326 1201 315 1201 c 4
 306 1201 300 1197 272 1197 c 4
 205 1197 134 1246 134 1323 c 4
 134 1400 187 1453 264 1453 c 4
 372 1453 422 1372 422 1230 c 4
 422 1062 334 940 280 940 c 4
 266 940 250 953 250 977 c 4
EndSplineSet
Validated: 1
EndChar

StartChar: quoteleft
Encoding: 8216 8216 67
Width: 569
VWidth: 1920
Flags: HMW
LayerCount: 2
Fore
SplineSet
319 1436 m 4
 319 1411 295.486328125 1395.38867188 279 1377 c 4
 253 1348 233 1307 233 1247 c 4
 233 1217 243 1212 254 1212 c 4
 263 1212 269 1216 297 1216 c 4
 364 1216 435 1167 435 1090 c 4
 435 1013 382 960 305 960 c 4
 197 960 147 1041 147 1183 c 4
 147 1351 235 1473 289 1473 c 4
 303 1473 319 1460 319 1436 c 4
EndSplineSet
Validated: 1
EndChar

StartChar: hyphen
Encoding: 45 45 71
Width: 569
Flags: HMW
LayerCount: 2
Fore
SplineSet
64 446 m 4
 64 470 90 523 118 553 c 4
 132 568 145 576 166 576 c 4
 229 576 255 561 308 561 c 4
 400 561 419 577 474 577 c 4
 493 577 506 560 506 541 c 4
 506 517 493 478 476 447 c 4
 467 430 453 421 434 421 c 4
 384 421 312 434 176 434 c 4
 152 434 108 418 93 418 c 4
 79 418 64 428 64 446 c 4
EndSplineSet
EndChar

StartChar: exclam
Encoding: 33 33 73
Width: 569
VWidth: 1920
Flags: MW
LayerCount: 2
Fore
SplineSet
154 1313 m 4
 154 1420 207 1473 284 1473 c 4
 361 1473 414 1420 414 1313 c 4
 414 1201.91015625 339.16796875 565.01953125 333.7890625 528 c 4
 326.236328125 476.016601562 329.910630452 433 284 433 c 4
 238.089370282 433 241.763671875 476.016601562 234.2109375 528 c 4
 228.83203125 565.01953125 154 1201.91015625 154 1313 c 4
144 123 m 0
 144 200 207 263 284 263 c 0
 361 263 424 200 424 123 c 0
 424 46 361 -17 284 -17 c 0
 207 -17 144 46 144 123 c 0
EndSplineSet
Validated: 1
EndChar

StartChar: question
Encoding: 63 63 74
Width: 797
VWidth: 1920
Flags: HMW
LayerCount: 2
Fore
SplineSet
394 418 m 4
 348 418 322 490 322 584 c 4
 322 758 512 945 512 1172 c 4
 512 1289 414 1348 340 1348 c 4
 286 1348 256 1326 256 1311 c 4
 256 1286 282 1278 282 1228 c 12
 282 1178 255 1113 186 1113 c 4
 127 1113 86 1169 86 1219 c 4
 86 1329 242 1454 450 1454 c 4
 608 1454 696 1341 696 1200 c 4
 696 989 408 750 408 621 c 4
 408 532 442 500 442 468 c 4
 442 436 420 418 394 418 c 4
268 103 m 4
 268 170 315 223 388 223 c 4
 460 223 508 170 508 103 c 4
 508 36 460 -17 388 -17 c 4
 315 -17 268 36 268 103 c 4
EndSplineSet
EndChar

StartChar: ampersand
Encoding: 38 38 75
Width: 1595
Flags: HMW
LayerCount: 2
Fore
SplineSet
762 366 m 0
 723 366 708 403 708 475 c 0
 708 803.850585938 1407 786.99609375 1407 1141 c 0
 1407 1214 1370 1270 1307 1270 c 0
 1234 1270 1193 1204 1155 1204 c 0
 1133 1204 1118 1215 1118 1238 c 0
 1118 1285 1222 1335 1298 1335 c 0
 1444 1335 1538 1228 1538 1080 c 0
 1538 622.754882812 776 591.978515625 776 481 c 0
 776 447.84765625 795.55859375 427.67578125 795.55859375 402 c 0
 795.55859375 388 789.510742188 366 762 366 c 0
802 1179 m 0
 772 1179 771.598632812 1199.52636719 754 1236 c 0
 731.517578125 1282.59570312 667 1348 562 1348 c 0
 377 1348 261 1229 261 1055 c 0
 261 911 398 786 556 786 c 0
 654 786 731 830 731 893 c 0
 731 945 672 964 606 964 c 0
 470 964 263 869 263 615 c 0
 263 291 502 70 815 70 c 0
 1148 70 1306 272 1306 490 c 0
 1306 618 1201 699 1052 746 c 1
 1188 729 l 1
 1314.64385283 712.154258626 1427 613.782505225 1427 493 c 0
 1427 222 1152 -15 723 -15 c 0
 314 -15 47 212 47 483 c 0
 47 864 418 1027 609 1027 c 0
 729 1027 799 988 799 901 c 16
 799 814 715 713 515 713 c 0
 275 713 103 805 103 1035 c 0
 103 1275 335 1407 558 1407 c 0
 741.133789062 1407 839 1298 839 1234 c 0
 839 1200 821 1179 802 1179 c 0
EndSplineSet
EndChar

StartChar: one
Encoding: 49 49 76
Width: 797
VWidth: 1920
Flags: HMW
LayerCount: 2
Fore
SplineSet
330 591 m 6
 330 791 l 6
 330 1038 325 1067 260 1067 c 4
 205 1067 188 1027 158 1027 c 4
 138 1027 126 1041 126 1061 c 4
 126 1086 134 1111 240 1161 c 4
 297 1188 392 1220 422 1227 c 4
 447 1233 509 1247 536 1247 c 4
 570 1247 586 1236 586 1211 c 4
 586 1198 583.799123407 1177.83200173 554 1172 c 4
 526.92740583 1166.70160871 514.232421875 1153.30664062 503.98828125 1129 c 4
 486.838867188 1088.30664062 478 1015.45375797 478 894 c 6
 478 604 l 6
 478 348 483 191 502 146 c 4
 523 95 556 75 602 75 c 4
 656 75 662 92 691 92 c 4
 709 92 720 81 720 65 c 4
 720 29 685 -15 386 -15 c 4
 106 -15 76 21 76 58 c 4
 76 75 90 87 108 87 c 4
 136 87 145 70 202 70 c 4
 271 70 293 105 304 131 c 4
 328 189 330 307 330 591 c 6
EndSplineSet
EndChar

StartChar: two
Encoding: 50 50 77
Width: 1024
Flags: HMW
LayerCount: 2
Fore
SplineSet
98 876 m 4
 79 876 72 897 72 939 c 4
 72 1061 218 1281 524 1281 c 4
 760 1281 898 1106 898 944 c 4
 898 732 709 542 436 296 c 4
 382 247 340 211 340 199 c 4
 340 183 371 182 424 182 c 22
 766 182 l 6
 871 182 892 214 906 279 c 4
 911 304 929 310 946 310 c 4
 974 310 992 292 992 258 c 4
 992 158 892 -94 834 -94 c 4
 805 -94 796 -77 796 -66 c 4
 796 -47 806 -40 806 -20 c 4
 806 -7 794 0 772 0 c 6
 162 0 l 22
 114 0 96 7 96 41 c 4
 96 73 122 88 158 124 c 20
 194 160 222 192 406 376 c 20
 590 560 712 726 712 866 c 4
 712 1016 614 1132 454 1132 c 4
 314 1132 209 1066 162 980 c 4
 124 910 126 876 98 876 c 4
EndSplineSet
EndChar

StartChar: three
Encoding: 51 51 78
Width: 1026
Flags: HMW
LayerCount: 2
Fore
SplineSet
182 966 m 0
 157 966 147 979 147 1009 c 0
 147 1100.42851771 209.267315416 1190.57757003 303.999994512 1242.12508657 c 0
 354.326815514 1269.50975111 413.816255543 1286 478 1286 c 0
 693 1286 802 1138 802 1003 c 0
 802 908 755 830 694 760 c 0
 682 746 660 716 660 709 c 0
 660 699 678.566811066 685.129686076 698 676 c 0
 847 606 924 485 924 318 c 0
 924 41 675 -171 434 -171 c 0
 223 -171 72 -57 72 13 c 0
 72 28 84 43 102 43 c 0
 115 43 124 34 142 20 c 0
 192 -19 272 -77 412 -77 c 0
 592 -77 740 77 740 269 c 0
 740 397.820710706 672.019581447 476.091879411 574.590270533 514.000001545 c 4
 544.201985548 525.823577098 510.948849268 533.720549069 476 538 c 0
 453 541 432 553 432 576 c 0
 432 593 438 603 452 616 c 0
 513 671 638 800 638 943 c 16
 638 1086 552 1173 426 1173 c 0
 330 1173 267 1126 226 1031 c 0
 213 1002 214 966 182 966 c 0
EndSplineSet
EndChar

StartChar: four
Encoding: 52 52 79
Width: 1026
Flags: HMW
LayerCount: 2
Fore
SplineSet
669 520 m 4
 669 558 679 824 679 888 c 4
 679 932 676 985 639 985 c 4
 614 985 594 969 575 946 c 6
 307 630 l 6
 276 593 236 550 236 524 c 4
 236 498 290 478 325 478 c 12
 415 478 565 479 619 479 c 4
 657 479 669 492 669 520 c 4
635 330 m 6
 129 330 l 6
 80 330 25 337 25 384 c 6
 25 386 l 6
 25 424 61 449 87 480 c 14
 676 1185 l 6
 704 1219 732 1304 802 1304 c 4
 830 1304 836 1280 836 1267 c 4
 836 1221 827 1202 827 1162 c 6
 827 522 l 6
 827 496 832 491 848 491 c 4
 878 491 908 500 930 500 c 4
 942 500 951 490 951 468 c 4
 951 416 947 376 947 360 c 12
 947 344 935 326 919 326 c 4
 901 326 863 327 847 327 c 4
 841 327 834 324 834 314 c 6
 834 96 l 14
 834 54 856 23 856 11 c 4
 856 -5 847 -15 823 -25 c 4
 790 -39 698 -60 677 -60 c 4
 663 -60 647 -52 647 -20 c 4
 647 2 672 78 672 222 c 6
 672 292 l 6
 672 314 664 330 635 330 c 6
EndSplineSet
EndChar

StartChar: five
Encoding: 53 53 80
Width: 912
Flags: HMW
LayerCount: 2
Fore
SplineSet
290 1248 m 6
 681 1248 l 6
 716 1248 738 1258 750 1281 c 4
 762 1304 774 1323 796 1323 c 4
 815 1323 831 1306 831 1276 c 4
 831 1270 830 1263 828 1255 c 6
 772 1091 l 6
 760 1053 738 1047 672 1047 c 6
 294 1047 l 6
 271 1047 267.25390625 1036.2421875 264 1025 c 6
 220 826 l 6
 217 816 215 803 215 791 c 4
 215 776 219 763 233 763 c 4
 591 763 862 599 862 309 c 4
 862 19 640 -225 306 -225 c 4
 92 -225 50 -171.135742188 50 -138 c 4
 50 -112 59 -98 89 -98 c 12
 119 -98 162 -124 309 -124 c 12
 456 -124 674 -15 674 219 c 4
 674 493 469 582 165 582 c 4
 111 582 91 593 91 631 c 4
 91 646 95 666 101 692 c 6
 222 1179 l 6
 233 1223 250 1248 290 1248 c 6
EndSplineSet
EndChar

StartChar: six
Encoding: 54 54 81
Width: 1026
Flags: HMW
LayerCount: 2
Fore
SplineSet
227 461 m 4
 227 292 363 47 555 47 c 4
 717 47 823 182 823 351 c 4
 823 570 687 779 495 779 c 4
 353 779 227 680 227 461 c 4
67 507 m 4
 67 871 313 1210 625 1353 c 4
 680 1378 739 1407 797 1407 c 4
 824 1407 843 1391 843 1374 c 4
 843 1360 831 1346 803 1339 c 4
 553 1278 390 1087 285 830 c 4
 280 818 277 809 277 802 c 4
 277 794 282 789 289 789 c 4
 297 789 310 796 325 809 c 4
 380 858 467 909 599 909 c 4
 791 909 959 712 959 463 c 12
 959 214 773 -20 551 -20 c 4
 329 -20 67 123 67 507 c 4
EndSplineSet
EndChar

StartChar: seven
Encoding: 55 55 82
Width: 1024
Flags: HMW
LayerCount: 2
Fore
SplineSet
265 1252 m 4
 309 1252 771 1268 815 1268 c 12
 859 1268 917 1280 955 1280 c 12
 993 1280 1005 1254 1005 1234 c 12
 1005 1214 998 1194 985 1158 c 14
 547 -112 l 14
 530 -160 503 -186 481 -186 c 4
 436 -186 380 -171 380 -135 c 4
 380 -100 418 -60 457 40 c 14
 823 978 l 6
 833 1004 837 1014 837 1040 c 12
 837 1066 823 1076 781 1076 c 12
 739 1076 303 1048 229 1048 c 4
 185 1048 170 1027 170 1001 c 4
 170 975 177 960 177 946 c 4
 177 922 161 902 135 902 c 4
 109 902 69 909 69 965 c 4
 69 997 72 1106 73 1144 c 4
 75 1202 107 1278 151 1278 c 4
 195 1278 221 1252 265 1252 c 4
EndSplineSet
EndChar

StartChar: eight
Encoding: 56 56 83
Width: 1024
Flags: HMW
LayerCount: 2
Fore
SplineSet
72 960 m 0
 72 1124 216 1312 516 1312 c 0
 806 1312 899 1160 899 1010 c 0
 899 877 817 801 737 750 c 0
 714 735 707 731 707 726 c 0
 707 719 713 717 725 711 c 0
 904 625 980 535 980 382 c 0
 980 184 847 -28 513 -28 c 0
 209 -28 44 164 44 356 c 0
 44 498 109 564 234 671 c 0
 238 675 252 684 252 692 c 0
 252 699 241 710 210 731 c 0
 124 789 72 868 72 960 c 0
325 616 m 0
 200.903540773 549.178829647 135 477 135 353 c 0
 135 179 321 51 503 51 c 0
 715 51 836 164 836 298 c 0
 836 452 679 540 445 616 c 0
 415 626 399 632 383 632 c 0
 368 632 351 630 325 616 c 0
710 839 m 0
 772 878 809 926 809 1014 c 0
 809 1122 712 1243 524 1243 c 0
 336 1243 236 1140 236 1036 c 0
 236 932 300 875 492 796 c 0
 521 784 545 779 567 779 c 0
 616 779 655 804 710 839 c 0
EndSplineSet
EndChar

StartChar: nine
Encoding: 57 57 84
Width: 1026
Flags: HMW
LayerCount: 2
Fore
SplineSet
799 827 m 4
 799 996 663 1241 471 1241 c 4
 309 1241 203 1106 203 937 c 4
 203 718 339 509 531 509 c 4
 673 509 799 608 799 827 c 4
959 781 m 4
 959 371.909179688 716 68 584 -39.9384765625 c 4
 501.265625 -107.591796875 462.006835938 -124 404 -124 c 4
 374 -124 353 -108 353 -91 c 4
 353 -77 365.94921875 -66.0615234375 393 -56 c 4
 557 5 716 287 741 458 c 4
 742.880859375 470.86328125 744 480 744 487 c 4
 744 495 739 500 732 500 c 4
 724 500 711 493 696 480 c 4
 641 431 559 379 427 379 c 4
 235 379 67 576 67 825 c 12
 67 1074 253 1308 475 1308 c 4
 697 1308 959 1165 959 781 c 4
EndSplineSet
EndChar

StartChar: figuredash
Encoding: 8210 8210 85
Width: 1859
Flags: HMW
LayerCount: 2
Fore
SplineSet
64 458 m 0
 64 482 90 535 118 565 c 0
 132 580 145 588 166 588 c 0
 229 588 1545 573 1598 573 c 0
 1690 573 1709 589 1764 589 c 0
 1783 589 1796 572 1796 553 c 0
 1796 529 1773 478 1756 447 c 0
 1747 430 1733 421 1714 421 c 0
 1686 421 1637 440 1574 440 c 2
 274 440 l 2
 194 440 108 430 93 430 c 0
 79 430 64 440 64 458 c 0
EndSplineSet
EndChar

StartChar: slash
Encoding: 47 47 86
Width: 700
Flags: HMW
LayerCount: 2
Fore
SplineSet
136 -112 m 4
 119.418945312 -160.14453125 92 -186 60 -186 c 4
 26.6650390625 -186 10.0000002385 -172.496806434 10 -135 c 4
 10 -100 39.4130859375 -60.5283203125 77 40 c 4
 246.82081316 484.512520173 409.554924996 936.11174167 564 1396 c 4
 580.581054688 1444.14453125 608 1470 640 1470 c 4
 673.352539062 1470 689.999999761 1456.48157027 690 1419 c 4
 690 1384 660.586914062 1344.52832031 623 1244 c 4
 453.17918684 799.487479827 290.445075004 347.88825833 136 -112 c 4
EndSplineSet
EndChar

StartChar: endash
Encoding: 8211 8211 87
Width: 1119
Flags: HMW
LayerCount: 2
Fore
SplineSet
64 458 m 4
 64 482 90 535 118 565 c 4
 132 580 145 588 166 588 c 4
 229 588 805 573 858 573 c 4
 950 573 969 589 1024 589 c 4
 1043 589 1056 572 1056 553 c 4
 1056 529 1033 478 1016 447 c 4
 1007 430 993 421 974 421 c 4
 946 421 897 440 834 440 c 6
 274 440 l 6
 194 440 108 430 93 430 c 4
 79 430 64 440 64 458 c 4
EndSplineSet
EndChar

StartChar: emdash
Encoding: 8212 8212 88
Width: 1859
Flags: HMW
LayerCount: 2
Fore
SplineSet
64 458 m 0
 64 482 90 535 118 565 c 0
 132 580 145 588 166 588 c 0
 229 588 1545 573 1598 573 c 0
 1690 573 1709 589 1764 589 c 0
 1783 589 1796 572 1796 553 c 0
 1796 529 1773 478 1756 447 c 0
 1747 430 1733 421 1714 421 c 0
 1686 421 1637 440 1574 440 c 2
 274 440 l 2
 194 440 108 430 93 430 c 0
 79 430 64 440 64 458 c 0
EndSplineSet
EndChar

StartChar: uni2015
Encoding: 8213 8213 89
Width: 1859
Flags: HMW
LayerCount: 2
Fore
SplineSet
64 458 m 0
 64 482 90 535 118 565 c 0
 132 580 145 588 166 588 c 0
 229 588 1545 573 1598 573 c 0
 1690 573 1709 589 1764 589 c 0
 1783 589 1796 572 1796 553 c 0
 1796 529 1773 478 1756 447 c 0
 1747 430 1733 421 1714 421 c 0
 1686 421 1637 440 1574 440 c 2
 274 440 l 2
 194 440 108 430 93 430 c 0
 79 430 64 440 64 458 c 0
EndSplineSet
EndChar

StartChar: numbersign
Encoding: 35 35 90
Width: 1163
Flags: HMW
LayerCount: 2
Fore
SplineSet
839 1200 m 4
 866 1200 880 1185 880 1155 c 4
 880 1135 862 1098 850 1042 c 14
 612 -52 l 22
 601 -101 568 -126 546 -126 c 4
 521 -126 505 -111 505 -75 c 4
 505 -40 549 -4 572 100 c 14
 748 898 l 22
 776.965228069 1029.33097727 781 1114 781 1140 c 4
 781 1180 811 1200 839 1200 c 4
489 1200 m 4
 516 1200 530 1185 530 1155 c 4
 530 1135 512 1098 500 1042 c 14
 262 -52 l 22
 251 -101 218 -126 196 -126 c 4
 171 -126 155 -111 155 -75 c 4
 155 -40 199 -4 222 100 c 14
 398 898 l 22
 426.965228069 1029.33097727 431 1114 431 1140 c 4
 431 1180 461 1200 489 1200 c 4
81 738 m 0
 81 762 107 815 135 845 c 0
 149 860 162 868 183 868 c 0
 246 868 842 853 895 853 c 0
 987 853 1006 869 1061 869 c 0
 1080 869 1093 852 1093 833 c 0
 1093 809 1070 758 1053 727 c 0
 1044 710 1030 701 1011 701 c 0
 983 701 934 720 871 720 c 2
 291 720 l 2
 211 720 124 710 109 710 c 0
 95 710 81 720 81 738 c 0
21 318 m 0
 21 342 47 395 75 425 c 0
 89 440 102 448 123 448 c 0
 186 448 782 433 835 433 c 0
 927 433 946 449 1001 449 c 0
 1020 449 1033 432 1033 413 c 0
 1033 389 1010 338 993 307 c 0
 984 290 970 281 951 281 c 0
 923 281 874 300 811 300 c 2
 231 300 l 2
 151 300 64 290 49 290 c 0
 35 290 21 300 21 318 c 0
EndSplineSet
EndChar

StartChar: underscore
Encoding: 95 95 91
Width: 1024
VWidth: 2048
Flags: HMW
LayerCount: 2
Fore
SplineSet
486 -452 m 6
 160 -452 96 -459 20 -459 c 4
 -7 -459 -20 -456 -20 -435 c 6
 -20 -375 l 6
 -20 -354 -7 -351 20 -351 c 4
 96 -351 160 -358 486 -358 c 6
 507 -358 l 6
 833 -358 928 -351 1004 -351 c 4
 1031 -351 1044 -354 1044 -375 c 6
 1044 -435 l 6
 1044 -456 1031 -459 1004 -459 c 4
 928 -459 833 -452 507 -452 c 6
 486 -452 l 6
EndSplineSet
EndChar

StartChar: dollar
Encoding: 36 36 92
Width: 1026
VWidth: 1920
Flags: HMW
LayerCount: 2
Fore
SplineSet
153 350 m 0
 176 148 307 77 516 77 c 256
 714 77 836 177 836 298 c 256
 836 434 707 469 470 536 c 0
 216 608 46 658 46 863 c 256
 46 1103 278 1224 566 1224 c 256
 710 1224 824 1142 856 1120 c 0
 907 1085 920 1063 920 1034 c 0
 920 951 880 906 822 906 c 0
 800 906 789 927 776 986 c 0
 762 1048 696 1141 506 1141 c 256
 349 1141 192 1056 192 936 c 256
 192 846 269 802 512 726 c 0
 750 652 990 617 990 388 c 256
 990 131 745 -5 516 -5 c 256
 267 -5 78 89 47 193 c 0
 37 225 36 294 36 319 c 0
 36 403 51 428 88 428 c 0
 134 428 147 399 153 350 c 0
578 26 m 6
 578 -16 600 -47 600 -59 c 4
 600 -75 591 -85 567 -95 c 4
 534 -109 502 -130 481 -130 c 4
 467 -130 451 -122 451 -90 c 4
 451 -68 476 8 476 152 c 6
 476 1210 l 6
 476 1252 454 1283 454 1295 c 4
 454 1311 463 1321 487 1331 c 4
 520 1345 552 1366 573 1366 c 4
 587 1366 603 1358 603 1326 c 4
 603 1304 578 1228 578 1084 c 6
 578 26 l 6
EndSplineSet
EndChar

StartChar: at
Encoding: 64 64 93
Width: 1518
VWidth: 1920
Flags: HMW
LayerCount: 2
Fore
SplineSet
90 412 m 0
 90 924 506 1157 859 1157 c 0
 1234 1157 1428 874 1428 612 c 0
 1428 332 1184 162 996 162 c 0
 916 162 899 189 899 234 c 0
 899 264 903 287 903 306 c 0
 903 320 900 325 896 325 c 0
 892 325 888 314 880 304 c 0
 838 249 743 156 636 156 c 0
 522 156 424 251 424 369 c 0
 424 616 638 846 830 846 c 0
 876 846 913 790 930 760 c 0
 940 743 941 740 948 740 c 0
 957 740 958 762 959 792 c 0
 959 805 968 827 986 827 c 0
 1048 827 1082 835 1099 835 c 0
 1115 835 1119 826 1119 818 c 0
 1119 796 1105 780 1091 727 c 0
 1061 613 1031 476 1031 336 c 0
 1031 281 1049 250 1080 250 c 0
 1169 250 1358 385 1358 612 c 0
 1358 854 1168 1094 858 1094 c 4
 577 1094 169 817 169 402 c 4
 169 36 473 -152 752 -152 c 0
 992 -152 1124 -50 1219 32 c 0
 1228.24036692 39.9758956578 1241 48 1254 48 c 0
 1274 48 1280 33 1280 20 c 0
 1280 0 1263.13454635 -13.1608112668 1250 -24 c 0
 1147 -109 988 -211 751 -211 c 0
 412 -211 90 38 90 412 c 0
796 768 m 0
 685 768 590 531 590 385 c 0
 590 325 616 252 689 252 c 0
 790 252 919 421 919 600 c 0
 919 683 866 768 796 768 c 0
EndSplineSet
EndChar

StartChar: braceleft
Encoding: 123 123 95
Width: 750
Flags: HMW
LayerCount: 2
Fore
SplineSet
156 594 m 0
 156 513 212 505 236 363 c 0
 248.256835938 290.482421875 280 -51 289 -108 c 0
 298 -165 306.591796875 -181.385742188 332 -191 c 0
 369 -205 425 -210 483 -210 c 0
 561 -210 602 -205 637 -205 c 0
 667.149414062 -205 680 -221 680 -254 c 0
 680 -287.611328125 668.951171875 -300.115234375 642 -308.439453125 c 0
 607.530273438 -319.084960938 551.991210938 -336 445 -336 c 0
 358 -336 252.544921875 -311.915039062 205 -303 c 0
 157 -294 133 -273 133 -234 c 0
 133 -195 139 222 139 351 c 0
 139 430 42 480 42 594 c 0
 42 708 139 758 139 837 c 0
 139 966 133 1383 133 1422 c 0
 133 1461 157 1482 205 1491 c 0
 252.544921875 1499.91503906 358 1524 445 1524 c 0
 551.991210938 1524 607.530273438 1507.08496094 642 1496.43945312 c 0
 668.951171875 1488.11523438 680 1475.61132812 680 1442 c 0
 680 1409 667.149414062 1393 637 1393 c 0
 602 1393 541 1398 463 1398 c 0
 405 1398 369 1393 332 1379 c 0
 306.591796875 1369.38574219 298 1353 289 1296 c 0
 280 1239 248.256835938 897.517578125 236 825 c 0
 212 683 156 675 156 594 c 0
EndSplineSet
EndChar

StartChar: bar
Encoding: 124 124 96
Width: 428
VWidth: 1920
Flags: HMW
LayerCount: 2
Fore
SplineSet
261 146 m 6
 261 -180 268 -244 268 -320 c 4
 268 -347 265 -360 244 -360 c 6
 184 -360 l 6
 163 -360 160 -347 160 -320 c 4
 160 -244 167 -180 167 146 c 6
 167 863 l 6
 167 1189 160 1284 160 1360 c 4
 160 1387 163 1400 184 1400 c 6
 244 1400 l 6
 265 1400 268 1387 268 1360 c 4
 268 1284 261 1189 261 863 c 6
 261 146 l 6
EndSplineSet
EndChar

StartChar: braceright
Encoding: 125 125 97
Width: 750
Flags: HMW
LayerCount: 2
Fore
SplineSet
594 594 m 0
 594 675 538 683 514 825 c 0
 501.743164062 897.517578125 470 1239 461 1296 c 0
 452 1353 443.408203125 1369.38574219 418 1379 c 0
 381 1393 325 1398 267 1398 c 0
 189 1398 148 1393 113 1393 c 0
 82.8505859375 1393 70 1409 70 1442 c 0
 70 1475.61132812 81.048828125 1488.11523438 108 1496.43945312 c 0
 142.469726562 1507.08496094 198.008789062 1524 305 1524 c 0
 392 1524 497.455078125 1499.91503906 545 1491 c 0
 593 1482 617 1461 617 1422 c 0
 617 1383 611 966 611 837 c 0
 611 758 708 708 708 594 c 4
 708 480 611 430 611 351 c 0
 611 222 617 -195 617 -234 c 0
 617 -273 593 -294 545 -303 c 0
 497.455078125 -311.915039062 392 -336 305 -336 c 0
 198.008789062 -336 142.469726562 -319.084960938 108 -308.439453125 c 0
 81.048828125 -300.115234375 70 -287.611328125 70 -254 c 0
 70 -221 82.8505859375 -205 113 -205 c 0
 148 -205 209 -210 287 -210 c 0
 345 -210 381 -205 418 -191 c 0
 443.408203125 -181.385742188 452 -165 461 -108 c 0
 470 -51 501.743164062 290.482421875 514 363 c 0
 538 505 594 513 594 594 c 0
EndSplineSet
EndChar

StartChar: bracketleft
Encoding: 91 91 98
Width: 740
Flags: HMW
LayerCount: 2
Fore
SplineSet
139 837 m 2
 139 966 133 1383 133 1422 c 0
 133 1461 157 1482 205 1491 c 0
 252.544921875 1499.91503906 358 1524 445 1524 c 0
 551.991210938 1524 607.530273438 1507.08496094 642 1496.43945312 c 0
 668.951171875 1488.11523438 680 1480.61132812 680 1457 c 0
 680 1424 667.149414062 1423 637 1423 c 0
 509 1423 419 1423 382 1410 c 0
 356.369140625 1400.99511719 348 1384 339 1327 c 0
 330 1270 301 998.545898438 301 725 c 2
 301 463 l 2
 301 189.454101562 330 -82 339 -139 c 0
 348 -196 356.369140625 -212.995117188 382 -222 c 0
 419 -235 509 -235 637 -235 c 0
 667.149414062 -235 680 -236 680 -269 c 0
 680 -292.611328125 668.951171875 -300.115234375 642 -308.439453125 c 0
 607.530273438 -319.084960938 551.991210938 -336 445 -336 c 0
 358 -336 252.544921875 -311.915039062 205 -303 c 0
 157 -294 133 -273 133 -234 c 0
 133 -195 139 222 139 351 c 2
 139 837 l 2
EndSplineSet
EndChar

StartChar: bracketright
Encoding: 93 93 99
Width: 740
Flags: HMW
LayerCount: 2
Fore
SplineSet
601 351 m 2
 601 222 607 -195 607 -234 c 0
 607 -273 583 -294 535 -303 c 0
 487.455078125 -311.915039062 382 -336 295 -336 c 0
 188.008789062 -336 132.469726562 -319.084960938 98 -308.439453125 c 0
 71.048828125 -300.115234375 60 -292.611328125 60 -269 c 0
 60 -236 72.8505859375 -235 103 -235 c 0
 231 -235 321 -235 358 -222 c 4
 383.630859375 -212.995117188 392 -196 401 -139 c 4
 410 -82 439 189.454101562 439 463 c 6
 439 725 l 6
 439 998.545898438 410 1270 401 1327 c 4
 392 1384 383.630859375 1400.99511719 358 1410 c 4
 321 1423 231 1423 103 1423 c 0
 72.8505859375 1423 60 1424 60 1457 c 0
 60 1480.61132812 71.048828125 1488.11523438 98 1496.43945312 c 0
 132.469726562 1507.08496094 188.008789062 1524 295 1524 c 0
 382 1524 487.455078125 1499.91503906 535 1491 c 0
 583 1482 607 1461 607 1422 c 0
 607 1383 601 966 601 837 c 2
 601 351 l 2
EndSplineSet
EndChar

StartChar: parenleft
Encoding: 40 40 100
Width: 700
Flags: HMW
LayerCount: 2
Fore
SplineSet
72 594 m 0
 72 678 77 833 139 1092 c 0
 201.915039062 1354.82226562 370 1534 503 1534 c 0
 551 1534 608 1527 642 1516 c 0
 669 1508 680 1496 680 1472 c 0
 680 1449 667 1433 637 1433 c 0
 602 1433 585 1438 538 1438 c 0
 436 1438 336 1293 295 958 c 0
 278.391601562 822.293945312 276 655 276 594 c 0
 276 533 278.391601562 365.706054688 295 230 c 0
 336 -105 436 -250 538 -250 c 0
 585 -250 602 -245 637 -245 c 0
 667 -245 680 -261 680 -284 c 0
 680 -308 669 -320 642 -328 c 0
 608 -339 551 -346 503 -346 c 0
 370 -346 201.915039062 -166.822265625 139 96 c 0
 77 355 72 510 72 594 c 0
EndSplineSet
EndChar

StartChar: parenright
Encoding: 41 41 101
Width: 700
Flags: HMW
LayerCount: 2
Fore
SplineSet
628 594 m 0
 628 510 623 355 561 96 c 0
 498.084960938 -166.822265625 330 -346 197 -346 c 0
 149 -346 92 -339 58 -328 c 0
 31 -320 20 -308 20 -284 c 0
 20 -261 33 -245 63 -245 c 0
 98 -245 115 -250 162 -250 c 0
 264 -250 364 -105 405 230 c 0
 421.608398438 365.706054688 424 533 424 594 c 0
 424 655 421.608398438 822.293945312 405 958 c 0
 364 1293 264 1438 162 1438 c 0
 115 1438 98 1433 63 1433 c 0
 33 1433 20 1449 20 1472 c 4
 20 1496 31 1508 58 1516 c 0
 92 1527 149 1534 197 1534 c 0
 330 1534 498.084960938 1354.82226562 561 1092 c 0
 623 833 628 678 628 594 c 0
EndSplineSet
EndChar

StartChar: backslash
Encoding: 92 92 102
Width: 700
Flags: HMW
LayerCount: 2
Fore
SplineSet
564 -112 m 4
 409.5546875 347.888671875 246.821289062 799.487304688 77 1244 c 4
 39.4130859375 1344.52832031 10 1384 10 1419 c 4
 10 1456.48144531 26.6474609375 1470 60 1470 c 4
 92 1470 119.418945312 1444.14453125 136 1396 c 4
 290.4453125 936.111328125 453.178710938 484.512695312 623 40 c 4
 660.586914062 -60.5283203125 690 -100 690 -135 c 4
 690 -172.497070312 673.334960938 -186 640 -186 c 4
 608 -186 580.581054688 -160.14453125 564 -112 c 4
EndSplineSet
EndChar

StartChar: asterisk
Encoding: 42 42 103
Width: 1080
VWidth: 1920
Flags: HMW
LayerCount: 2
Back
SplineSet
454 995 m 0
 454 1042 492 1080 539 1080 c 0
 586 1080 624 1042 624 995 c 0
 624 948 586 910 539 910 c 0
 492 910 454 948 454 995 c 0
40 993 m 0
 40 1050.75 87.25 1088 145 1088 c 0
 223.793945312 1088 390.875976562 1031.83984375 540 1015.08691406 c 1
 689.124023438 1041.83984375 856.206054688 1088 935 1088 c 0
 992.75 1088 1040 1050.75 1040 993 c 0
 1040 935.25 992.75 898 935 898 c 0
 856.206054688 898 689.124023438 954.16015625 540 970.913085938 c 1
 390.875976562 954.16015625 223.793945312 898 145 898 c 0
 87.25 898 40 935.25 40 993 c 0
EndSplineSet
Fore
SplineSet
40 993 m 0
 40 1051 87 1088 145 1088 c 0
 210 1088 335 1050 460 1027 c 0
 486.823529412 1021.03921569 486.823529412 1021.03921569 468 1043 c 0
 383 1139 292 1232 260 1288 c 0
 231 1338 240 1397 290 1426 c 0
 340 1455 396 1433 425 1383 c 0
 457 1327 486 1200 529 1080 c 0
 538 1056 538 1056 547 1080 c 0
 587 1202 622 1327 655 1383 c 0
 684 1433 740 1455 790 1426 c 0
 840 1397 849 1338 820 1288 c 0
 787 1232 691 1142 608 1044 c 0
 591.000848896 1023.60101868 590.894736842 1023.47368421 617 1030 c 0
 743 1056 870 1088 935 1088 c 0
 993 1088 1040 1051 1040 993 c 0
 1040 935 993 898 935 898 c 0
 869 898 743 937 616 960 c 0
 587.941176471 966.235294118 587.941176471 966.235294118 607 944 c 0
 690 846 787 755 820 698 c 0
 849 648 840 589 790 560 c 0
 740 531 684 553 655 603 c 0
 622 660 593 790 549 911 c 0
 540.1875 934.5 540.1875 934.5 531 910 c 0
 487 789 458 660 425 603 c 0
 396 553 340 531 290 560 c 0
 240 589 231 648 260 698 c 0
 293 755 389 845 472 943 c 0
 491.294117647 965.509803922 491.294117647 965.509803922 462 959 c 0
 336 936 210 898 145 898 c 0
 87 898 40 935 40 993 c 0
EndSplineSet
EndChar

StartChar: plus
Encoding: 43 43 104
Width: 1222
Flags: HMW
LayerCount: 2
Fore
SplineSet
657 456 m 2
 657 280 664 166 664 90 c 0
 664 63 661 50 640 50 c 2
 580 50 l 2
 559 50 556 63 556 90 c 0
 556 166 563 280 563 456 c 2
 563 533 l 2
 563 709 556 854 556 930 c 0
 556 957 559 970 580 970 c 2
 640 970 l 2
 661 970 664 957 664 930 c 0
 664 854 657 709 657 533 c 2
 657 456 l 2
130 478 m 4
 130 502 141 515 169 545 c 4
 183 560 196 568 217 568 c 4
 280 568 841 553 894 553 c 4
 986 553 1005 569 1060 569 c 4
 1079 569 1092 552 1092 533 c 4
 1092 509 1084 498 1067 467 c 4
 1058 450 1044 441 1025 441 c 4
 997 441 948 460 885 460 c 6
 340 460 l 6
 260 460 174 450 159 450 c 4
 145 450 130 460 130 478 c 4
EndSplineSet
EndChar

StartChar: uni2768
Encoding: 10088 10088 105
Width: 2954
Flags: HMW
LayerCount: 2
Fore
SplineSet
433 -241 m 0
 277 -241 100 -162 100 45 c 0
 100 262 322 423 667 489 c 0
 715 498 768 508 825 519 c 1
 680 565 529 685 529 856 c 0
 529 1081 727 1215 971 1250 c 1
 905 1297 857 1357 857 1435 c 0
 857 1568 968 1643 1097 1643 c 0
 1196 1643 1264 1584 1264 1544 c 0
 1264 1504 1234 1478 1189 1478 c 0
 1153 1478 1139 1518 1089 1518 c 0
 1049 1518 1002 1479 1002 1415 c 0
 1002 1343 1073 1291 1140 1259 c 1
 1371 1251 1585 1152 1739 1031 c 1
 1768 1063 1795 1094 1819 1122 c 0
 1951 1278 2170 1437 2374 1437 c 0
 2508 1437 2640 1368 2714 1309 c 1
 2714 1511 l 2
 2714 1545.69871855 2770.90164932 1548 2786 1548 c 0
 2796.29111218 1548 2854 1546.46353978 2854 1512 c 2
 2854 43 l 2
 2854 12.3080414971 2803.99965783 2 2780 2 c 0
 2760 2 2714 12.2333984375 2714 38 c 2
 2714 447 l 1
 2671 340 2566 152 2326 152 c 0
 2065 152 1752 447 1533 686 c 1
 1432 589 1234 454 682 363 c 0
 403 317 235 178 235 34 c 0
 235 -50 307 -131 442 -131 c 0
 577 -131 640 -39 642 37 c 0
 643 74 665 119 705 119 c 0
 745 119 770 88 770 22 c 0
 770 -104 639 -241 433 -241 c 0
1827 953 m 1
 2037 764 2244 622 2450 622 c 0
 2588 622 2670 699 2714 760 c 1
 2714 1122 l 1
 2628 1264 2510 1290 2368 1290 c 0
 2215 1290 2062 1191 1939 1065 c 0
 1909 1035 1871 996 1827 953 c 1
1164 600 m 0
 1218 617 1267 635 1306 654 c 0
 1352 677 1407 716 1463 763 c 1
 1263 973 1098 1056 930 1056 c 0
 770 1056 642 988 642 830 c 0
 642 692 800 580 1000 580 c 0
 1079 580 1129 589 1164 600 c 0
EndSplineSet
EndChar

StartChar: uni2698
Encoding: 9880 9880 107
Width: 1981
Flags: HMW
LayerCount: 2
Fore
SplineSet
202 -146 m 0
 150 -146 100 -100 100 -14 c 0
 100 72 172 138 268 138 c 0
 334 138 374 126 454 91 c 0
 648 6 875 -85 1073 -85 c 0
 1170 -85 1306 -11 1306 81 c 0
 1306 177 1271 215 1244 215 c 0
 1214 215 1163 44 1044 44 c 0
 854 44 716 167 565 192 c 0
 463 209 279 248 279 417 c 0
 279 548 350 546 350 585 c 0
 350 624 113 618 113 858 c 0
 113 1018 148 1043 205 1130 c 0
 262 1217 295 1275 337 1365 c 0
 379 1455 483 1509 564 1509 c 0
 669 1509 691 1412 728 1412 c 0
 765 1412 761 1584 1006 1584 c 0
 1201 1584 1230 1489 1365 1464 c 0
 1505 1438 1600 1345 1600 1240 c 0
 1600 1165 1584 1157 1584 1124 c 0
 1584 1099 1657 1092 1726 1047 c 0
 1795 1002 1873 891 1873 790 c 0
 1873 689 1814 635 1747 558 c 0
 1689 491 1706 378 1646 291 c 0
 1602 227 1558 204 1518 204 c 0
 1481 204 1457 205 1428 205 c 0
 1410 205 1398 202 1398 194 c 0
 1398 173 1427 154 1427 95 c 0
 1427 5.0966796875 1392 -9.740234375 1392 -42 c 0
 1392 -54 1399 -63 1417 -63 c 0
 1423 -63 1431 -61 1441 -59 c 0
 1596 -20 1674 57 1750 142 c 0
 1774 170 1794 189 1822 189 c 0
 1850 189 1881 171 1881 123 c 0
 1881 95 1868 60 1830 26 c 0
 1695 -94 1520 -212 1162 -212 c 0
 854 -212 613 -102 363 -7 c 0
 331 5 312 10 288 10 c 0
 254 10 248 0 248 -20 c 0
 248 -40 268 -52 268 -84 c 0
 268 -116 254 -146 202 -146 c 0
846 978 m 0
 770 978 738 1089 707 1180 c 0
 676 1271 644 1342 551 1342 c 0
 438 1342 410 1203 351 1129 c 0
 292 1055 259 977 259 879 c 0
 259 781 331 731 441 731 c 0
 561 731 633 792 707 792 c 0
 761 792 804 766 804 716 c 0
 804 666 787 607 697 604 c 0
 587 600 447 573 447 443 c 0
 447 313 624 340 684 312 c 0
 788 263 914 170 984 170 c 0
 1044 170 1119 226 1119 319 c 0
 1119 432 1013 575 1013 631 c 0
 1013 667 1037 697 1086 697 c 0
 1165 697 1192 672 1208 611 c 0
 1218 572 1226 532 1259 477 c 0
 1294 418 1352 341 1434 341 c 0
 1546 341 1573 442 1584 493 c 0
 1595 545 1623 614 1671 688 c 0
 1700 733 1722 764 1722 803 c 0
 1722 842 1692 876 1658 908 c 0
 1624 940 1578 969 1537 969 c 0
 1496 969 1469 941 1419 908 c 0
 1376 880 1305 835 1252 835 c 0
 1211 835 1181 865 1181 904 c 0
 1181 963 1264 996 1343 1034 c 0
 1422 1072 1471 1098 1471 1193 c 0
 1471 1288 1331 1317 1233 1366 c 0
 1135 1415 1106 1452 1002 1452 c 0
 898 1452 858 1382 858 1319 c 0
 858 1256 878 1206 917 1165 c 0
 946 1134 964 1117 964 1066 c 0
 964 1015 912 978 846 978 c 0
EndSplineSet
EndChar

StartChar: uni2769
Encoding: 10089 10089 108
Width: 2954
Flags: HMW
LayerCount: 2
Fore
SplineSet
2521 -241 m 0
 2315 -241 2184 -104 2184 22 c 0
 2184 88 2209 119 2249 119 c 0
 2289 119 2311 74 2312 37 c 0
 2314 -39 2377 -131 2512 -131 c 0
 2647 -131 2719 -50 2719 34 c 0
 2719 178 2551 317 2272 363 c 0
 1720 454 1522 589 1421 686 c 1
 1202 447 889 152 628 152 c 0
 388 152 283 340 240 447 c 1
 240 38 l 2
 240 12.2333984375 194 2 174 2 c 0
 150 2 100 12.3076171875 100 43 c 2
 100 1512 l 2
 100 1546.46386719 157.708984375 1548 168 1548 c 0
 183.098632812 1548 240 1545.69824219 240 1511 c 2
 240 1309 l 1
 314 1368 446 1437 580 1437 c 0
 784 1437 1003 1278 1135 1122 c 0
 1159 1094 1186 1063 1215 1031 c 1
 1369 1152 1583 1251 1814 1259 c 1
 1881 1291 1952 1343 1952 1415 c 0
 1952 1479 1905 1518 1865 1518 c 0
 1815 1518 1801 1478 1765 1478 c 0
 1720 1478 1690 1504 1690 1544 c 0
 1690 1584 1758 1643 1857 1643 c 0
 1986 1643 2097 1568 2097 1435 c 0
 2097 1357 2049 1297 1983 1250 c 1
 2227 1215 2425 1081 2425 856 c 0
 2425 685 2274 565 2129 519 c 1
 2186 508 2239 498 2287 489 c 0
 2632 423 2854 262 2854 45 c 0
 2854 -162 2677 -241 2521 -241 c 0
1127 953 m 1
 1083 996 1045 1035 1015 1065 c 0
 892 1191 739 1290 586 1290 c 0
 444 1290 326 1264 240 1122 c 1
 240 760 l 1
 284 699 366 622 504 622 c 0
 710 622 917 764 1127 953 c 1
1790 600 m 0
 1825 589 1875 580 1954 580 c 0
 2154 580 2312 692 2312 830 c 0
 2312 988 2184 1056 2024 1056 c 0
 1856 1056 1691 973 1491 763 c 1
 1547 716 1602 677 1648 654 c 0
 1687 635 1736 617 1790 600 c 0
EndSplineSet
EndChar

StartChar: uni2767
Encoding: 10087 10087 109
Width: 2933
Flags: HMW
LayerCount: 2
Fore
SplineSet
353 505 m 0
 213 505 100 618 100 773 c 0
 100 958 244 1079 439 1079 c 0
 540 1079 625 1050 723 982 c 1
 719 1013 716 1049 716 1086 c 0
 716 1252 864 1414 1122 1414 c 0
 1450 1414 1565 1122 1791 872 c 0
 2000 641 2175 448 2381 448 c 0
 2587 448 2721 616 2721 794 c 0
 2721 972 2583 1070 2457 1070 c 0
 2341 1070 2285 1020 2257 950 c 0
 2248 928 2247 904 2207 904 c 0
 2177 904 2158 913 2158 949 c 0
 2158 1045 2293 1166 2459 1166 c 0
 2695 1166 2833 1006 2833 802 c 0
 2833 618 2688 357 2448 330 c 1
 2397.47460938 127.8984375 2231.04589844 -65 1891 -65 c 4
 1531 -65 1329 80 1192 227 c 2
 694 761 l 2
 573 890 466 947 366 947 c 0
 266 947 196 867 196 771 c 0
 196 665 253 581 351 581 c 0
 392 581 403 560 403 539 c 0
 403 518 383 505 353 505 c 0
884 848 m 1
 910 824 937 797 966 768 c 2
 1451 284 l 2
 1570 167 1724 66 1933 66 c 0
 2079.59730552 66 2280.09960938 97.298828125 2354 319 c 1
 2098 331 1857.46355404 486.984141678 1681 698 c 2
 1395 1040 l 2
 1275.0025961 1183.49339907 1157 1278 1017 1278 c 0
 897 1278 815 1158 815 1064 c 0
 815 1002 841 924 884 848 c 1
EndSplineSet
EndChar

StartChar: bullet
Encoding: 8226 8226 110
Width: 569
Flags: HMW
LayerCount: 2
Fore
SplineSet
88 811 m 4
 88 861 133.456054688 882.947265625 190 900 c 4
 253 919 271 977 335 977 c 4
 378.102539062 977 470 903.655273438 470 717 c 12
 470 639 450 584 389 584 c 4
 357 584 345.287109375 617.942382812 324 669 c 4
 299.818359375 727 287.818359375 741 166 741 c 4
 118 741 88 771 88 811 c 4
EndSplineSet
EndChar

StartChar: equal
Encoding: 61 61 111
Width: 1124
Flags: HMW
LayerCount: 2
Fore
SplineSet
551 318 m 2
 325 318 216 311 140 311 c 0
 113 311 100 314 100 335 c 2
 100 395 l 2
 100 416 113 419 140 419 c 0
 216 419 325 412 551 412 c 2
 572 412 l 2
 798 412 908 419 984 419 c 0
 1011 419 1024 416 1024 395 c 2
 1024 335 l 2
 1024 314 1011 311 984 311 c 0
 908 311 798 318 572 318 c 2
 551 318 l 2
551 608 m 6
 325 608 216 601 140 601 c 4
 113 601 100 604 100 625 c 6
 100 685 l 6
 100 706 113 709 140 709 c 4
 216 709 325 702 551 702 c 6
 572 702 l 6
 798 702 908 709 984 709 c 4
 1011 709 1024 706 1024 685 c 6
 1024 625 l 6
 1024 604 1011 601 984 601 c 4
 908 601 798 608 572 608 c 6
 551 608 l 6
EndSplineSet
EndChar

StartChar: A.swsh
Encoding: 1114112 -1 112
Width: 2017
VWidth: 1920
Flags: HMW
LayerCount: 2
Fore
SplineSet
489 48 m 0
 1181 48 972 1415 1694 1415 c 0
 1777 1415 1801 1371 1801 1288 c 0
 1801 1163 1773 1072 1773 894 c 2
 1773 604 l 2
 1773 348 1776 169 1804 113 c 0
 1816 89 1830 86 1850 86 c 0
 1894 86 1911 105 1940 105 c 0
 1964 105 1976 87 1976 64 c 0
 1976 30 1941 16 1895 7 c 0
 1838 -4 1766 -15 1675 -15 c 0
 1589 -15 1517 -14 1470 -5 c 0
 1421 4 1387 12 1387 45 c 0
 1387 62 1403 85 1431 85 c 0
 1454 85 1476 72 1513 72 c 0
 1532 72 1550 82 1561 108 c 0
 1579 152 1590 245 1594 412 c 0
 1595 460 1595 460 1555 464 c 0
 1490 471 1401 478 1342 478 c 0
 1291 478 1189 470 1130 464 c 0
 1090 460 1090 460 1074 423 c 0
 967 175 832 -36 492 -36 c 0
 260 -36 50 91 50 408 c 0
 50 705 235 778 355 778 c 0
 441 778 504 721 504 664 c 0
 504 607 471 558 405 558 c 0
 340 558 310 651 268 651 c 0
 224 651 132 609 132 428 c 0
 132 150 302 48 489 48 c 0
1596 594 m 2
 1596 901 l 2
 1596 997 1593 1145 1589 1228 c 0
 1587 1267 1587 1280 1571 1280 c 0
 1361 1275 1197 770 1141 596 c 0
 1130 562 1129 561 1155 565 c 0
 1194 570 1275 579 1330 579 c 0
 1413 579 1518 569 1556 569 c 0
 1584 569 1596 576 1596 594 c 2
EndSplineSet
EndChar

StartChar: B.swsh
Encoding: 1114113 -1 113
Width: 1829
VWidth: 1920
Flags: HMW
LayerCount: 2
Fore
SplineSet
848 9 m 0
 762 9 728 -5 633 -5 c 0
 560 -5 543 14 543 41 c 0
 543 94 592 83 657 93 c 0
 727 104 731 179 731 590 c 2
 731 900 l 2
 731 1085 730 1196 721 1254 c 0
 715.2109375 1291.62792969 709.76953125 1317 609 1317 c 0
 392 1317 151 1185 151 887 c 0
 151 706 224 644 268 644 c 0
 310 644 340 737 405 737 c 0
 471 737 504 688 504 631 c 0
 504 574 441 517 355 517 c 0
 235 517 70 590 70 887 c 0
 70 1204 357 1401 612 1401 c 0
 680 1401 690 1400 792 1400 c 0
 914 1400 1034 1408 1153 1408 c 0
 1410 1408 1594 1308 1594 1078 c 0
 1594 982 1557 901 1489 843 c 0
 1455 814 1414 802 1414 783 c 0
 1414 770 1460 752 1505 740 c 0
 1642 702 1727 577 1727 438 c 0
 1727 199 1544 -7 1213 -7 c 0
 1094 -7 962 9 848 9 c 0
1133 772 m 0
 1339 772 1412 912 1412 1032 c 0
 1412 1212 1285 1327 1123 1327 c 0
 958 1327 929 1293 924 1234 c 0
 916 1147 913 1072 913 984 c 0
 913 941 913 864 915 840 c 0
 919 783 925 772 1133 772 c 0
1203 69 m 0
 1399 69 1522 162 1522 362 c 0
 1522 582 1393 693 1253 693 c 0
 1194 693 1060 688 1013 688 c 0
 936 688 913 665 913 624 c 0
 913 579 912 503 912 456 c 0
 912 312 915 203 931 153 c 0
 943 117 995 69 1203 69 c 0
EndSplineSet
EndChar

StartChar: D.swsh
Encoding: 1114114 -1 114
Width: 2017
VWidth: 1920
Flags: HMW
LayerCount: 2
Fore
SplineSet
1176 -13 m 0
 1028 -13 883 6 782 6 c 0
 696 6 652 -5 557 -5 c 0
 484 -5 468 17 468 44 c 0
 468 82 494 97 532 97 c 0
 551 97 574 94 598 94 c 0
 618 94 641 104 654 131 c 0
 680 187 685 314 685 590 c 2
 685 900 l 2
 685 1247 647 1317 589 1317 c 0
 566.19140625 1317 539.450195312 1313.06640625 523.40234375 1313.00097656 c 0
 326.181640625 1288.92089844 131 1155.18066406 131 887 c 0
 131 706 204 644 248 644 c 0
 290 644 320 737 385 737 c 0
 451 737 484 688 484 631 c 0
 484 574 421 517 335 517 c 0
 215 517 50 590 50 887 c 0
 50 1204 337 1401 592 1401 c 0
 660 1401 670 1400 772 1400 c 0
 906.55078125 1400 1085.54394531 1408 1227 1408 c 0
 1674 1408 1974 1157 1974 747 c 0
 1974 407 1760 69 1415 5 c 0
 1337 -9 1256 -13 1176 -13 c 0
1224 77 m 0
 1321 77 1416 77 1507 124 c 0
 1709 228 1780 447 1780 627 c 0
 1780 1017 1576 1329 1206 1329 c 0
 1032 1329 926 1310 914 1301 c 0
 897 1288 891 1245 888 1208 c 0
 880 1111 874 999 874 888 c 0
 874 686 880 401 883 195 c 0
 883 171 890 129 911 120 c 0
 950 103 1050 77 1224 77 c 0
EndSplineSet
EndChar

StartChar: E.swsh
Encoding: 1114115 -1 115
Width: 1702
VWidth: 1920
Flags: HMW
LayerCount: 2
Fore
SplineSet
829 -1 m 0
 743 -1 711 -3 626 -3 c 0
 555 -3 520 17 520 51 c 0
 520 80 537 89 563 89 c 0
 583 89 606 83 635 83 c 0
 688 83 689 135 701 378 c 0
 709 542 711 622 711 820 c 0
 711 1005 709.924804688 1195.98828125 701 1254 c 4
 695.2109375 1291.62792969 689.76953125 1317 589 1317 c 4
 372 1317 131 1185 131 887 c 4
 131 706 204 644 248 644 c 4
 290 644 320 737 385 737 c 4
 451 737 484 688 484 631 c 4
 484 574 421 517 335 517 c 4
 215 517 50 590 50 887 c 4
 50 1204 337 1401 592 1401 c 4
 660 1401 762 1401 864 1401 c 4
 986 1401 1160 1396 1279 1396 c 0
 1392 1396 1433 1426 1470 1426 c 0
 1503 1426 1567 1298 1567 1168 c 0
 1567 1133 1538 1095 1520 1095 c 0
 1500 1095 1489 1134 1467 1183 c 0
 1439 1246 1400 1296 1317 1309 c 0
 1255 1319 1136 1319 1074 1319 c 0
 939 1319 917 1313 911 1244 c 0
 905 1180 895 1021 895 838 c 0
 895 791 907 773 934 763 c 0
 963 753 1009 750 1074 750 c 0
 1208 750 1267 794 1267 858 c 0
 1267 874 1265 885 1265 901 c 0
 1265 914 1272 926 1290 926 c 0
 1347 926 1357 840 1357 716 c 0
 1357 570 1337 495 1293 495 c 0
 1274 495 1265 518 1265 556 c 0
 1265 602 1246 672 1114 672 c 0
 919 672 912 668 906 613 c 0
 901 564 899 521 899 446 c 0
 899 315 905 235 912 135 c 0
 914 113 917 109 943 103 c 0
 990 91 1098 80 1194 80 c 0
 1279 80 1336 81 1389 95 c 0
 1446 110 1492 150 1525 203 c 0
 1564 266 1570 314 1591 314 c 0
 1612 314 1644 277 1644 239 c 0
 1644 166 1536 -27 1490 -27 c 0
 1456 -27 1447 -3 1399 -3 c 0
 1282 -3 1171 -3 1086 -3 c 0
 999 -3 913 -1 829 -1 c 0
EndSplineSet
EndChar

StartChar: F.swsh
Encoding: 1114116 -1 116
Width: 1730
VWidth: 1920
Flags: HMW
LayerCount: 2
Fore
SplineSet
770 590 m 2
 770 900 l 2
 770 1058.70800781 769.881835938 1238.75683594 724 1258.98632812 c 4
 658.325195312 1287.94238281 562.422851562 1314 428 1314 c 4
 301 1314 131 1234 131 956 c 4
 131 775 233 673 367 673 c 4
 429 673 420 786 495 786 c 4
 561 786 594 747 594 680 c 4
 594 623 511 566 425 566 c 4
 245 566 50 669 50 956 c 4
 50 1313 287 1430 542 1430 c 4
 750.305664062 1430 988.048828125 1379 1312 1379 c 4
 1365.00488281 1379 1434.44140625 1383.85058594 1464 1393.79003906 c 4
 1521.86523438 1413.24707031 1523.40039062 1445 1556 1445 c 4
 1597 1445 1612 1414 1612 1374 c 4
 1612 1278 1446.92773438 1238 1142 1238 c 4
 977 1238 972 1233 966 1174 c 4
 958 1100 954 976 954 918 c 0
 954 888 952 848 952 818 c 0
 952 771 952 762 990 754 c 0
 1015 748 1061 745 1142 745 c 0
 1253 745 1347 782 1387 782 c 0
 1413.40136719 782 1424.22753906 756.65234375 1424.22753906 736 c 0
 1424.22753906 705 1418 672.208007812 1418 646 c 0
 1418 594 1426 576 1426 544 c 0
 1426 515 1410 499 1384 499 c 0
 1324 499 1340 621 1264 654 c 0
 1241 664 1211 665 1172 665 c 0
 1090 665 1027 660 996 660 c 0
 966 660 958 646 958 622 c 0
 958 572 956 511 956 436 c 2
 956 328 l 2
 956 11 925.740234375 -50.505859375 906 -127 c 0
 866 -282 757 -369 600 -369 c 0
 433 -369 282 -246 282 -136 c 0
 282 -83 323 -37 384 -37 c 0
 442 -37 477 -85.83984375 477 -134 c 0
 477 -194 491 -296 626 -296 c 0
 734 -296 776 -183 776 -15 c 0
 776 60 770 274 770 590 c 2
EndSplineSet
EndChar

StartChar: G.swsh
Encoding: 1114117 -1 117
Width: 1588
VWidth: 1920
Flags: HMW
LayerCount: 2
Fore
SplineSet
796 -42 m 0
 389 -42 68 283 68 693 c 0
 68 1070 331 1448 816 1448 c 0
 1096 1448 1150 1338 1220 1338 c 0
 1276 1338 1262 1357 1310 1357 c 0
 1350 1357 1386 1231 1386 1115 c 0
 1386 1003 1343 940 1288 940 c 0
 1233 940 1249 1016 1238 1069 c 0
 1205 1226 1015 1369 798 1369 c 0
 393 1369 264 1006 264 758 c 0
 264 388 509 53 846 53 c 0
 1123 53 1182 178 1182 359 c 0
 1182 386 1173 464 1126 464 c 0
 1095 464 1057 444 1032 444 c 0
 1007 444 990 457 990 479 c 0
 990 497 1002 514 1030 525 c 0
 1071 541 1155 557 1276 557 c 0
 1306 557 1397 553 1452 545 c 0
 1496 538 1520 520 1520 485 c 0
 1520 457 1505 450 1486 450 c 0
 1466 450 1452 455 1434 455 c 0
 1416.3255346 455 1396 450 1396 354 c 2
 1396 184 l 2
 1396 -199 1186 -379 1019 -379 c 0
 885 -379 814 -322 814 -257 c 0
 814 -210 849 -188 887 -188 c 0
 980 -188 966 -292 1033 -292 c 0
 1171.50878906 -292 1205.04296875 -94.4169921875 1205.95605469 120.067382812 c 1
 1157.97363281 14.4775390625 994.747212968 -42 796 -42 c 0
EndSplineSet
EndChar

StartChar: M.swsh
Encoding: 1114118 -1 118
Width: 2788
VWidth: 1920
Flags: HMW
LayerCount: 2
Fore
SplineSet
1131 1314 m 0
 1106 1314 1063 1300 1034 1300 c 0
 1014 1300 996 1314 996 1334 c 0
 996 1368 1029 1383 1066 1391 c 0
 1128 1404 1191 1410 1282 1410 c 0
 1303 1410 1378 1408 1401 1403 c 0
 1438 1395 1451 1378 1462 1351 c 2
 1741 441 l 2
 1772 365 1789 352 1807 352 c 0
 1822 352 1836.82226562 369.473632812 1870 441 c 2
 2237 1340 l 2
 2250 1372 2260 1387 2297 1396 c 0
 2325 1403 2390 1410 2432 1410 c 0
 2518 1410 2580 1407 2616 1403 c 0
 2669 1397 2684 1376 2684 1351 c 0
 2684 1321 2668 1310 2646 1310 c 0
 2627 1310 2602 1315 2569 1315 c 0
 2479 1315 2417.61584857 1231.42182426 2487 794 c 2
 2533 504 l 2
 2583.76774613 183.942470075 2633 82 2708 82 c 0
 2733 82 2750 93 2779 93 c 0
 2799 93 2815 77 2815 57 c 0
 2815 23 2782 6 2745 0 c 0
 2683 -10 2622 -15 2531 -15 c 0
 2445 -15 2343 -5 2296 6 c 0
 2244 18 2228 34 2228 59 c 0
 2228 76 2245 94 2273 94 c 0
 2296 94 2315 83 2352 83 c 0
 2412 83 2411.08320747 189.561407036 2348 591 c 2
 2293 941 l 2
 2276.95746828 1043.08883821 2279 1068 2250 1068 c 0
 2226 1068 2208 1018 2187 969 c 2
 1808 46 l 2
 1785 -10 1770 -19 1758 -19 c 0
 1744 -19 1723.77672143 -10.1383592166 1704 45 c 2
 1336 1071 l 2
 1294.81844289 1185.81597172 1280.12788501 1174.98217855 1275.62042243 1124.00007655 c 0
 1210.44730975 386.853131247 928.395642475 -36 492 -36 c 0
 260 -36 40 91 40 408 c 0
 40 705 265 808 385 808 c 0
 471 808 534 751 534 694 c 0
 534 637 501 588 435 588 c 0
 370 588 340 681 298 681 c 0
 254 681 122 609 122 428 c 0
 122 170 312 58 499 58 c 0
 816.19921875 58 1137.03624866 383.774065468 1193.78249417 1261 c 0
 1195.10106788 1281.38349936 1195.10106788 1281.38349936 1179.99999964 1293.4704919 c 0
 1157.88119921 1311.1745226 1141.95178896 1314 1131 1314 c 0
EndSplineSet
EndChar

StartChar: N.swsh
Encoding: 1114119 -1 119
Width: 2595
VWidth: 1920
Flags: HMW
LayerCount: 2
Fore
SplineSet
1106 1314 m 0
 1081 1314 1048 1307 1019 1307 c 0
 999 1307 981 1321 981 1341 c 0
 981 1375 1024 1388 1061 1396 c 0
 1123 1409 1225 1410 1286 1410 c 0
 1352 1410 1377 1393 1405 1359 c 2
 2227 386 l 2
 2250 358 2267 345 2288 345 c 0
 2312 345 2314 410 2314 586 c 2
 2314 876 l 2
 2313 1223 2281 1323 2216 1323 c 0
 2191 1323 2156 1312 2127 1312 c 0
 2107 1312 2091 1328 2091 1348 c 0
 2091 1386 2145 1415 2341 1415 c 0
 2564 1415 2614 1375 2614 1336 c 0
 2614 1319 2597 1301 2569 1301 c 0
 2546 1301 2539 1311 2502 1311 c 0
 2442 1311 2399 1240 2399 829 c 2
 2399 539 l 2
 2399 175 2374 -35 2322 -35 c 0
 2286 -35 2274.14355469 -18.7109375 2252 8 c 2
 1454.47851562 970 l 2
 1414.55078125 1018.16308594 1414.55078125 1018.16308594 1397.74609375 970 c 0
 1187.421875 367.1953125 904.971679688 -36 502 -36 c 0
 270 -36 50 91 50 408 c 0
 50 705 275 808 395 808 c 0
 481 808 544 751 544 694 c 0
 544 637 511 588 445 588 c 0
 380 588 350 681 308 681 c 0
 264 681 132 609 132 428 c 0
 132 170 322 58 509 58 c 0
 801.927734375 58 1115.01367188 378.466796875 1324.03710938 1079 c 0
 1334.64453125 1114.54882812 1334.64453125 1114.54882812 1316.03125 1137 c 2
 1258 1207 l 2
 1193.59765625 1284.68457031 1165.39746094 1314 1106 1314 c 0
EndSplineSet
EndChar

StartChar: P.swsh
Encoding: 1114120 -1 120
Width: 1717
VWidth: 1920
Flags: HMW
LayerCount: 2
Fore
SplineSet
907 607 m 2
 907 504 l 2
 907 157 908 97 983 97 c 0
 1008 97 1046 114 1075 114 c 0
 1095 114 1112 101 1112 73 c 0
 1112 39 1093 23 1028 5 c 0
 967 -12 899 -15 808 -15 c 0
 722 -15 630 -3 583 8 c 0
 531 20 515 48 515 73 c 0
 515 95 532 108 560 108 c 0
 583 108 610 96 647 96 c 0
 707 96 720 180 720 591 c 2
 720 898 l 2
 720 1116.7109375 715.0546875 1232.53027344 691.657226562 1288.27441406 c 0
 683.342773438 1308.08300781 655.918945312 1318 589 1318 c 0
 372 1318 131 1186 131 888 c 0
 131 707 204 645 248 645 c 0
 290 645 320 738 385 738 c 0
 451 738 484 689 484 632 c 0
 484 575 421 518 335 518 c 0
 215 518 50 591 50 888 c 0
 50 1205 337 1402 592 1402 c 0
 660 1402 670 1398 772 1398 c 0
 974 1398 1013 1407 1132 1407 c 0
 1409 1407 1616 1306 1616 1036 c 0
 1616 752 1353 612 1119 612 c 0
 978 612 940 637 923 637 c 0
 913 637 907 632 907 607 c 2
1102 689 m 0
 1268 689 1425 763 1425 973 c 0
 1425 1173 1314 1329 1112 1329 c 0
 947 1329 930 1294 920 1262 c 0
 913 1239 907 1119 907 1044 c 2
 907 968 l 2
 907 916 908 769 910 744 c 0
 913 716 984 689 1102 689 c 0
EndSplineSet
EndChar

StartChar: R.swsh
Encoding: 1114121 -1 121
Width: 1952
VWidth: 1920
Flags: HMW
LayerCount: 2
Fore
SplineSet
1102 756 m 0
 1268 756 1405 823 1405 1033 c 0
 1405 1233 1314 1328 1112 1328 c 0
 947 1328 930 1293 920 1261 c 0
 913 1238 907 1118 907 1043 c 2
 907 968 l 2
 907 916 908 809 910 784 c 0
 913 756 984 756 1102 756 c 0
907 626 m 2
 907 504 l 2
 907 157 908 97 983 97 c 0
 1008 97 1046 114 1075 114 c 0
 1095 114 1112 101 1112 73 c 0
 1112 39 1093 23 1028 5 c 0
 967 -12 899 -15 808 -15 c 0
 722 -15 630 -3 583 8 c 0
 531 20 515 48 515 73 c 0
 515 95 532 108 560 108 c 0
 583 108 610 96 647 96 c 0
 707 96 720 180 720 591 c 2
 720 900 l 2
 720 1134.67773438 715.71875 1242.98144531 688.49609375 1284.20800781 c 4
 675.211914062 1304.32519531 644.873046875 1317 589 1317 c 0
 372 1317 131 1185 131 887 c 0
 131 706 204 644 248 644 c 0
 290 644 320 737 385 737 c 0
 451 737 484 688 484 631 c 0
 484 574 421 517 335 517 c 0
 215 517 50 590 50 887 c 0
 50 1204 337 1401 592 1401 c 4
 660 1401 690 1397 772 1397 c 4
 974 1397 1043 1416 1162 1416 c 0
 1439 1416 1616 1346 1616 1076 c 0
 1616 919 1535 811 1424 744 c 0
 1407 734 1390 727 1390 719 c 0
 1390 712 1398 704 1414 697 c 0
 1475 670 1548 618 1588 516 c 0
 1653 349 1672 104 1798 104 c 0
 1858 104 1847 171 1887 171 c 0
 1914 171 1926 156 1926 125 c 0
 1926 49 1818 -22 1728 -22 c 0
 1638 -22 1595 6 1539 68 c 0
 1451 164 1397 423 1329 562 c 0
 1283 657 1171 662 1119 662 c 0
 978 662 940 655 923 655 c 0
 913 655 907 651 907 626 c 2
EndSplineSet
EndChar

StartChar: T.swsh
Encoding: 1114122 -1 122
Width: 1662
VWidth: 1920
Flags: HMW
LayerCount: 2
Fore
SplineSet
724 1280.98632812 m 0
 637.314453125 1305.09375 562.422851562 1314 428 1314 c 4
 301 1314 131 1234 131 956 c 4
 131 775 233 673 367 673 c 4
 429 673 420 786 495 786 c 4
 561 786 594 747 594 680 c 4
 594 623 511 566 425 566 c 4
 245 566 50 669 50 956 c 4
 50 1313 287 1430 542 1430 c 4
 850.305664062 1430 1308.04882812 1319 1452 1319 c 0
 1536.49609375 1319 1527.40332031 1405 1566 1405 c 0
 1597 1405 1612 1374 1612 1344 c 0
 1612 1278 1566.92773438 1158 1392 1158 c 0
 1231.04882812 1158 1042.703125 1233.48144531 1006 1233.48144531 c 0
 976 1233.48144531 966 1224.63085938 966 1171 c 2
 966 604 l 2
 966 348 970 176 998 120 c 0
 1010 96 1026 86 1064 86 c 0
 1118 86 1145 111 1174 111 c 0
 1198 111 1210 93 1210 70 c 0
 1210 36 1144 9 1098 0 c 0
 1041 -11 959 -15 868 -15 c 0
 782 -15 711 -14 664 -5 c 0
 615 4 520 21 520 74 c 0
 520 91 536 114 564 114 c 0
 587 114 619 86 686 86 c 0
 715 86 744 105 755 131 c 0
 779 189 790 307 790 591 c 2
 790 1198 l 2
 790 1249.87207031 778.662109375 1265.78417969 724 1280.98632812 c 0
EndSplineSet
EndChar

StartChar: Y.swsh
Encoding: 1114123 -1 123
Width: 1722
VWidth: 1920
Flags: HMW
LayerCount: 2
Fore
SplineSet
1116.02108493 548.462646563 m 0
 1116.42973894 308.055290539 1122.94433834 167.111316436 1150 113 c 0
 1162 89 1186 86 1206 86 c 0
 1250 86 1273 105 1302 105 c 0
 1326 105 1338 87 1338 64 c 0
 1338 30 1284 6 1238 -3 c 0
 1181 -14 1109 -15 1018 -15 c 0
 932 -15 859 -14 812 -5 c 0
 763 4 710 22 710 55 c 0
 710 72 726 95 754 95 c 0
 777 95 811 79 848 79 c 0
 867 79 888 89 898 115 c 0
 921 173 920 296 920 541 c 0
 920 1030 738 1304 468 1304 c 0
 281 1304 141 1204 141 966 c 0
 141 785 263 660 387 660 c 0
 449 660 440 786 515 786 c 0
 581 786 614 737 614 680 c 0
 614 603 541 566 425 566 c 0
 235 566 50 679 50 966 c 0
 50 1293 267 1430 522 1430 c 0
 763.697993367 1430 954.8466029 1283.12065829 1049.99999363 1011.75557477 c 0
 1078.97906277 929.111041992 1068.97949219 929.111328125 1103.40722656 1020 c 0
 1190.0703125 1248.79003906 1331.64046908 1423.99999998 1498 1424 c 4
 1585 1424.00000001 1642 1381 1642 1321 c 0
 1642 1258 1595 1233 1554 1233 c 0
 1481 1233 1490 1311 1432 1311 c 0
 1370.76464844 1311 1118.72523514 1090.50246146 1116.02108493 548.462646563 c 0
EndSplineSet
EndChar

StartChar: less
Encoding: 60 60 124
Width: 1025
Flags: HMW
LayerCount: 2
Fore
SplineSet
505 316 m 6
 486 324 l 6
 280 416 176 455 107 486 c 4
 82 497 80 504 80 524 c 6
 80 564 l 6
 80 584 82 591 107 602 c 4
 176 633 279 672 485 764 c 6
 504 772 l 6
 710 864 808 916 877 947 c 4
 889 952 898 956 905 956 c 4
 927 956 951 886 951 875 c 4
 951 864 940 857 921 849 c 4
 852 818 748 779 542 687 c 6
 523 678 l 6
 377 612 285 573 220 544 c 5
 286 515 377 476 524 410 c 6
 543 401 l 6
 749 309 852 271 921 240 c 4
 940 232 951 224 951 213 c 4
 951 202 927 133 905 133 c 4
 898 133 889 136 877 141 c 4
 808 172 711 224 505 316 c 6
EndSplineSet
EndChar

StartChar: greater
Encoding: 62 62 125
Width: 1025
Flags: HMW
LayerCount: 2
Fore
SplineSet
520 316 m 6
 314 224 217 172 148 141 c 4
 136 136 127 133 120 133 c 4
 98 133 74 202 74 213 c 4
 74 224 85 232 104 240 c 4
 173 271 276 309 482 401 c 6
 501 410 l 6
 648 476 739 515 805 544 c 5
 740 573 648 612 502 678 c 6
 483 687 l 6
 277 779 173 818 104 849 c 4
 85 857 74 864 74 875 c 4
 74 886 98 956 120 956 c 4
 127 956 136 952 148 947 c 4
 217 916 315 864 521 772 c 6
 540 764 l 6
 746 672 849 633 918 602 c 4
 943 591 945 584 945 564 c 6
 945 524 l 6
 945 504 943 497 918 486 c 4
 849 455 745 416 539 324 c 6
 520 316 l 6
EndSplineSet
EndChar

StartChar: asciicircum
Encoding: 94 94 126
Width: 983
Flags: HMW
LayerCount: 2
Fore
SplineSet
720 985 m 6
 812 779 864 682 895 613 c 4
 900 601 903 592 903 585 c 4
 903 563 834 539 823 539 c 4
 812 539 804 550 796 569 c 4
 765 638 727 741 635 947 c 6
 626 966 l 6
 560 1113 521 1204 492 1270 c 5
 463 1205 424 1113 358 967 c 6
 349 948 l 6
 257 742 218 638 187 569 c 4
 179 550 172 539 161 539 c 4
 150 539 80 563 80 585 c 4
 80 592 84 601 89 613 c 4
 120 682 172 780 264 986 c 6
 272 1005 l 6
 364 1211 403 1314 434 1383 c 4
 445 1408 452 1410 472 1410 c 6
 512 1410 l 6
 532 1410 539 1408 550 1383 c 4
 581 1314 620 1210 712 1004 c 6
 720 985 l 6
EndSplineSet
EndChar

StartChar: gravecomb
Encoding: 768 768 127
Width: 0
VWidth: 1920
Flags: HMW
AnchorPoint: "top" -59 920 mark 0
LayerCount: 2
Fore
SplineSet
-149 1138 m 4
 -204 1181 -251 1198 -295 1233 c 4
 -318.801757812 1251.93359375 -325 1271 -325 1297 c 4
 -325 1361 -272 1404 -227 1404 c 4
 -200 1404 -174.203125 1369.83789062 -155 1346 c 4
 -126 1310 -113.856445312 1278.04589844 -65 1212 c 4
 -11 1139 22 1107 22 1075 c 4
 22 1056 13 1045 -10 1045 c 4
 -48 1045 -68 1075 -149 1138 c 4
EndSplineSet
EndChar

StartChar: acutecomb
Encoding: 769 769 129
Width: 0
VWidth: 1920
Flags: HMW
AnchorPoint: "top" -299 920 mark 0
LayerCount: 2
Fore
SplineSet
-204 1138 m 0
 -285 1075 -305 1045 -343 1045 c 0
 -366 1045 -375 1056 -375 1075 c 0
 -375 1107 -342 1139 -288 1212 c 0
 -239.143554688 1278.04589844 -227 1310 -198 1346 c 0
 -178.796875 1369.83789062 -153 1404 -126 1404 c 0
 -81 1404 -28 1361 -28 1297 c 0
 -28 1271 -34.1982421875 1251.93359375 -58 1233 c 0
 -102 1198 -149 1181 -204 1138 c 0
EndSplineSet
EndChar

StartChar: uni0302
Encoding: 770 770 130
Width: 0
VWidth: 1920
Flags: HMW
AnchorPoint: "top" -326 1024.73 mark 0
LayerCount: 2
Fore
SplineSet
-419.85546875 1194.90039062 m 4
 -487.127929688 1141.34960938 -520.290039062 1107.34960938 -546.8203125 1107.34960938 c 4
 -568.612304688 1107.34960938 -581.877929688 1116.70019531 -581.877929688 1132.84960938 c 4
 -581.877929688 1147.7421875 -573.940429688 1166.14648438 -555.625 1188.09960938 c 6
 -424.592773438 1345.16601562 l 6
 -391.416015625 1384.93457031 -359.254882812 1404 -327 1404 c 4
 -299.451171875 1404 -270.5234375 1391.90722656 -244.72265625 1361.5 c 6
 -110.575195312 1203.40039062 l 6
 -85.0908203125 1173.36523438 -72.1220703125 1150.93359375 -72.1220703125 1132.84960938 c 4
 -72.1220703125 1116.70019531 -85.3876953125 1107.34960938 -107.1796875 1107.34960938 c 4
 -133.709960938 1107.34960938 -166.872070312 1141.34960938 -234.14453125 1194.90039062 c 4
 -272.333007812 1225.29785156 -298.783203125 1246.65429688 -327 1265.72949219 c 5
 -355.216796875 1246.65429688 -381.666992188 1225.29785156 -419.85546875 1194.90039062 c 4
EndSplineSet
EndChar

StartChar: tildecomb
Encoding: 771 771 131
Width: 0
VWidth: 1920
Flags: HMW
AnchorPoint: "top" -326 1024.73 mark 0
LayerCount: 2
Fore
SplineSet
-162 1297 m 4
 -122 1297 -107.702148438 1318.92773438 -102 1352 c 4
 -92 1410 -87 1432 -56 1432 c 4
 -28 1432 -18 1407 -18 1384 c 4
 -18 1293.28808594 -74.814453125 1164 -192 1164 c 4
 -342 1164 -346 1299 -416 1299 c 4
 -456 1299 -470.297851562 1277.07226562 -476 1244 c 4
 -486 1186 -490 1164 -522 1164 c 4
 -540 1164 -560 1179 -560 1212 c 4
 -560 1302.71191406 -503.185546875 1432 -386 1432 c 4
 -236 1432 -232 1297 -162 1297 c 4
EndSplineSet
EndChar

StartChar: asciitilde
Encoding: 126 126 132
Width: 1002
VWidth: 1920
Flags: HMW
LayerCount: 2
Fore
SplineSet
294 579 m 4
 224 579 188 526 174 464 c 4
 161 405 150 384 118 384 c 4
 100 384 80 409 80 462 c 4
 80 552.711914062 156.814453125 682 304 682 c 4
 494 682 558 507 698 507 c 4
 768 507 804 560 818 622 c 4
 831 681 840 702 872 702 c 4
 900 702 922 667 922 614 c 4
 922 530.943359375 841.909179688 404 688 404 c 4
 498 404 434 579 294 579 c 4
EndSplineSet
EndChar

StartChar: uni0304
Encoding: 772 772 136
Width: 0
VWidth: 1920
Flags: HMW
AnchorPoint: "top" -282 1024.73 mark 0
LayerCount: 2
Fore
SplineSet
-299 1195 m 6
 -395 1195 -444 1191 -520 1191 c 4
 -547 1191 -560 1194 -560 1215 c 6
 -560 1275 l 6
 -560 1296 -547 1299 -520 1299 c 4
 -444 1299 -395 1296 -299 1296 c 6
 -278 1296 l 6
 -162 1296 -132 1299 -56 1299 c 4
 -29 1299 -16 1296 -16 1275 c 6
 -16 1215 l 6
 -16 1194 -29 1191 -56 1191 c 4
 -132 1191 -162 1195 -278 1195 c 6
 -299 1195 l 6
EndSplineSet
EndChar

StartChar: uni0306
Encoding: 774 774 138
Width: 0
VWidth: 1920
Flags: HMW
AnchorPoint: "top" -326 1024.73 mark 0
LayerCount: 2
Fore
SplineSet
-325 1122 m 4
 -520.587890625 1122 -559.877929688 1280.38476562 -559.877929688 1393.15039062 c 4
 -559.877929688 1409.29980469 -552.8203125 1419.65039062 -536.8203125 1419.65039062 c 4
 -521.002929688 1419.65039062 -515.52734375 1403.29003906 -510 1387.37011719 c 4
 -484.100585938 1312.77441406 -435.608398438 1252 -325 1252 c 4
 -214.391601562 1252 -165.899414062 1312.77441406 -140 1387.37011719 c 4
 -134.47265625 1403.29003906 -128.997070312 1419.65039062 -113.1796875 1419.65039062 c 4
 -97.1796875 1419.65039062 -90.1220703125 1409.29980469 -90.1220703125 1393.15039062 c 4
 -90.1220703125 1280.38476562 -129.412109375 1122 -325 1122 c 4
EndSplineSet
EndChar

StartChar: uni0307
Encoding: 775 775 139
Width: 0
VWidth: 1920
Flags: HMW
AnchorPoint: "top" -256 1024.73 mark 0
LayerCount: 2
Fore
SplineSet
-376 1293 m 4
 -376 1360 -323 1413 -256 1413 c 4
 -189 1413 -136 1360 -136 1293 c 4
 -136 1226 -189 1173 -256 1173 c 4
 -323 1173 -376 1226 -376 1293 c 4
EndSplineSet
EndChar

StartChar: uni0308
Encoding: 776 776 140
Width: 0
VWidth: 1920
Flags: HMW
AnchorPoint: "top" -436 1024.73 mark 0
LayerCount: 2
Fore
SplineSet
-766 1293 m 0
 -766 1360 -713 1413 -646 1413 c 0
 -579 1413 -526 1360 -526 1293 c 0
 -526 1226 -579 1173 -646 1173 c 0
 -713 1173 -766 1226 -766 1293 c 0
-346 1293 m 0
 -346 1360 -293 1413 -226 1413 c 0
 -159 1413 -106 1360 -106 1293 c 0
 -106 1226 -159 1173 -226 1173 c 0
 -293 1173 -346 1226 -346 1293 c 0
EndSplineSet
EndChar

StartChar: uni030A
Encoding: 778 778 141
Width: 0
VWidth: 1920
Flags: HMW
AnchorPoint: "top" -256 924.729 mark 0
LayerCount: 2
Fore
SplineSet
-356 1183 m 4
 -356 1116 -323 1073 -256 1073 c 4
 -189 1073 -156 1116 -156 1183 c 4
 -156 1250 -189 1293 -256 1293 c 4
 -323 1293 -356 1250 -356 1183 c 4
-456 1183 m 4
 -456 1280 -373 1353 -256 1353 c 4
 -139 1353 -56 1280 -56 1183 c 4
 -56 1086 -139 1013 -256 1013 c 4
 -373 1013 -456 1086 -456 1183 c 4
EndSplineSet
EndChar

StartChar: uni030B
Encoding: 779 779 142
Width: 0
VWidth: 1920
Flags: HMW
AnchorPoint: "top" -475.5 920 mark 0
LayerCount: 2
Fore
SplineSet
-527.5 1138 m 0
 -592.299804688 1075 -608.299804688 1045 -638.700195312 1045 c 0
 -657.099609375 1045 -664.299804688 1056 -664.299804688 1075 c 0
 -664.299804688 1107 -637.900390625 1139 -594.700195312 1212 c 0
 -555.615234375 1278.04589844 -545.900390625 1310 -522.700195312 1346 c 0
 -507.337890625 1369.83789062 -486.700195312 1404 -465.099609375 1404 c 0
 -429.099609375 1404 -386.700195312 1361 -386.700195312 1297 c 0
 -386.700195312 1271 -391.658203125 1251.93359375 -410.700195312 1233 c 0
 -445.900390625 1198 -483.5 1181 -527.5 1138 c 0
-239.5 1138 m 0
 -304.299804688 1075 -320.299804688 1045 -350.700195312 1045 c 0
 -369.099609375 1045 -376.299804688 1056 -376.299804688 1075 c 0
 -376.299804688 1107 -349.900390625 1139 -306.700195312 1212 c 0
 -267.615234375 1278.04589844 -257.900390625 1310 -234.700195312 1346 c 0
 -219.337890625 1369.83789062 -198.700195312 1404 -177.099609375 1404 c 0
 -141.099609375 1404 -98.7001953125 1361 -98.7001953125 1297 c 0
 -98.7001953125 1271 -103.658203125 1251.93359375 -122.700195312 1233 c 0
 -157.900390625 1198 -195.5 1181 -239.5 1138 c 0
EndSplineSet
EndChar

StartChar: uni030F
Encoding: 783 783 143
Width: 0
VWidth: 1920
Flags: HMW
AnchorPoint: "top" -287.5 920 mark 0
LayerCount: 2
Fore
SplineSet
-235.5 1138 m 0
 -279.5 1181 -317.099609375 1198 -352.299804688 1233 c 0
 -371.341796875 1251.93359375 -376.299804688 1271 -376.299804688 1297 c 0
 -376.299804688 1361 -333.900390625 1404 -297.900390625 1404 c 0
 -276.299804688 1404 -255.662109375 1369.83789062 -240.299804688 1346 c 0
 -217.099609375 1310 -207.384765625 1278.04589844 -168.299804688 1212 c 0
 -125.099609375 1139 -98.7001953125 1107 -98.7001953125 1075 c 0
 -98.7001953125 1056 -105.900390625 1045 -124.299804688 1045 c 0
 -154.700195312 1045 -170.700195312 1075 -235.5 1138 c 0
-523.5 1138 m 0
 -567.5 1181 -605.099609375 1198 -640.299804688 1233 c 0
 -659.341796875 1251.93359375 -664.299804688 1271 -664.299804688 1297 c 0
 -664.299804688 1361 -621.900390625 1404 -585.900390625 1404 c 0
 -564.299804688 1404 -543.662109375 1369.83789062 -528.299804688 1346 c 0
 -505.099609375 1310 -495.384765625 1278.04589844 -456.299804688 1212 c 0
 -413.099609375 1139 -386.700195312 1107 -386.700195312 1075 c 0
 -386.700195312 1056 -393.900390625 1045 -412.299804688 1045 c 0
 -442.700195312 1045 -458.700195312 1075 -523.5 1138 c 0
EndSplineSet
EndChar

StartChar: uni030C
Encoding: 780 780 144
Width: 0
VWidth: 1920
Flags: HMW
AnchorPoint: "top" -326 1024.73 mark 0
LayerCount: 2
Fore
SplineSet
-234.14453125 1316.44921875 m 4
 -166.872070312 1370 -133.709960938 1404 -107.1796875 1404 c 4
 -85.3876953125 1404 -72.1220703125 1394.64941406 -72.1220703125 1378.5 c 4
 -72.1220703125 1363.60742188 -80.0595703125 1345.203125 -98.375 1323.25 c 6
 -229.407226562 1166.18359375 l 6
 -262.583984375 1126.41503906 -294.745117188 1107.34960938 -327 1107.34960938 c 4
 -354.548828125 1107.34960938 -383.4765625 1119.44238281 -409.27734375 1149.84960938 c 6
 -543.424804688 1307.94921875 l 6
 -568.909179688 1337.984375 -581.877929688 1360.41601562 -581.877929688 1378.5 c 4
 -581.877929688 1394.64941406 -568.612304688 1404 -546.8203125 1404 c 4
 -520.290039062 1404 -487.127929688 1370 -419.85546875 1316.44921875 c 4
 -381.666992188 1286.05175781 -355.216796875 1264.6953125 -327 1245.62011719 c 5
 -298.783203125 1264.6953125 -272.333007812 1286.05175781 -234.14453125 1316.44921875 c 4
EndSplineSet
EndChar

StartChar: uni0311
Encoding: 785 785 145
Width: 0
VWidth: 1920
Flags: HMW
AnchorPoint: "top" -326 1024.73 mark 0
LayerCount: 2
Fore
SplineSet
-325 1419.65039062 m 4
 -129.412109375 1419.65039062 -90.1220703125 1261.265625 -90.1220703125 1148.5 c 4
 -90.1220703125 1132.35058594 -97.1796875 1122 -113.1796875 1122 c 4
 -128.997070312 1122 -134.47265625 1138.36035156 -140 1154.28027344 c 4
 -165.899414062 1228.87597656 -214.391601562 1289.65039062 -325 1289.65039062 c 4
 -435.608398438 1289.65039062 -484.100585938 1228.87597656 -510 1154.28027344 c 4
 -515.52734375 1138.36035156 -521.002929688 1122 -536.8203125 1122 c 4
 -552.8203125 1122 -559.877929688 1132.35058594 -559.877929688 1148.5 c 4
 -559.877929688 1261.265625 -520.587890625 1419.65039062 -325 1419.65039062 c 4
EndSplineSet
EndChar

StartChar: uni0312
Encoding: 786 786 146
Width: 0
Flags: HMW
AnchorPoint: "top" -604 920 mark 0
LayerCount: 2
Fore
SplineSet
-587 1392 m 4
 -587 1372 -606 1360 -619 1345 c 4
 -640 1322 -655 1289 -655 1241 c 4
 -655 1217 -648 1213 -639 1213 c 4
 -632 1213 -626 1216 -604 1216 c 4
 -550 1216 -494 1177 -494 1115 c 4
 -494 1053 -536 1011 -598 1011 c 4
 -684 1011 -724 1076 -724 1190 c 4
 -724 1324 -654 1422 -611 1422 c 4
 -600 1422 -587 1411 -587 1392 c 4
EndSplineSet
EndChar

StartChar: dotbelowcomb
Encoding: 803 803 147
Width: 0
VWidth: 1920
Flags: HMW
AnchorPoint: "bottom" -255 0 mark 0
LayerCount: 2
Fore
SplineSet
-376 -247 m 0
 -376 -180 -323 -127 -256 -127 c 0
 -189 -127 -136 -180 -136 -247 c 0
 -136 -314 -189 -367 -256 -367 c 0
 -323 -367 -376 -314 -376 -247 c 0
EndSplineSet
EndChar

StartChar: uni0326
Encoding: 806 806 148
Width: 0
Flags: HMW
AnchorPoint: "bottom" -255 0 mark 0
LayerCount: 2
Fore
SplineSet
-269 -521 m 4
 -269 -501 -250 -489 -237 -474 c 4
 -216 -451 -201 -418 -201 -370 c 4
 -201 -346 -208 -342 -217 -342 c 4
 -224 -342 -230 -345 -252 -345 c 4
 -306 -345 -362 -306 -362 -244 c 4
 -362 -182 -320 -140 -258 -140 c 4
 -172 -140 -132 -205 -132 -319 c 4
 -132 -453 -202 -551 -245 -551 c 4
 -256 -551 -269 -540 -269 -521 c 4
EndSplineSet
EndChar

StartChar: uni0327
Encoding: 807 807 149
Width: 0
Flags: HMW
AnchorPoint: "bottom" -255 0 mark 0
LayerCount: 2
Fore
SplineSet
-272 -440 m 0
 -404 -440 -472 -372 -472 -326 c 0
 -472 -304 -457.036132812 -291 -443 -291 c 0
 -428 -291 -414 -300 -404 -320 c 0
 -385 -360 -354 -374 -312 -374 c 0
 -240 -374 -212 -322 -212 -264 c 16
 -212 -206 -248 -178 -290 -178 c 16
 -307 -178 -323 -180 -336 -180 c 0
 -353 -180 -370 -176 -370 -154 c 0
 -370 -135 -360 -129 -344 -100 c 2
 -290 10 l 1
 -220 10 l 1
 -303 -136 l 1
 -286 -130 -263 -124 -240 -124 c 0
 -172 -124 -74 -170 -74 -268 c 16
 -74 -366 -140 -440 -272 -440 c 0
EndSplineSet
EndChar

StartChar: uni0328
Encoding: 808 808 150
Width: 0
Flags: HMW
AnchorPoint: "ogonek" -181 0 mark 0
LayerCount: 2
Fore
SplineSet
-484 -262 m 4
 -484 -81 -254 0 -172 38 c 5
 -144 0 l 21
 -178 -19 -320 -89 -320 -234 c 4
 -320 -308 -312 -360 -236 -360 c 12
 -160 -360 -146 -286 -112 -286 c 4
 -98 -286 -90 -293 -90 -310 c 4
 -90 -360 -176 -442 -296 -442 c 4
 -416 -442 -484 -378 -484 -262 c 4
EndSplineSet
EndChar

StartChar: minute
Encoding: 8242 8242 166
Width: 569
VWidth: 1920
Flags: HMW
LayerCount: 2
Fore
SplineSet
159 799 m 0
 136 799 133 814 133 844 c 0
 133 874.784179688 143.602539062 915.873046875 153.543945312 980 c 0
 161.912109375 1033.97851562 195 1271.82910156 205 1342 c 0
 214.170446611 1406.34984778 267 1453 334 1453 c 0
 389 1453 414 1415 414 1380 c 0
 414 1281.19433594 295.951171875 1060.36914062 255.293945312 947 c 0
 211.856445312 825.87890625 184.833984375 799 159 799 c 0
EndSplineSet
EndChar

StartChar: Eth
Encoding: 208 208 186
Width: 1592
VWidth: 1920
Flags: HMW
LayerCount: 2
Fore
SplineSet
351 685 m 6
 255 685 166 681 90 681 c 4
 63 681 50 684 50 705 c 6
 50 765 l 6
 50 786 63 789 90 789 c 4
 166 789 255 786 351 786 c 6
 372 786 l 6
 488 786 558 789 634 789 c 4
 661 789 674 786 674 765 c 6
 674 705 l 6
 674 684 661 681 634 681 c 4
 558 681 488 685 372 685 c 6
 351 685 l 6
EndSplineSet
Refer: 4 68 N 1 0 0 1 0 0 2
EndChar

StartChar: dotlessi
Encoding: 305 305 187
Width: 569
VWidth: 1920
Flags: HMW
AnchorPoint: "top" 301 880 basechar 0
LayerCount: 2
Fore
SplineSet
228 401 m 2
 228 469 l 2
 228 706 225 721 180 721 c 0
 145 721 130 707 110 707 c 0
 90 707 76 721 76 741 c 0
 76 766 96 774 142 794 c 0
 200 819 321 844 352 844 c 0
 373 844 376 831 376 804 c 0
 376 728 376 788 376 462 c 2
 376 414 l 2
 376 298 380 143 397 97 c 0
 406 72 420 67 440 67 c 0
 464 67 473 74 492 74 c 0
 506 74 522 64 522 48 c 0
 522 12 487 -15 288 -15 c 0
 108 -15 68 1 68 38 c 0
 68 55 75 70 94 70 c 0
 112 70 129 62 146 62 c 0
 165 62 191 75 202 101 c 0
 226 159 228 307 228 401 c 2
EndSplineSet
EndChar

StartChar: kgreenlandic
Encoding: 312 312 188
Width: 1026
VWidth: 1920
Flags: HMW
LayerCount: 2
Fore
SplineSet
242 421 m 2
 242 451 l 2
 242 668 237 738 192 738 c 0
 157 738 142 724 122 724 c 0
 102 724 88 738 88 758 c 0
 88 783 108 791 154 811 c 0
 212 836 343 861 374 861 c 0
 395 861 398 848 398 821 c 0
 398 745 392 690 392 604 c 6
 392 576 l 2
 392 554 392 537 406 537 c 0
 420 537 467 574 498 601 c 2
 578 671 l 2
 644 730 656 738 656 760 c 0
 656 769 648 769 642 769 c 0
 638 769 633 768 626 768 c 0
 606 768 592 775 592 795 c 0
 592 827 618 845 748 845 c 0
 865 845 922 830 922 791 c 0
 922 769 900 760 878 760 c 0
 863 760 847 766 836 766 c 0
 799 766 766 747 672 664 c 2
 562 567 l 2
 538 542 531 541 564 509 c 1
 756 252 l 2
 819 168 860 120 888 93 c 0
 902 80 915 68 934 68 c 0
 984 68 1004 65 1004 31 c 0
 1004 7 990 0 940 0 c 2
 820 0 l 2
 777 0 761 1 748 12 c 0
 732 26 692 91 604 200 c 2
 440 403 l 2
 420 427 415 435 404 435 c 0
 391 435 386 424 386 389 c 0
 386 208 395 133 408 97 c 0
 417 72 432 67 452 67 c 0
 476 67 485 74 504 74 c 0
 518 74 534 64 534 48 c 0
 534 12 499 -15 300 -15 c 0
 120 -15 80 1 80 38 c 0
 80 55 87 70 106 70 c 0
 124 70 141 62 158 62 c 0
 177 62 203 75 214 101 c 0
 238 159 242 247 242 421 c 2
EndSplineSet
EndChar

StartChar: multiply
Encoding: 215 215 189
Width: 1222
Flags: HMW
LayerCount: 2
Fore
SplineSet
615 581 m 2
 739 705 815 791 869 845 c 0
 888 864 899 871 914 856 c 2
 956 814 l 2
 971 799 964 788 945 769 c 0
 891 715 805 639 681 515 c 2
 627 461 l 2
 503 337 405 229 351 175 c 0
 332 156 321 149 306 164 c 2
 264 206 l 2
 249 221 256 232 275 251 c 0
 329 305 437 403 561 527 c 2
 615 581 l 2
681 505 m 2
 805 381 891 305 945 251 c 0
 964 232 971 221 956 206 c 2
 914 164 l 2
 899 149 888 156 869 175 c 0
 815 229 739 315 615 439 c 2
 561 493 l 2
 437 617 329 715 275 769 c 0
 256 788 249 799 264 814 c 2
 306 856 l 2
 321 871 332 864 351 845 c 0
 405 791 503 683 627 559 c 2
 681 505 l 2
EndSplineSet
EndChar

StartChar: Dcroat
Encoding: 272 272 190
Width: 1592
VWidth: 1920
Flags: HMW
LayerCount: 2
Fore
SplineSet
351 685 m 6
 255 685 166 681 90 681 c 4
 63 681 50 684 50 705 c 6
 50 765 l 6
 50 786 63 789 90 789 c 4
 166 789 255 786 351 786 c 6
 372 786 l 6
 488 786 558 789 634 789 c 4
 661 789 674 786 674 765 c 6
 674 705 l 6
 674 684 661 681 634 681 c 4
 558 681 488 685 372 685 c 6
 351 685 l 6
EndSplineSet
Refer: 4 68 N 1 0 0 1 0 0 2
EndChar

StartChar: percent
Encoding: 37 37 197
Width: 1580
Flags: HMW
LayerCount: 2
Fore
SplineSet
1465 371 m 256
 1465 151 1294 -35 1119 -35 c 256
 984 -35 862 57 862 292 c 256
 862 514 1037 685 1201 685 c 256
 1342 685 1465 600 1465 371 c 256
1118 37 m 256
 1206 37 1320 204 1320 418 c 260
 1320 539 1283 615 1208 615 c 256
 1108 615 1007 447 1007 235 c 256
 1007 105 1038 37 1118 37 c 256
718 968 m 256
 718 748 547 563 372 563 c 256
 237 563 115 654 115 889 c 256
 115 1111 290 1283 454 1283 c 256
 595 1283 718 1197 718 968 c 256
372 634 m 256
 460 634 573 801 573 1015 c 256
 573 1136 536 1212 461 1212 c 256
 361 1212 260 1045 260 833 c 256
 260 703 292 634 372 634 c 256
790 566 m 2
 622 326 500 143 409 13 c 0
 395 -7 387 -15 372 -4 c 2
 327 26 l 2
 312 37 316 48 330 68 c 0
 421 198 553 375 721 615 c 2
 760 671 l 2
 928 911 1065 1117 1156 1247 c 0
 1170 1267 1179 1275 1194 1264 c 2
 1238 1234 l 2
 1253 1223 1250 1212 1236 1192 c 0
 1145 1062 998 863 830 623 c 2
 790 566 l 2
EndSplineSet
EndChar

StartChar: cent
Encoding: 162 162 201
Width: 912
VWidth: 1920
Flags: HMW
LayerCount: 2
Fore
SplineSet
518 6 m 6
 518 -36 540 -67 540 -79 c 4
 540 -95 531 -105 507 -115 c 4
 474 -129 442 -150 421 -150 c 4
 407 -150 391 -142 391 -110 c 4
 391 -88 416 -12 416 132 c 6
 416 860 l 2
 416 902 394 933 394 945 c 0
 394 961 403 971 427 981 c 0
 460 995 492 1016 513 1016 c 0
 527 1016 543 1008 543 976 c 0
 543 954 518 878 518 734 c 2
 518 6 l 6
EndSplineSet
Refer: 37 99 N 1 0 0 1 0 0 2
EndChar

StartChar: exclamdown
Encoding: 161 161 202
Width: 569
VWidth: 1920
Flags: MW
LayerCount: 2
Fore
SplineSet
414 -483 m 4
 414 -590 361 -643 284 -643 c 4
 207 -643 154 -590 154 -483 c 4
 154 -371.91015625 228.83203125 264.98046875 234.2109375 302 c 4
 241.763671875 353.983398438 238.08984375 397 284 397 c 4
 329.91015625 397 326.236328125 353.983398438 333.7890625 302 c 4
 339.16796875 264.98046875 414 -371.91015625 414 -483 c 4
424 707 m 4
 424 630 361 567 284 567 c 4
 207 567 144 630 144 707 c 4
 144 784 207 847 284 847 c 4
 361 847 424 784 424 707 c 4
EndSplineSet
EndChar

StartChar: AE
Encoding: 198 198 203
Width: 1940
VWidth: 1920
Flags: MW
LayerCount: 2
Fore
SplineSet
1067 -1 m 0
 981 -1 949 -3 864 -3 c 0
 793 -3 758 17 758 51 c 0
 758 80 775 89 801 89 c 0
 821 89 844 83 873 83 c 0
 926 83 927 135 939 378 c 0
 942.542704199 450.625436082 944.9087753 506.778008795 946.445585222 564 c 0
 946.898210264 580.85316175 946.898210264 580.85316175 928 581.792721223 c 0
 915.062334026 582.435941213 897.331563728 583 874 583 c 0
 805 583 678 574 630 568 c 0
 594 563 571.728877348 541.930757967 550 506 c 2
 397 253 l 2
 351.575007436 177.885469812 342 132 342 111 c 0
 342 75 370 63 404 63 c 0
 428 63 457 75 476 75 c 0
 498 75 508 57 508 34 c 0
 508 -10 433 -15 300 -15 c 0
 109 -15 7 1 7 49 c 0
 7 72 21 89 44 89 c 0
 67 89 90 78 122 78 c 0
 186 78 213.415797801 145.226898521 380 402 c 2
 694 886 l 2
 801.504697576 1051.70787779 932 1208 932 1276 c 1
 927 1306 906 1320 878 1320 c 0
 855 1320 827 1312 808 1312 c 0
 784 1312 767 1327 767 1355 c 0
 767 1389 795 1405 862 1405 c 0
 930 1405 1000 1401 1102 1401 c 0
 1224 1401 1398 1396 1517 1396 c 0
 1630 1396 1671 1426 1708 1426 c 0
 1741 1426 1805 1298 1805 1168 c 0
 1805 1133 1776 1095 1758 1095 c 0
 1738 1095 1727 1134 1705 1183 c 0
 1677 1246 1638 1296 1555 1309 c 0
 1493 1319 1374 1319 1312 1319 c 0
 1177 1319 1155 1313 1149 1244 c 0
 1143 1180 1133 1021 1133 838 c 0
 1133 791 1145 773 1172 763 c 0
 1201 753 1247 750 1312 750 c 0
 1446 750 1505 794 1505 858 c 0
 1505 874 1503 885 1503 901 c 0
 1503 914 1510 926 1528 926 c 0
 1585 926 1595 840 1595 716 c 0
 1595 570 1575 495 1531 495 c 0
 1512 495 1503 518 1503 556 c 0
 1503 602 1484 672 1352 672 c 0
 1157 672 1150 668 1144 613 c 0
 1139 564 1137 521 1137 446 c 0
 1137 315 1143 235 1150 135 c 0
 1152 113 1155 109 1181 103 c 0
 1228 91 1336 80 1432 80 c 0
 1517 80 1574 81 1627 95 c 0
 1684 110 1730 150 1763 203 c 0
 1802 266 1808 314 1829 314 c 0
 1850 314 1882 277 1882 239 c 0
 1882 166 1774 -27 1728 -27 c 0
 1694 -27 1685 -3 1637 -3 c 0
 1520 -3 1409 -3 1324 -3 c 0
 1237 -3 1151 -1 1067 -1 c 0
948.629156321 699 m 0
 948.892906516 734.683446393 949 774.182465415 949 820 c 0
 949 911.519905754 947.495265154 983.439844535 946.479492188 1048.61035156 c 0
 946.319335938 1058.88574219 942.741210938 1065 935 1065 c 0
 907 1065 888.39698681 1020.65326913 857 974 c 2
 715 763 l 2
 698.47009812 738.437962699 673 710 673 692 c 0
 673 671 685 671 701 671 c 0
 716 671 796 684 878 684 c 0
 901.288069279 684 919.741123537 683.511475553 934.000000643 682.919956625 c 0
 948.505854608 682.318192045 948.505854608 682.318192045 948.629156321 699 c 0
EndSplineSet
EndChar

StartChar: sterling
Encoding: 163 163 208
Width: 1596
Flags: HMW
LayerCount: 2
Fore
SplineSet
344 598 m 0
 344 622 355 635 383 665 c 0
 397 680 410 688 431 688 c 0
 494 688 1055 673 1108 673 c 0
 1200 673 1219 689 1274 689 c 0
 1293 689 1306 672 1306 653 c 0
 1306 629 1298 618 1281 587 c 0
 1272 570 1258 561 1239 561 c 0
 1211 561 1162 580 1099 580 c 2
 554 580 l 2
 474 580 388 570 373 570 c 0
 359 570 344 580 344 598 c 0
1410 1510 m 0
 1510 1510 1562 1465 1562 1401 c 4
 1562 1344 1523 1301 1463 1301 c 0
 1393 1301 1354 1393 1290 1393 c 0
 1256 1393 1185.12109375 1353.62402344 1132 1176 c 0
 1004 748 882.418945312 535.578125 763 405 c 0
 664.216796875 296.986328125 611 257 568 232 c 0
 530.755859375 210.346679688 519.068359375 180.024414062 647 171 c 0
 888 154 1158 57 1320 57 c 0
 1366.13574219 57 1398 74 1398 108 c 0
 1398 142 1362 157 1362 217 c 0
 1362 271.125 1393.85742188 300 1450 300 c 0
 1507 300 1540 258 1540 194 c 0
 1540 80 1339 -84 1079 -84 c 0
 809 -84 568 27 465 67 c 0
 431.649414062 79.951171875 382 93 346 72 c 0
 280.80859375 33.9716796875 184 -13 96 -13 c 0
 68 -13 34 7 34 36 c 0
 34 114 221 200 402 208 c 0
 445.247070312 209.911132812 457 228 501 275 c 0
 560.955078125 339.041992188 577 368 634 452 c 0
 698.237304688 546.666015625 827.588867188 874.0078125 904 1036 c 0
 1004 1248 1220 1510 1410 1510 c 0
EndSplineSet
EndChar

StartChar: yen
Encoding: 165 165 209
Width: 1542
VWidth: 1920
Flags: MW
LayerCount: 2
Fore
SplineSet
781 475 m 6
 585 475 466 471 390 471 c 4
 363 471 350 474 350 495 c 6
 350 555 l 6
 350 576 363 579 390 579 c 4
 466 579 585 576 781 576 c 6
 802 576 l 6
 1028 576 1118 579 1194 579 c 4
 1221 579 1234 576 1234 555 c 6
 1234 495 l 6
 1234 474 1221 471 1194 471 c 4
 1118 471 1028 475 802 475 c 6
 781 475 l 6
781 685 m 2
 585 685 466 681 390 681 c 0
 363 681 350 684 350 705 c 2
 350 765 l 2
 350 786 363 789 390 789 c 0
 466 789 585 786 781 786 c 2
 802 786 l 2
 1028 786 1118 789 1194 789 c 0
 1221 789 1234 786 1234 765 c 2
 1234 705 l 2
 1234 684 1221 681 1194 681 c 0
 1118 681 1028 685 802 685 c 2
 781 685 l 2
EndSplineSet
Refer: 25 89 N 1 0 0 1 0 0 2
EndChar

StartChar: brokenbar
Encoding: 166 166 210
Width: 428
VWidth: 1920
Flags: MW
LayerCount: 2
Fore
SplineSet
261 -14 m 2
 261 -90 268 -244 268 -320 c 0
 268 -347 265 -360 244 -360 c 2
 184 -360 l 2
 163 -360 160 -347 160 -320 c 0
 160 -244 167 -90 167 -14 c 2
 167 13 l 2
 167 89 160 244 160 320 c 4
 160 347 163 360 184 360 c 6
 244 360 l 6
 265 360 268 347 268 320 c 4
 268 244 261 89 261 13 c 2
 261 -14 l 2
261 1026 m 2
 261 950 268 796 268 720 c 0
 268 693 265 680 244 680 c 2
 184 680 l 2
 163 680 160 693 160 720 c 0
 160 796 167 950 167 1026 c 2
 167 1053 l 2
 167 1129 160 1284 160 1360 c 0
 160 1387 163 1400 184 1400 c 2
 244 1400 l 2
 265 1400 268 1387 268 1360 c 0
 268 1284 261 1129 261 1053 c 2
 261 1026 l 2
EndSplineSet
EndChar

StartChar: plusminus
Encoding: 177 177 211
Width: 1222
Flags: MW
LayerCount: 2
Fore
SplineSet
576 8 m 6
 330 8 246 1 170 1 c 4
 143 1 130 4 130 25 c 6
 130 85 l 6
 130 106 143 109 170 109 c 4
 246 109 330 102 576 102 c 6
 597 102 l 6
 843 102 958 109 1034 109 c 4
 1061 109 1074 106 1074 85 c 6
 1074 25 l 6
 1074 4 1061 1 1034 1 c 4
 958 1 843 8 597 8 c 6
 576 8 l 6
657 726 m 2
 657 550 664 436 664 360 c 0
 664 333 661 320 640 320 c 2
 580 320 l 2
 559 320 556 333 556 360 c 0
 556 436 563 550 563 726 c 2
 563 803 l 2
 563 979 556 1124 556 1200 c 0
 556 1227 559 1240 580 1240 c 2
 640 1240 l 2
 661 1240 664 1227 664 1200 c 0
 664 1124 657 979 657 803 c 2
 657 726 l 2
130 748 m 0
 130 772 141 785 169 815 c 0
 183 830 196 838 217 838 c 0
 280 838 841 823 894 823 c 0
 986 823 1005 839 1060 839 c 0
 1079 839 1092 822 1092 803 c 0
 1092 779 1084 768 1067 737 c 0
 1058 720 1044 711 1025 711 c 0
 997 711 948 730 885 730 c 2
 340 730 l 2
 260 730 174 720 159 720 c 0
 145 720 130 730 130 748 c 0
EndSplineSet
EndChar

StartChar: copyright
Encoding: 169 169 212
Width: 1572
Flags: MW
LayerCount: 2
Fore
SplineSet
531.200195312 700 m 0
 531.200195312 505.5 644.5 389.5 786 389.5 c 4
 913.318359375 389.5 988.203125 471.828125 1028.66601562 568.43359375 c 1
 1145.14355469 517.842773438 l 1
 1103.78027344 379.952148438 983.249023438 259 796 259 c 4
 563 259 366.400390625 431 366.400390625 700 c 0
 366.400390625 969 563 1141 796 1141 c 4
 983.416015625 1141 1114.06152344 1009.86523438 1155.35839844 871.743164062 c 1
 1028.8828125 831.153320312 l 1
 988.471679688 918.01953125 913.475585938 1010.5 786 1010.5 c 4
 644.5 1010.5 531.200195312 894.5 531.200195312 700 c 0
141.599609375 700 m 0
 141.599609375 326.5 421.5 28.5 786 28.5 c 0
 1150.5 28.5 1430.40039062 326.5 1430.40039062 700 c 0
 1430.40039062 1073.5 1150.5 1371.5 786 1371.5 c 0
 421.5 1371.5 141.599609375 1073.5 141.599609375 700 c 0
70 700 m 0
 70 1115 381 1435 786 1435 c 0
 1191 1435 1502 1115 1502 700 c 0
 1502 285 1191 -35 786 -35 c 0
 381 -35 70 285 70 700 c 0
EndSplineSet
EndChar

StartChar: registered
Encoding: 174 174 213
Width: 1572
Flags: MW
LayerCount: 2
Fore
SplineSet
70 700 m 0
 70 1115 381 1435 786 1435 c 0
 1191 1435 1502 1115 1502 700 c 0
 1502 285 1191 -35 786 -35 c 0
 381 -35 70 285 70 700 c 0
141.599609375 700 m 0
 141.599609375 326.5 421.5 28.5 786 28.5 c 0
 1150.5 28.5 1430.40039062 326.5 1430.40039062 700 c 0
 1430.40039062 1073.5 1150.5 1371.5 786 1371.5 c 0
 421.5 1371.5 141.599609375 1073.5 141.599609375 700 c 0
502 284 m 1
 502 1116 l 1
 845.758789062 1116 l 2
 1008.75878906 1116 1105.35839844 1024 1105.35839844 865 c 0
 1105.35839844 728.930664062 1040.03222656 668.11328125 948.657226562 635.528320312 c 1
 1158 284 l 1
 997 284 l 1
 816.188476562 608 l 1
 636 608 l 1
 636 284 l 1
 502 284 l 1
960.55859375 855 m 0
 960.55859375 949.5 917.258789062 995.5 815.758789062 995.5 c 2
 636 995.5 l 1
 636 718.5 l 1
 815.758789062 718.5 l 2
 917.258789062 718.5 960.55859375 760.5 960.55859375 855 c 0
EndSplineSet
EndChar

StartChar: uni00AD
Encoding: 173 173 214
Width: 569
Flags: MW
LayerCount: 2
Fore
SplineSet
64 446 m 4
 64 470 90 523 118 553 c 4
 132 568 145 576 166 576 c 4
 229 576 255 561 308 561 c 4
 400 561 419 577 474 577 c 4
 493 577 506 560 506 541 c 4
 506 517 493 478 476 447 c 4
 467 430 453 421 434 421 c 4
 384 421 312 434 176 434 c 4
 152 434 108 418 93 418 c 4
 79 418 64 428 64 446 c 4
EndSplineSet
EndChar

StartChar: logicalnot
Encoding: 172 172 215
Width: 1164
VWidth: 2048
Flags: MW
LayerCount: 2
Fore
SplineSet
556 568 m 2
 280 568 246 561 170 561 c 0
 143 561 130 564 130 585 c 2
 130 645 l 2
 130 666 143 669 170 669 c 0
 246 669 280 662 556 662 c 2
 577 662 l 2
 846 662 914 669 988 669 c 0
 1031 669 1034 658 1034 630 c 0
 1034 554 1027 485 1027 409 c 0
 1027 317 1034 281 1034 200 c 0
 1034 173 1031 160 1010 160 c 2
 950 160 l 2
 929 160 926 173 926 200 c 0
 926 276 933 334 933 410 c 0
 933 474 930 516 928 562 c 1
 865 564 775 568 577 568 c 2
 556 568 l 2
EndSplineSet
EndChar

StartChar: degree
Encoding: 176 176 217
Width: 700
VWidth: 1920
Flags: MW
LayerCount: 2
Fore
SplineSet
152 1115 m 4
 152 992.599609375 236.599609375 908 350 908 c 4
 463.400390625 908 548 992.599609375 548 1115 c 4
 548 1237.40039062 463.400390625 1322 350 1322 c 4
 236.599609375 1322 152 1237.40039062 152 1115 c 4
50 1115 m 4
 50 1285 180 1415 350 1415 c 4
 520 1415 650 1285 650 1115 c 4
 650 945 520 815 350 815 c 4
 180 815 50 945 50 1115 c 4
EndSplineSet
EndChar

StartChar: questiondown
Encoding: 191 191 218
Width: 797
VWidth: 1920
Flags: MW
LayerCount: 2
Fore
SplineSet
403 410 m 4
 449 410 475 338 475 244 c 4
 475 70 285 -117 285 -344 c 4
 285 -461 383 -520 457 -520 c 4
 511 -520 541 -498 541 -483 c 4
 541 -458 515 -450 515 -400 c 12
 515 -350 542 -285 611 -285 c 4
 670 -285 711 -341 711 -391 c 4
 711 -501 555 -626 347 -626 c 4
 189 -626 101 -513 101 -372 c 4
 101 -161 389 78 389 207 c 4
 389 296 355 328 355 360 c 4
 355 392 377 410 403 410 c 4
529 725 m 4
 529 658 482 605 409 605 c 4
 337 605 289 658 289 725 c 4
 289 792 337 845 409 845 c 4
 482 845 529 792 529 725 c 4
EndSplineSet
EndChar

StartChar: currency
Encoding: 164 164 220
Width: 1208
VWidth: 1920
Flags: MW
LayerCount: 2
Fore
SplineSet
269 695 m 0
 269 488 413 345 604 345 c 0
 795 345 938 488 938 695 c 0
 938 902 795 1045 604 1045 c 0
 413 1045 269 902 269 695 c 0
316 1060 m 1
 394 1121 494 1156 604 1156 c 0
 714 1156 813 1120 891 1059 c 1
 965 1136 1030 1202 1053 1225 c 0
 1072 1244 1083 1251 1098 1236 c 2
 1140 1194 l 2
 1155 1179 1148 1168 1129 1149 c 0
 1106 1126 1040 1062 964 988 c 1
 1028 909 1065 808 1065 695 c 0
 1065 585 1029 486 968 408 c 1
 1042 336 1106 274 1129 251 c 0
 1148 232 1155 221 1140 206 c 2
 1098 164 l 2
 1083 149 1072 156 1053 175 c 0
 1030 198 969 261 897 335 c 1
 818 272 717 234 604 234 c 0
 491 234 390 272 311 335 c 1
 238 260 177 197 155 175 c 0
 136 156 125 149 110 164 c 2
 68 206 l 2
 53 221 60 232 79 251 c 0
 101 273 164 335 239 408 c 1
 178 486 143 585 143 695 c 0
 143 808 181 909 244 988 c 1
 167 1063 102 1126 79 1149 c 0
 60 1168 53 1179 68 1194 c 2
 110 1236 l 2
 125 1251 136 1244 155 1225 c 0
 178 1202 241 1137 316 1060 c 1
EndSplineSet
EndChar

StartChar: section
Encoding: 167 167 221
Width: 797
Flags: MW
LayerCount: 2
Fore
SplineSet
128 1212 m 0
 128 1358 236 1435 410 1435 c 0
 584 1435 678 1319 678 1227 c 0
 678 1155 646 1125 594 1125 c 0
 542 1125 513 1172 513 1232 c 0
 513 1312 495 1370 389 1370 c 0
 293 1370 248 1322 248 1250 c 0
 248 1162.50878906 310.44140625 1101.421875 468.705078125 1008 c 0
 634.716796875 910.004882812 728 839.733398438 728 692 c 0
 728 550 636 484 556 460 c 0
 522.077148438 449.823242188 522.077148438 449.823242188 554.422851562 421 c 0
 624.98828125 358.120117188 668 287.211914062 668 188 c 0
 668 42 560 -35 386 -35 c 0
 212 -35 118 81 118 173 c 0
 118 245 150 275 202 275 c 0
 254 275 283 228 283 168 c 0
 283 88 301 30 407 30 c 0
 503 30 548 78 548 150 c 0
 548 237.491210938 485.55859375 298.578125 327.294921875 392 c 0
 161.283203125 489.995117188 68 560.266601562 68 708 c 0
 68 850 160 916 240 940 c 0
 274.823242188 950.447265625 274.823242188 950.447265625 250.750976562 971 c 0
 174.756835938 1035.88574219 128 1108.55859375 128 1212 c 0
482.5 500.99609375 m 0
 551 500.99609375 591 561.196338496 591 638 c 0
 591 729.368093352 568.718007944 759.52507792 441.010057301 841 c 0
 355.774495637 895.378452635 345.94140625 899.848632812 318.5 899.848632812 c 0
 244 899.848632812 185 833.681502073 185 762 c 0
 185 682.724588262 209.657562998 649.531367274 320.198583686 580 c 0
 441.292943326 503.830480826 447.9921875 500.99609375 482.5 500.99609375 c 0
EndSplineSet
EndChar

StartChar: dagger
Encoding: 8224 8224 222
Width: 1124
Flags: HMW
LayerCount: 2
Back
SplineSet
242 916 m 0
 274 916 324 901 342 883 c 8
 360 865 366 838 366 792 c 0
 366 556 368.999023438 478.125976562 381 368 c 0
 398 212 424 56 428 0 c 0
 432 -56 466 -68 480 0 c 8
 494 68 518.116210938 218.091796875 526 360 c 0
 534 504 536.763671875 567.421875 552 806 c 0
 553.284179688 826.103515625 550 848 578 848 c 0
 610 848 666.573242188 826 750 826 c 0
 809 826 858 860 858 924 c 0
 858 968 830 992 788 992 c 0
 718 992 733 904 674 904 c 0
 602 904 534.149414062 925.750976562 515 952 c 0
 499.69921875 972.973632812 498 998 498 1020 c 8
 498 1042 532 1054 532 1100 c 0
 532 1138 484 1145 484 1159 c 0
 484 1173 510 1188 510 1220 c 0
 510 1252 474 1266 474 1286 c 0
 474 1296 501 1309 501 1338 c 0
 501 1358 486 1380 458 1380 c 8
 430 1380 412 1358 412 1338 c 8
 412 1318 432 1299 432 1283 c 8
 432 1267 388 1256 388 1220 c 0
 388 1184 421 1169 421 1157 c 0
 421 1145 378 1132 378 1096 c 0
 378 1050 418 1038 418 1010 c 8
 418 982 404 954 372 954 c 8
 340 954 266 990 180 990 c 8
 94 990 54 948 54 904 c 0
 54 860 84 834 128 834 c 0
 204 834 180 916 242 916 c 0
EndSplineSet
Fore
SplineSet
621 146 m 6
 621 -180 648 -244 648 -320 c 4
 648 -347 645 -360 624 -360 c 6
 517 -360 l 6
 496 -360 493 -347 493 -320 c 4
 493 -244 520 -180 520 146 c 6
 520 863 l 6
 520 1189 493 1284 493 1360 c 4
 493 1387 496 1400 517 1400 c 6
 624 1400 l 6
 645 1400 648 1387 648 1360 c 4
 648 1284 621 1189 621 863 c 6
 621 146 l 6
554 698 m 6
 328 698 163 671 87 671 c 4
 60 671 47 674 47 695 c 6
 47 785 l 6
 47 806 60 809 87 809 c 4
 163 809 328 782 554 782 c 6
 575 782 l 6
 801 782 961 809 1037 809 c 4
 1064 809 1077 806 1077 785 c 6
 1077 695 l 6
 1077 674 1064 671 1037 671 c 4
 961 671 801 698 575 698 c 6
 554 698 l 6
EndSplineSet
EndChar

StartChar: daggerdbl
Encoding: 8225 8225 223
Width: 1124
Flags: HMW
LayerCount: 2
Fore
SplineSet
554 418 m 2
 328 418 163 391 87 391 c 0
 60 391 47 394 47 415 c 2
 47 505 l 2
 47 526 60 529 87 529 c 0
 163 529 328 502 554 502 c 2
 575 502 l 2
 801 502 961 529 1037 529 c 0
 1064 529 1077 526 1077 505 c 2
 1077 415 l 2
 1077 394 1064 391 1037 391 c 0
 961 391 801 418 575 418 c 2
 554 418 l 2
621 146 m 2
 621 -180 648 -244 648 -320 c 0
 648 -347 645 -360 624 -360 c 2
 517 -360 l 2
 496 -360 493 -347 493 -320 c 0
 493 -244 520 -180 520 146 c 2
 520 863 l 2
 520 1189 493 1284 493 1360 c 0
 493 1387 496 1400 517 1400 c 2
 624 1400 l 2
 645 1400 648 1387 648 1360 c 0
 648 1284 621 1189 621 863 c 2
 621 146 l 2
554 878 m 6
 328 878 163 851 87 851 c 4
 60 851 47 854 47 875 c 6
 47 965 l 6
 47 986 60 989 87 989 c 4
 163 989 328 962 554 962 c 6
 575 962 l 6
 801 962 961 989 1037 989 c 4
 1064 989 1077 986 1077 965 c 6
 1077 875 l 6
 1077 854 1064 851 1037 851 c 4
 961 851 801 878 575 878 c 6
 554 878 l 6
EndSplineSet
EndChar

StartChar: Thorn
Encoding: 222 222 224
Width: 1267
VWidth: 1920
Flags: MW
LayerCount: 2
Fore
SplineSet
652 389 m 0
 818 389 975 463 975 673 c 0
 975 873 864 1029 662 1029 c 0
 497 1029 480 994 470 962 c 0
 463 939 457 819 457 744 c 2
 457 668 l 2
 457 616 458 469 460 444 c 0
 463 416 534 389 652 389 c 0
274 591 m 2
 274 901 l 2
 274 1248 246 1320 181 1320 c 0
 146 1320 125 1304 105 1304 c 0
 85 1304 72 1318 72 1338 c 0
 72 1372 91 1385 137 1395 c 0
 199 1408 266 1415 357 1415 c 0
 443 1415 516 1412 562 1405 c 0
 615 1397 644 1380 644 1349 c 0
 644 1332 624 1312 596 1312 c 0
 573 1312 559 1330 522 1330 c 0
 484.672856274 1330 455.17741014 1300 455.17741014 1138 c 0
 455.17741014 1109.39451303 463.353081084 1100.58396842 486 1100.58396842 c 0
 532 1100.58396842 605.117397301 1107 682 1107 c 0
 959 1107 1166 1006 1166 736 c 0
 1166 452 903 312 669 312 c 0
 528 312 490 337 473 337 c 0
 463 337 457 332 457 307 c 0
 457 269.191697981 459.040106476 158.919787049 482 113 c 0
 494 89 508 86 528 86 c 0
 572 86 589 105 618 105 c 0
 642 105 654 87 654 64 c 0
 654 30 619 16 573 7 c 0
 516 -4 444 -15 353 -15 c 0
 267 -15 195 -14 148 -5 c 0
 99 4 65 12 65 45 c 0
 65 62 81 85 109 85 c 0
 132 85 154 72 191 72 c 0
 210 72 228 82 239 108 c 0
 263 166 274 307 274 591 c 2
EndSplineSet
EndChar

StartChar: Oslash
Encoding: 216 216 225
Width: 1595
VWidth: 1920
Flags: MW
LayerCount: 2
Fore
SplineSet
534.606445312 329.665039062 m 6
 325.057617188 79.9345703125 289.28125 26.408203125 240.4296875 -31.810546875 c 4
 223.07421875 -52.494140625 212.419921875 -60.5244140625 196.333007812 -47.025390625 c 6
 150.370117188 -8.458984375 l 6
 134.283203125 5.0400390625 140.341796875 16.9267578125 157.697265625 37.6103515625 c 4
 206.548828125 95.8291015625 253.049804688 140.356445312 462.598632812 390.086914062 c 6
 1013.46679688 1046.58691406 l 6
 1223.015625 1296.31738281 1278.71875 1373.59179688 1327.5703125 1431.81054688 c 4
 1344.92578125 1452.49414062 1355.58007812 1460.52441406 1371.66699219 1447.02539062 c 6
 1417.62988281 1408.45898438 l 6
 1433.71679688 1394.95996094 1427.65820312 1383.07324219 1410.30273438 1362.38964844 c 4
 1361.45117188 1304.17089844 1295.02441406 1235.89550781 1085.47558594 986.165039062 c 6
 534.606445312 329.665039062 l 6
EndSplineSet
Refer: 15 79 N 1 0 0 1 0 0 2
EndChar

StartChar: germandbls
Encoding: 223 223 227
Width: 1277
VWidth: 1920
Flags: HMW
LayerCount: 2
Fore
SplineSet
686 221 m 0
 740 83 811 44 895 44 c 0
 1027 44 1065 129 1065 211 c 0
 1065 308 1011.30431068 356.346529763 884 429 c 0
 686 542 595 605 595 746 c 0
 595 969 799 1056 799 1225 c 0
 799 1299 767 1414 596 1414 c 0
 388 1414 386 1267 386 1190 c 4
 386 1114 388 1100 388 814 c 6
 388 604 l 2
 388 348 397 143 414 97 c 0
 423 72 448 64 468 64 c 0
 502 64 527 82 546 82 c 0
 560 82 576 72 576 56 c 0
 576 20 503 -15 304 -15 c 0
 124 -15 62 6 62 43 c 0
 62 60 69 75 88 75 c 0
 106 75 127 57 164 57 c 0
 203 57 207 75 218 101 c 0
 242 159 258 307 258 591 c 2
 258 821 l 6
 258 1008 252 1073 252 1152 c 4
 252 1307 319 1474 596 1474 c 0
 843 1474 956 1369 956 1219 c 0
 956 1036 702 949 702 800 c 0
 702 733 764.09375 689.217773438 919 607 c 0
 1111.07924034 505.052354478 1179 413 1179 283 c 0
 1179 120 1083 -21 875 -21 c 0
 747 -21 649 49 621 108 c 0
 612 126 596 168 596 213 c 0
 596 253 602 268 617 268 c 0
 654 268 675 248 686 221 c 0
EndSplineSet
EndChar

StartChar: ae
Encoding: 230 230 228
Width: 1332
VWidth: 1920
Flags: MW
LayerCount: 2
Fore
SplineSet
92 672 m 0
 92 691 97 708 106 724 c 0
 142 790 249 838 376 838 c 0
 538 838 658 768 658 574 c 2
 658 484 l 2
 658 386.786426887 631.608398438 348.720703125 605.061523438 266 c 0
 565.158203125 141.666992188 499.71875 -8 302 -8 c 4
 128 -8 48 82 48 216 c 0
 48 380 201 462 378 462 c 0
 418 462 473 452 492 452 c 0
 510 452 512 460 512 497 c 2
 512 576 l 2
 512 710 487 784 356 784 c 0
 314 784 283 767 268 741 c 0
 255 718 255 686 238 655 c 0
 220 622 193 604 158 604 c 0
 117 604 92 629 92 672 c 0
512 326 m 2
 512 369 l 2
 512 393 512 393 484 398 c 0
 465 401 443 404 420 404 c 0
 277 404 202 330 202 226 c 0
 202 138 250 65 328 65 c 0
 417 65 512 161 512 326 c 2
918 855 m 0
 1134 855 1234 652 1234 527 c 0
 1234 520 1234 481 1234 466 c 0
 1234 445 1218 440 1204 440 c 2
 710 442 l 2
 676 442 664 435 664 415 c 0
 664 402 664 364 670 337 c 0
 704 182 807 74 960 74 c 0
 1099 74 1147 181 1182 181 c 0
 1198 181 1204 174 1204 153 c 0
 1204 102 1100 -25 890 -25 c 0
 646 -25 526 142 526 386 c 0
 526 650 661 855 918 855 c 0
1058 503 m 1
 1075 503 1076 538 1076 553 c 0
 1076 657 1014 787 882 787 c 0
 776 787 713 712 678 612 c 0
 666 577 662 542 662 528 c 0
 662 505 685 505 726 505 c 2
 1058 503 l 1
EndSplineSet
EndChar

StartChar: eth
Encoding: 240 240 238
Width: 1026
Flags: MW
LayerCount: 2
Fore
SplineSet
541.66796875 1177.73339844 m 2
 463.029296875 1122.66992188 392.418945312 1068.34472656 330.1640625 1024.75292969 c 0
 308.046875 1009.26660156 295.676757812 1004.26757812 283.631835938 1021.46972656 c 2
 249.216796875 1070.61914062 l 2
 237.171875 1087.82128906 246.100585938 1097.734375 268.217773438 1113.22167969 c 0
 330.47265625 1156.81347656 405.098632812 1205.40429688 483.737304688 1260.46777344 c 2
 500.939453125 1272.51269531 l 2
 595.9609375 1339.04785156 651.581054688 1381.65527344 713.8359375 1425.24707031 c 0
 735.953125 1440.73339844 748.323242188 1445.73242188 760.368164062 1428.53027344 c 2
 794.783203125 1379.38085938 l 2
 806.828125 1362.17871094 797.899414062 1352.265625 775.782226562 1336.77832031 c 0
 713.52734375 1293.18652344 653.891601562 1256.31347656 558.870117188 1189.77832031 c 2
 541.66796875 1177.73339844 l 2
959 507 m 4
 959 123 717 -20 495 -20 c 4
 243 -20 77 164 77 413 c 4
 77 662 295 859 497 859 c 4
 566.418945312 859 619.010742188 825.513671875 647 811.237304688 c 4
 686.942773884 790.86385605 699.341796875 814.59765625 688.973632812 841 c 4
 602.626953125 1060.875 457.333762747 1254.26256189 223 1339 c 4
 195.858306972 1348.81470833 183 1360 183 1374 c 4
 183 1391 202 1407 229 1407 c 4
 287 1407 346 1378 401 1353 c 4
 713 1210 959 871 959 507 c 4
799 331 m 4
 799 580 643 779 471 779 c 4
 359 779 239 670 239 461 c 4
 239 282 370 57 542 57 c 4
 704 57 799 192 799 331 c 4
EndSplineSet
EndChar

StartChar: divide
Encoding: 247 247 245
Width: 1222
Flags: MW
LayerCount: 2
Fore
SplineSet
480 132 m 0
 480 199 529 241 586 241 c 0
 643 241 690 199 690 132 c 0
 690 66 643 23 586 23 c 0
 529 23 480 66 480 132 c 0
480 888 m 0
 480 955 529 997 586 997 c 0
 643 997 690 955 690 888 c 0
 690 822 643 779 586 779 c 0
 529 779 480 822 480 888 c 0
576 463 m 2
 330 463 246 456 170 456 c 0
 143 456 130 459 130 480 c 2
 130 540 l 2
 130 561 143 564 170 564 c 0
 246 564 330 557 576 557 c 2
 597 557 l 2
 843 557 958 564 1034 564 c 0
 1061 564 1074 561 1074 540 c 2
 1074 480 l 2
 1074 459 1061 456 1034 456 c 0
 958 456 843 463 597 463 c 2
 576 463 l 2
EndSplineSet
EndChar

StartChar: oslash
Encoding: 248 248 246
Width: 1026
VWidth: 1920
Flags: MW
LayerCount: 2
Fore
SplineSet
504.606445312 329.665039062 m 2
 297.846219532 80.6202602905 259.28125 26.408203125 210.4296875 -31.810546875 c 0
 193.07421875 -52.494140625 182.419921875 -60.5244140625 166.333007812 -47.025390625 c 2
 120.370117188 -8.458984375 l 2
 104.283203125 5.0400390625 110.341796875 16.9267578125 127.697265625 37.6103515625 c 0
 176.548828125 95.8291015625 225.839662744 141.041098512 432.598632812 390.086914062 c 2
 519 493 l 6
 728.548828125 742.73046875 784.251953125 820.004882812 833.103515625 878.223632812 c 4
 850.458984375 898.907226562 861.11328125 906.9375 877.200195312 893.438476562 c 6
 923.163085938 854.872070312 l 6
 939.25 841.373046875 933.19140625 829.486328125 915.8359375 808.802734375 c 4
 866.984375 750.583984375 800.557617188 682.30859375 591.008789062 432.578125 c 6
 504.606445312 329.665039062 l 2
EndSplineSet
Refer: 34 111 N 1 0 0 1 0 0 2
EndChar

StartChar: thorn
Encoding: 254 254 252
Width: 1026
VWidth: 1920
Flags: MW
LayerCount: 2
Fore
SplineSet
197 194 m 2
 197 915 l 6
 197 1262 182 1308 137 1308 c 4
 102 1308 91 1292 71 1292 c 4
 51 1292 39 1303 39 1319 c 4
 39 1344 53 1361 99 1386 c 4
 155 1416 250 1437 281 1437 c 4
 311 1437 323 1422 323 1395 c 4
 323 1369 325 760 325 722 c 0
 325 682 325 663 331 664 c 0
 336 665 345 680 363 709 c 0
 420 799 503 855 597 855 c 0
 839 855 940 685 940 438 c 0
 940 197 775 -23 545 -23 c 0
 488 -23 420 -3 379 23 c 0
 354 39 348 41 341 41 c 0
 329 41 329 9 329 -13 c 0
 329 -173 331 -214 343 -247 c 0
 355 -281 376 -297 407 -297 c 0
 422 -297 432 -292 447 -292 c 0
 468 -292 481 -305 481 -324 c 0
 481 -352 453 -364 385 -364 c 0
 346 -364 294 -360 235 -352 c 0
 98 -334 45 -312 45 -276 c 0
 45 -258 58 -247 77 -247 c 0
 102 -247 112 -266 137 -266 c 0
 168 -266 172 -232 175 -206 c 0
 181 -144 197 10 197 194 c 2
559 44 m 0
 698 44 805 210 805 395 c 0
 805 570 712 737 551 737 c 0
 418 737 326 592 326 388 c 2
 326 228 l 2
 326 124 399 44 559 44 c 0
EndSplineSet
EndChar

StartChar: dcroat
Encoding: 273 273 270
Width: 1026
VWidth: 1920
Flags: HMW
LayerCount: 2
Fore
SplineSet
751 1055 m 6
 655 1055 566 1051 490 1051 c 4
 463 1051 450 1054 450 1075 c 6
 450 1135 l 6
 450 1156 463 1159 490 1159 c 4
 566 1159 655 1156 751 1156 c 6
 772 1156 l 6
 888 1156 958 1159 1034 1159 c 4
 1061 1159 1074 1156 1074 1135 c 6
 1074 1075 l 6
 1074 1054 1061 1051 1034 1051 c 4
 958 1051 888 1055 772 1055 c 6
 751 1055 l 6
EndSplineSet
Refer: 36 100 N 1 0 0 1 0 0 2
EndChar

StartChar: Hbar
Encoding: 294 294 291
Width: 1570
VWidth: 1920
Flags: MW
LayerCount: 2
Fore
SplineSet
341 1015 m 6
 245 1015 156 1011 80 1011 c 4
 53 1011 40 1014 40 1035 c 6
 40 1095 l 6
 40 1116 53 1119 80 1119 c 4
 156 1119 245 1116 341 1116 c 6
 1222 1116 l 6
 1338 1116 1408 1119 1484 1119 c 4
 1511 1119 1524 1116 1524 1095 c 6
 1524 1035 l 6
 1524 1014 1511 1011 1484 1011 c 4
 1408 1011 1338 1015 1222 1015 c 6
 341 1015 l 6
EndSplineSet
Refer: 8 72 N 1 0 0 1 0 0 2
EndChar

StartChar: hbar
Encoding: 295 295 292
Width: 1026
VWidth: 1920
Flags: HMW
LayerCount: 2
Fore
SplineSet
281 1055 m 6
 185 1055 96 1051 20 1051 c 4
 -7 1051 -20 1054 -20 1075 c 6
 -20 1135 l 6
 -20 1156 -7 1159 20 1159 c 4
 96 1159 185 1156 281 1156 c 6
 302 1156 l 6
 418 1156 488 1159 564 1159 c 4
 591 1159 604 1156 604 1135 c 6
 604 1075 l 6
 604 1054 591 1051 564 1051 c 4
 488 1051 418 1055 302 1055 c 6
 281 1055 l 6
EndSplineSet
Refer: 42 104 N 1 0 0 1 0 0 2
EndChar

StartChar: uni0237
Encoding: 567 567 306
Width: 569
VWidth: 1920
Flags: MW
AnchorPoint: "top" 291 880 basechar 0
LayerCount: 2
Fore
SplineSet
246 469 m 2
 246 706 245 721 200 721 c 0
 165 721 148 707 128 707 c 0
 108 707 96 721 96 741 c 0
 96 766 114 774 160 794 c 0
 218 819 349 844 380 844 c 0
 401 844 404 831 404 804 c 0
 404 728 396 788 396 462 c 2
 396 154 l 2
 396 7 416 -48 416 -127 c 0
 416 -282 357 -369 200 -369 c 0
 93 -369 42 -316 42 -246 c 0
 42 -203 73 -167 124 -167 c 0
 172 -167 189 -197 197 -224 c 0
 207 -260 201 -296 246 -296 c 0
 274 -296 286 -272 286 -225 c 0
 286 -150 247 -165 247 151 c 2
 246 469 l 2
EndSplineSet
EndChar

StartChar: Lslash
Encoding: 321 321 317
Width: 1240
VWidth: 1920
Flags: MW
LayerCount: 2
Fore
SplineSet
371.66796875 847.733398438 m 6
 293.029296875 792.669921875 222.418945312 738.344726562 160.1640625 694.752929688 c 4
 138.046875 679.266601562 125.676757812 674.267578125 113.631835938 691.469726562 c 6
 79.216796875 740.619140625 l 6
 67.171875 757.821289062 76.1005859375 767.734375 98.2177734375 783.221679688 c 4
 160.47265625 826.813476562 235.098632812 875.404296875 313.737304688 930.467773438 c 6
 330.939453125 942.512695312 l 6
 425.9609375 1009.04785156 481.581054688 1051.65527344 543.8359375 1095.24707031 c 4
 565.953125 1110.73339844 578.323242188 1115.73242188 590.368164062 1098.53027344 c 6
 624.783203125 1049.38085938 l 6
 636.828125 1032.17871094 627.899414062 1022.265625 605.782226562 1006.77832031 c 4
 543.52734375 963.186523438 483.891601562 926.313476562 388.870117188 859.778320312 c 6
 371.66796875 847.733398438 l 6
EndSplineSet
Refer: 12 76 N 1 0 0 1 0 0 2
EndChar

StartChar: lslash
Encoding: 322 322 318
Width: 569
VWidth: 1920
Flags: MW
LayerCount: 2
Fore
SplineSet
301.66796875 847.733398438 m 6
 223.029296875 792.669921875 152.418945312 738.344726562 90.1640625 694.752929688 c 4
 68.046875 679.266601562 55.6767578125 674.267578125 43.6318359375 691.469726562 c 6
 9.216796875 740.619140625 l 6
 -2.828125 757.821289062 6.1005859375 767.734375 28.2177734375 783.221679688 c 4
 90.47265625 826.813476562 165.098632812 875.404296875 243.737304688 930.467773438 c 6
 260.939453125 942.512695312 l 6
 355.9609375 1009.04785156 411.581054688 1051.65527344 473.8359375 1095.24707031 c 4
 495.953125 1110.73339844 508.323242188 1115.73242188 520.368164062 1098.53027344 c 6
 554.783203125 1049.38085938 l 6
 566.828125 1032.17871094 557.899414062 1022.265625 535.782226562 1006.77832031 c 4
 473.52734375 963.186523438 413.891601562 926.313476562 318.870117188 859.778320312 c 6
 301.66796875 847.733398438 l 6
EndSplineSet
Refer: 28 108 N 1 0 0 1 0 0 2
EndChar

StartChar: Eng
Encoding: 330 330 326
Width: 1595
VWidth: 1920
Flags: MW
LayerCount: 2
Fore
SplineSet
215 551 m 2
 215 838 l 2
 215 1093 201 1232 163 1287 c 0
 149 1307 123 1314 106 1314 c 0
 81 1314 48 1307 19 1307 c 0
 -1 1307 -19 1321 -19 1341 c 0
 -19 1375 24 1388 61 1396 c 0
 123 1409 225 1410 286 1410 c 0
 352 1410 377 1393 405 1359 c 2
 1227 386 l 2
 1250 358 1267 345 1288 345 c 0
 1312 345 1314 410 1314 586 c 2
 1314 876 l 2
 1313 1223 1281 1323 1216 1323 c 0
 1191 1323 1156 1312 1127 1312 c 0
 1107 1312 1091 1328 1091 1348 c 0
 1091 1386 1145 1415 1341 1415 c 0
 1564 1415 1614 1375 1614 1336 c 0
 1614 1319 1597 1301 1569 1301 c 0
 1546 1301 1539 1311 1502 1311 c 0
 1442 1311 1399 1240 1399 829 c 2
 1399 154 l 2
 1399 7 1419 -48 1419 -127 c 0
 1419 -282 1360 -369 1203 -369 c 0
 1096 -369 1045 -316 1045 -246 c 0
 1045 -203 1076 -167 1127 -167 c 0
 1175 -167 1192 -197 1200 -224 c 0
 1210 -260 1204 -296 1249 -296 c 0
 1277 -296 1289 -272 1289 -225 c 0
 1289 -169.974912017 1268.00752853 -163.393988955 1256.82558804 -39 c 0
 1252.67407734 7.18366338975 1233.79492188 30.18359375 1210 59 c 2
 437 995 l 2
 423.381355637 1011.49036368 387 1049 365 1049 c 0
 341 1049 315 1006 315 831 c 2
 314 504 l 2
 315 157 347 73 412 73 c 0
 437 73 443 86 472 86 c 0
 492 86 507 72 507 52 c 0
 507 14 444 -15 278 -15 c 0
 115 -15 5 -1 5 54 c 0
 5 75 20 89 42 89 c 0
 65 89 84 74 121 74 c 0
 181 74 215 140 215 551 c 2
EndSplineSet
EndChar

StartChar: eng
Encoding: 331 331 327
Width: 1026
VWidth: 1920
Flags: MW
LayerCount: 2
Fore
SplineSet
197 401 m 2
 197 469 l 2
 197 706 196 721 151 721 c 0
 116 721 99 707 79 707 c 0
 59 707 47 721 47 741 c 0
 47 766 65 774 111 794 c 0
 169 819 278 844 309 844 c 0
 330 844 333 831 333 804 c 0
 333 755 333 763 333 685 c 0
 333 666 334 647 345 647 c 0
 361 647 365 668 377 691 c 0
 425 785 505 845 591 845 c 0
 713 845 771 809 815 749 c 0
 872 671 873 551 873 414 c 2
 873 154 l 2
 873 7.03000878969 893 -48 893 -127 c 0
 893 -282 834 -369 677 -369 c 0
 570 -369 519 -316 519 -246 c 0
 519 -203 550 -167 601 -167 c 0
 649 -167 666 -197 674 -224 c 0
 684 -260 678 -296 723 -296 c 0
 751 -296 763 -272 763 -225 c 0
 763 -150 725.262806367 -164.701591836 724 151 c 2
 723 401 l 2
 723 595 714 747 553 747 c 0
 440 747 342 588 342 414 c 0
 342 298 342 143 357 97 c 0
 365 72 381 60 401 60 c 0
 425 60 434 67 453 67 c 0
 467 67 481 57 481 41 c 0
 481 5 456 -15 257 -15 c 0
 77 -15 37 1 37 38 c 0
 37 55 44 66 63 66 c 0
 81 66 108 57 125 57 c 0
 144 57 161 59 173 85 c 0
 195 133 197 307 197 401 c 2
EndSplineSet
EndChar

StartChar: OE
Encoding: 338 338 334
Width: 2141
VWidth: 1920
Flags: MW
LayerCount: 2
Fore
SplineSet
850 1408 m 0
 998 1408 1130 1392 1231 1392 c 4
 1317 1392 1374 1400 1469 1400 c 0
 1591 1400 1599 1396 1718 1396 c 0
 1831 1396 1872 1426 1909 1426 c 0
 1942 1426 2006 1298 2006 1168 c 0
 2006 1133 1977 1095 1959 1095 c 0
 1939 1095 1928 1134 1906 1183 c 0
 1878 1246 1839 1296 1756 1309 c 0
 1694 1319 1575 1319 1513 1319 c 0
 1378 1319 1356 1313 1350 1244 c 0
 1344 1180 1334 1021 1334 838 c 0
 1334 791 1346 773 1373 763 c 0
 1402 753 1448 750 1513 750 c 0
 1647 750 1706 794 1706 858 c 0
 1706 874 1704 885 1704 901 c 0
 1704 914 1711 926 1729 926 c 0
 1786 926 1796 840 1796 716 c 0
 1796 570 1776 495 1732 495 c 0
 1713 495 1704 518 1704 556 c 0
 1704 602 1685 672 1553 672 c 0
 1358 672 1351 668 1345 613 c 0
 1340 564 1338 521 1338 446 c 0
 1338 315 1344 235 1351 135 c 0
 1353 113 1356 109 1382 103 c 0
 1429 91 1537 80 1633 80 c 0
 1718 80 1775 81 1828 95 c 0
 1885 110 1931 150 1964 203 c 0
 2003 266 2009 314 2030 314 c 0
 2051 314 2083 277 2083 239 c 0
 2083 166 1975 -27 1929 -27 c 0
 1895 -27 1886 -3 1838 -3 c 0
 1721 -3 1610 -3 1525 -3 c 0
 1438 -3 1352 -1 1268 -1 c 0
 1111 -1 1002 -13 799 -13 c 0
 352 -13 52 238 52 648 c 0
 52 988 266 1326 611 1390 c 0
 689 1404 770 1408 850 1408 c 0
802 1318 m 0
 705 1318 610 1318 519 1271 c 0
 317 1167 246 948 246 768 c 0
 246 378 450 66 820 66 c 0
 994 66 1100 85 1112 94 c 0
 1129 107 1135 150 1138 187 c 0
 1146 284 1152 396 1152 507 c 0
 1152 709 1146 994 1143 1200 c 0
 1143 1224 1136 1266 1115 1275 c 0
 1076 1292 976 1318 802 1318 c 0
EndSplineSet
EndChar

StartChar: longs
Encoding: 383 383 335
Width: 682
VWidth: 1920
Flags: MW
LayerCount: 2
Fore
SplineSet
280 901 m 2
 280 988 252 1093 252 1172 c 0
 252 1327 371 1424 468 1424 c 0
 545 1424 582 1391 582 1341 c 0
 582 1288 555 1253 514 1253 c 0
 461 1253 450 1331 392 1331 c 0
 364 1331 349 1287 349 1260 c 0
 349 1184 411 1220 411 894 c 2
 411 604 l 2
 411 348 419 143 436 97 c 0
 445 72 470 64 490 64 c 0
 524 64 549 82 568 82 c 0
 582 82 598 72 598 56 c 0
 598 20 525 -15 326 -15 c 0
 146 -15 84 6 84 43 c 0
 84 60 91 75 110 75 c 0
 128 75 149 57 186 57 c 0
 225 57 230 75 241 101 c 0
 265 159 280 307 280 591 c 2
 280 901 l 2
EndSplineSet
EndChar

StartChar: Tbar
Encoding: 358 358 355
Width: 1333
VWidth: 1920
Flags: MW
LayerCount: 2
Fore
SplineSet
651 675 m 6
 555 675 466 671 390 671 c 4
 363 671 350 674 350 695 c 6
 350 755 l 6
 350 776 363 779 390 779 c 4
 466 779 555 776 651 776 c 6
 672 776 l 6
 788 776 858 779 934 779 c 4
 961 779 974 776 974 755 c 6
 974 695 l 6
 974 674 961 671 934 671 c 4
 858 671 788 675 672 675 c 6
 651 675 l 6
EndSplineSet
Refer: 20 84 N 1 0 0 1 0 0 2
EndChar

StartChar: tbar
Encoding: 359 359 356
Width: 569
Flags: HMW
LayerCount: 2
Fore
SplineSet
271 495 m 6
 175 495 86 491 10 491 c 4
 -17 491 -30 494 -30 515 c 6
 -30 575 l 6
 -30 596 -17 599 10 599 c 4
 86 599 175 596 271 596 c 6
 292 596 l 6
 408 596 478 599 554 599 c 4
 581 599 594 596 594 575 c 6
 594 515 l 6
 594 494 581 491 554 491 c 4
 478 491 408 495 292 495 c 6
 271 495 l 6
EndSplineSet
Refer: 50 116 N 1 0 0 1 0 0 2
EndChar

StartChar: florin
Encoding: 402 402 380
Width: 682
VWidth: 1920
Flags: MW
LayerCount: 2
Fore
SplineSet
250 760 m 2
 180 760 l 2
 160 760 130 765 130 795 c 0
 130 825 160 830 180 830 c 2
 256 830 l 2
 279 830 280 830 280 859 c 2
 280 901 l 2
 280 988 252 1093 252 1172 c 0
 252 1327 371 1424 468 1424 c 0
 545 1424 582 1391 582 1341 c 0
 582 1288 555 1253 514 1253 c 0
 461 1253 450 1331 392 1331 c 0
 364 1331 349 1287 349 1260 c 0
 349 1184 411 1220 411 894 c 2
 411 861 l 2
 411 830 411 830 436 830 c 2
 538 830 l 2
 578 830 598 825 598 795 c 0
 598 765 578 760 538 760 c 2
 438 760 l 2
 411 760 411 760 411 733 c 2
 411 154 l 2
 411 7 440 -48 440 -127 c 0
 440 -282 391 -369 234 -369 c 0
 127 -369 76 -316 76 -246 c 0
 76 -203 107 -167 158 -167 c 0
 206 -167 223 -197 231 -224 c 0
 241 -260 235 -296 280 -296 c 0
 308 -296 320 -272 320 -225 c 0
 320 -150 281.544825967 -164.999060645 281 151 c 6
 280 731 l 6
 279.950000149 759.999913793 279 760 250 760 c 2
EndSplineSet
EndChar

StartChar: uni0259
Encoding: 601 601 389
Width: 912
VWidth: 1920
Flags: MW
LayerCount: 2
Fore
SplineSet
414 -25 m 4
 198 -25 98 178 98 303 c 4
 98 310 98 349 98 364 c 4
 98 385 114 390 128 390 c 6
 622 388 l 6
 656 388 668 395 668 415 c 4
 668 428 668 466 662 493 c 4
 628 648 525 756 372 756 c 4
 233 756 185 649 150 649 c 4
 134 649 128 656 128 677 c 4
 128 728 232 855 442 855 c 4
 686 855 826 688 826 444 c 4
 826 180 671 -25 414 -25 c 4
274 327 m 5
 257 327 256 292 256 277 c 4
 256 173 318 43 450 43 c 4
 556 43 619 118 654 218 c 4
 666 253 670 288 670 302 c 4
 670 325 647 325 606 325 c 6
 274 327 l 5
EndSplineSet
EndChar

StartChar: uni0394
Encoding: 916 916 390
Width: 1588
VWidth: 1920
Flags: MW
LayerCount: 2
Fore
SplineSet
377 253 m 2
 347 175 342 132 342 111 c 0
 342 75 370 63 404 63 c 4
 446.2051472 63 582 79.2705078125 747 79.2705078125 c 0
 922.352801029 79.2705078125 1071.69335938 66 1115 66 c 4
 1149 66 1161 85 1161 113 c 0
 1161 145 1149 190 1138 218 c 2
 836 976 l 2
 818 1021 779 1094 733 1094 c 0
 705 1094 688 1059 667 1004 c 2
 377 253 l 2
300 -15 m 0
 169 -15 137 1 137 49 c 0
 137 93.78515625 221.687855237 145.024127131 330 402 c 2
 534 886 l 2
 607 1060 669 1247 669 1315 c 0
 669 1396 684 1446 749 1446 c 0
 818 1446 860 1366 928 1236 c 0
 1099 908 1224.75391022 571.115224457 1354 248 c 0
 1400 133 1451 120.23828125 1451 51 c 0
 1451 1.2705078125 1391 -23 1277 -23 c 0
 1215 -23 982 2 771 2 c 0
 612 2 415 -15 300 -15 c 0
EndSplineSet
EndChar

StartChar: uni03A9
Encoding: 937 937 391
Width: 1595
VWidth: 1920
Flags: MW
LayerCount: 2
Fore
SplineSet
964 335 m 0
 1139 394 1252 568 1252 806 c 0
 1252 1128 1085 1335 788 1335 c 0
 524 1335 352 1229 352 903 c 0
 352 677 450 451 618 353 c 0
 707 301 718 271 718 192 c 2
 718 96 l 2
 718 12 671 0 614 0 c 2
 472 0 l 2
 399 0 325 -26 248 -26 c 0
 187 -26 102 195 102 325 c 0
 102 369 133 406 170 406 c 0
 200 406 195 365 216 316 c 0
 283 158 353 95 456 95 c 2
 532 95 l 2
 605 95 624 105 624 152 c 0
 624 178 625 210 534 246 c 0
 289 344 142 555 142 812 c 0
 142 1214 446 1435 832 1435 c 0
 1211 1435 1452 1236 1452 898 c 0
 1452 640 1291 371 1050 243 c 0
 971 201 970 191 970 152 c 0
 970 114 991 95 1064 95 c 2
 1140 95 l 2
 1243 95 1313 158 1380 316 c 0
 1401 365 1396 406 1426 406 c 0
 1463 406 1494 369 1494 325 c 0
 1494 195 1409 -26 1348 -26 c 0
 1271 -26 1197 0 1124 0 c 2
 982 0 l 2
 925 0 878 12 878 96 c 2
 878 205 l 2
 878 309 888 309 964 335 c 0
EndSplineSet
EndChar

StartChar: uni1E9E
Encoding: 7838 7838 402
Width: 1487
VWidth: 1920
Flags: HMW
LayerCount: 2
Fore
SplineSet
896 221 m 0
 950 83 1001 44 1085 44 c 0
 1217 44 1255 159 1255 241 c 0
 1255 338 1198.10839844 431.012695312 1074 509 c 0
 926 602 755 655 755 866 c 0
 755 978.97899961 797.265499241 1054.88923688 900.667315469 1158.99998968 c 0
 998 1257 1032 1285.84179688 1032 1322 c 0
 1032 1362 907 1369 794 1369 c 0
 477 1369 436 1187 436 1110 c 0
 436 1034 451 973 451 744 c 2
 451 604 l 2
 451 348 461 163 478 117 c 0
 487 92 512 84 532 84 c 0
 566 84 591 102 620 102 c 0
 644 102 655 81 655 65 c 0
 655 11 533 -15 334 -15 c 0
 154 -15 66 -1 66 48 c 0
 66 65 86 84 105 84 c 0
 133 84 151 72 188 72 c 0
 227 72 231 90 242 116 c 0
 266 174 275 307 275 591 c 2
 275 751 l 2
 275 938 272 1003 272 1082 c 0
 272 1237 358 1439 790 1439 c 0
 1081 1439 1219 1432 1219 1349 c 0
 1219 1293 1174.73277508 1244.0785139 1073.10449219 1129 c 0
 953 993 912 959.06931965 912 910 c 0
 912 823 974.09375 799.217773438 1129 707 c 0
 1315.85351562 595.763671875 1409 473 1409 313 c 0
 1409 150 1308 -21 1065 -21 c 0
 937 -21 819 49 791 108 c 0
 782 126 766 168 766 213 c 0
 766 253 772 316 828 316 c 0
 865 316 885.37602464 248.150159254 896 221 c 0
EndSplineSet
EndChar

StartChar: perthousand
Encoding: 8240 8240 405
Width: 2280
Flags: HMW
LayerCount: 2
Fore
SplineSet
2165 371 m 260
 2165 151 1994 -35 1819 -35 c 260
 1684 -35 1562 57 1562 292 c 260
 1562 514 1737 685 1901 685 c 260
 2042 685 2165 600 2165 371 c 260
1818 37 m 260
 1906 37 2020 204 2020 418 c 260
 2020 539 1983 615 1908 615 c 260
 1808 615 1707 447 1707 235 c 260
 1707 105 1738 37 1818 37 c 260
1465 371 m 260
 1465 151 1294 -35 1119 -35 c 260
 984 -35 862 57 862 292 c 260
 862 514 1037 685 1201 685 c 260
 1342 685 1465 600 1465 371 c 260
1118 37 m 260
 1206 37 1320 204 1320 418 c 260
 1320 539 1283 615 1208 615 c 260
 1108 615 1007 447 1007 235 c 260
 1007 105 1038 37 1118 37 c 260
718 968 m 260
 718 748 547 563 372 563 c 260
 237 563 115 654 115 889 c 260
 115 1111 290 1283 454 1283 c 260
 595 1283 718 1197 718 968 c 260
372 634 m 260
 460 634 573 801 573 1015 c 260
 573 1136 536 1212 461 1212 c 260
 361 1212 260 1045 260 833 c 260
 260 703 292 634 372 634 c 260
790 566 m 6
 622 326 500 143 409 13 c 4
 395 -7 387 -15 372 -4 c 6
 327 26 l 6
 312 37 316 48 330 68 c 4
 421 198 553 375 721 615 c 6
 760 671 l 6
 928 911 1065 1117 1156 1247 c 4
 1170 1267 1179 1275 1194 1264 c 6
 1238 1234 l 6
 1253 1223 1250 1212 1236 1192 c 4
 1145 1062 998 863 830 623 c 6
 790 566 l 6
EndSplineSet
EndChar

StartChar: uni2031
Encoding: 8241 8241 406
Width: 2980
Flags: HMW
LayerCount: 2
Fore
SplineSet
2865 371 m 260
 2865 151 2694 -35 2519 -35 c 260
 2384 -35 2262 57 2262 292 c 260
 2262 514 2437 685 2601 685 c 260
 2742 685 2865 600 2865 371 c 260
2518 37 m 260
 2606 37 2720 204 2720 418 c 260
 2720 539 2683 615 2608 615 c 260
 2508 615 2407 447 2407 235 c 260
 2407 105 2438 37 2518 37 c 260
2165 371 m 256
 2165 151 1994 -35 1819 -35 c 256
 1684 -35 1562 57 1562 292 c 256
 1562 514 1737 685 1901 685 c 256
 2042 685 2165 600 2165 371 c 256
1818 37 m 256
 1906 37 2020 204 2020 418 c 256
 2020 539 1983 615 1908 615 c 256
 1808 615 1707 447 1707 235 c 256
 1707 105 1738 37 1818 37 c 256
1465 371 m 256
 1465 151 1294 -35 1119 -35 c 256
 984 -35 862 57 862 292 c 256
 862 514 1037 685 1201 685 c 256
 1342 685 1465 600 1465 371 c 256
1118 37 m 256
 1206 37 1320 204 1320 418 c 256
 1320 539 1283 615 1208 615 c 256
 1108 615 1007 447 1007 235 c 256
 1007 105 1038 37 1118 37 c 256
718 968 m 256
 718 748 547 563 372 563 c 256
 237 563 115 654 115 889 c 256
 115 1111 290 1283 454 1283 c 256
 595 1283 718 1197 718 968 c 256
372 634 m 256
 460 634 573 801 573 1015 c 256
 573 1136 536 1212 461 1212 c 256
 361 1212 260 1045 260 833 c 256
 260 703 292 634 372 634 c 256
790 566 m 2
 622 326 500 143 409 13 c 0
 395 -7 387 -15 372 -4 c 2
 327 26 l 2
 312 37 316 48 330 68 c 0
 421 198 553 375 721 615 c 2
 760 671 l 2
 928 911 1065 1117 1156 1247 c 0
 1170 1267 1179 1275 1194 1264 c 2
 1238 1234 l 2
 1253 1223 1250 1212 1236 1192 c 0
 1145 1062 998 863 830 623 c 2
 790 566 l 2
EndSplineSet
EndChar

StartChar: guilsinglleft
Encoding: 8249 8249 407
Width: 700
Flags: MW
LayerCount: 2
Fore
SplineSet
80 524 m 6
 80 564 l 6
 80 584 80.1279296875 592.30078125 96 602 c 4
 312 734 410 814 533 929 c 4
 539.283203125 934.875 546 938 550 938 c 4
 563 938 605 886 605 875 c 4
 605 864 597.52734375 857.61328125 587 849 c 4
 477 759 399 679 270 544 c 5
 399 409 477 329 587 239 c 4
 597.52734375 230.38671875 605 224 605 213 c 4
 605 202 563 150 550 150 c 4
 546 150 539.283203125 153.125 533 159 c 4
 410 274 312 354 96 486 c 4
 80.1279296875 495.69921875 80 504 80 524 c 6
EndSplineSet
EndChar

StartChar: guilsinglright
Encoding: 8250 8250 408
Width: 700
Flags: MW
LayerCount: 2
Fore
SplineSet
620 564 m 6
 620 524 l 6
 620 504 619.872070312 495.69921875 604 486 c 4
 388 354 290 274 167 159 c 4
 160.716796875 153.125 154 150 150 150 c 4
 137 150 95 202 95 213 c 4
 95 224 102.47265625 230.38671875 113 239 c 4
 223 329 301 409 430 544 c 5
 301 679 223 759 113 849 c 4
 102.47265625 857.61328125 95 864 95 875 c 4
 95 886 137 938 150 938 c 4
 154 938 160.716796875 934.875 167 929 c 4
 290 814 388 734 604 602 c 4
 619.872070312 592.30078125 620 584 620 564 c 6
EndSplineSet
EndChar

StartChar: fraction
Encoding: 8260 8260 411
Width: 1133
Flags: MW
LayerCount: 2
Fore
SplineSet
574 629 m 6
 387 362 252 158 151 14 c 4
 136 -8 126 -17 109 -5 c 6
 60 29 l 6
 43 41 48 54 63 76 c 4
 164 220 310 416 497 683 c 6
 541 746 l 6
 728 1013 880 1242 981 1386 c 4
 996 1408 1006 1417 1023 1405 c 6
 1072 1371 l 6
 1089 1359 1084 1346 1069 1324 c 4
 968 1180 805 959 618 692 c 6
 574 629 l 6
EndSplineSet
EndChar

StartChar: Euro
Encoding: 8364 8364 412
Width: 1111
VWidth: 1920
Flags: HMW
LayerCount: 2
Fore
SplineSet
10 508 m 4
 10 532 21 545 49 575 c 4
 63 590 76 598 97 598 c 4
 160 598 461 583 514 583 c 4
 606 583 625 599 680 599 c 4
 699 599 712 582 712 563 c 4
 712 539 704 528 687 497 c 4
 678 480 664 471 645 471 c 4
 617 471 568 490 505 490 c 6
 220 490 l 6
 140 490 54 480 39 480 c 4
 25 480 10 490 10 508 c 4
30 728 m 4
 30 752 41 765 69 795 c 4
 83 810 96 818 117 818 c 4
 180 818 481 803 534 803 c 4
 626 803 645 819 700 819 c 4
 719 819 732 802 732 783 c 4
 732 759 724 748 707 717 c 4
 698 700 684 691 665 691 c 4
 637 691 588 710 525 710 c 6
 240 710 l 6
 160 710 74 700 59 700 c 4
 45 700 30 710 30 728 c 4
631 -25 m 0
 374 -25 183 178 183 588 c 0
 183 995 396 1283 671 1283 c 0
 781 1283 835 1224 885 1224 c 0
 941 1224 931 1244 979 1244 c 0
 1019 1244 1061 1122 1061 1006 c 0
 1061 894 1008 847 963 847 c 0
 908 847 916 921 907 974 c 0
 884 1111 820 1207 663 1207 c 0
 488 1207 387 936 387 658 c 0
 387 308 504 76 681 76 c 0
 788 76 913 151 945 268 c 0
 959 320 964 392 1009 392 c 0
 1044 392 1079 369 1079 297 c 0
 1079 231 1047 104 1009 59 c 0
 996 44 981 34 961 34 c 0
 935 34 929 51 913 51 c 0
 850 51 795 -25 631 -25 c 0
EndSplineSet
EndChar

StartChar: uni03BC
Encoding: 956 956 413
Width: 1026
VWidth: 1920
Flags: MW
LayerCount: 2
Fore
SplineSet
836 433 m 2
 836 365 l 2
 836 128 860 88 893 88 c 0
 918 88 925 97 945 97 c 0
 961 97 969 86 969 73 c 0
 969 48 963 40 917 20 c 0
 859 -5 792 -20 761 -20 c 0
 740 -20 733 -14 721 10 c 0
 712 28 709 71 709 119 c 0
 709 138 703 147 695 147 c 0
 686 147 679 133 663 113 c 0
 595 29 555 -21 439 -21 c 0
 396.19921875 -21 357.6015625 -7.2666015625 325 16.44921875 c 0
 294 39 278.994140625 50.6875 278.994140625 2 c 0
 278.994140625 -226 311.931640625 -252 311.931640625 -293 c 0
 311.931640625 -344 282.227539062 -365 218 -365 c 0
 181.947265625 -365 181.947265625 -365 170.291992188 -293 c 0
 140.8203125 -110.946289062 133 71.6455078125 133 390 c 0
 133 506 133 647 133 690 c 0
 133 733.893554688 123 768.442382812 123 809 c 0
 123 845 250 846 279 846 c 0
 299 846 309 836 309 809 c 0
 309 791 283 641 283 363 c 0
 283 169 344 87 475 87 c 0
 588 87 687 216 687 390 c 0
 687 450 689 527 689 595 c 0
 689 714.120117188 669 767.684570312 669 814 c 0
 669 834 691 834 717 834 c 2
 817 834 l 2
 840 834 849 831 849 794 c 0
 849 706 836 572 836 433 c 2
EndSplineSet
EndChar

StartChar: pi
Encoding: 960 960 415
Width: 1026
Flags: MW
LayerCount: 2
Fore
SplineSet
734 250 m 2
 734 145 781 89 852 89 c 0
 888 89 919 103 940 117 c 0
 953 125 961 133 970 133 c 0
 984 133 992 126 992 111 c 0
 992 47 878 -22 768 -22 c 0
 671 -22 600 32 586 120 c 0
 582 146 579 198 582 250 c 2
 608 680 l 2
 608 690 604 700 592 700 c 2
 386 700 l 2
 352 700 341 695 335 661 c 2
 294 428 l 2
 281 352 257 174 257 113 c 0
 257 72 271 58 271 36 c 0
 271 3 227 -8 198 -8 c 0
 125 -8 69 26 69 62 c 0
 69 86 79 106 99 151 c 0
 123 205 150 285 178 453 c 0
 202 596 207 647 207 680 c 0
 207 690 202 700 176 700 c 2
 40 700 l 2
 19 700 10 710 10 721 c 0
 10 727 13 775 24 790 c 0
 46 820 269 830 380 830 c 2
 924 830 l 2
 941 830 948 830 948 823 c 0
 948 820 946 815 944 808 c 2
 924 724 l 2
 919 700 919 700 894 700 c 2
 754 700 l 2
 739 700 734 695 734 680 c 2
 734 250 l 2
EndSplineSet
EndChar

StartChar: partialdiff
Encoding: 8706 8706 416
Width: 1026
Flags: MW
LayerCount: 2
Fore
SplineSet
976.115234375 657 m 0
 976.115234375 162 681.190429688 -20 449.190429688 -20 c 0
 197.190429688 -20 57.5400390625 167 57.5400390625 383 c 0
 57.5400390625 685.840820312 304.181640625 859 536.181640625 859 c 4
 605.600585938 859 682.288085938 825.513671875 707.760742188 811.237304688 c 0
 744.110351562 790.864257812 760.694335938 814.59765625 754.981445312 841 c 0
 707.405273438 1060.875 596.2109375 1254.26269531 376.819335938 1339 c 0
 351.408203125 1348.81445312 340.521484375 1360 342.990234375 1374 c 0
 345.98828125 1391 367.809570312 1407 394.809570312 1407 c 0
 452.809570312 1407 506.696289062 1378 557.288085938 1353 c 0
 844.073242188 1210 976.115234375 946.615234375 976.115234375 657 c 0
785.081054688 421 m 0
 785.081054688 623.841796875 678.076171875 779 506.076171875 779 c 4
 364.076171875 779 228.00390625 633.224609375 228.00390625 371 c 0
 228.00390625 218 297.767578125 57 469.767578125 57 c 0
 651.767578125 57 785.081054688 221 785.081054688 421 c 0
EndSplineSet
EndChar

StartChar: product
Encoding: 8719 8719 417
Width: 1570
VWidth: 1920
Flags: MW
LayerCount: 2
Fore
SplineSet
1178 861 m 2
 1178 1035 1171 1218 1155 1275 c 0
 1145 1309 1113.68368961 1311.28279607 1092 1315 c 0
 1057 1321 928 1327 789 1327 c 0
 626 1327 494.49609375 1326.08300781 458 1320 c 0
 398 1310 396 1255 396 884 c 2
 396 402 l 2
 396 291.995117188 411 179 422 133 c 0
 430 98 454 87 482 87 c 0
 517 87 531 104 560 104 c 0
 580 104 596 87 596 67 c 0
 596 33 561 13 524 5 c 0
 462 -8 385 -15 294 -15 c 0
 208 -15 135 -10 88 1 c 0
 36 13 18 29 18 54 c 0
 18 71 24 94 52 94 c 0
 75 94 105 77 142 77 c 0
 202 77 208 180 208 591 c 2
 208 901 l 2
 208 1248 197 1321 122 1321 c 0
 97 1321 79 1303 40 1303 c 0
 20 1303 10 1319 10 1339 c 0
 10 1373 40.9506831185 1387.23159485 78 1395 c 0
 138.741094396 1407.73603592 370.342731439 1415.99013015 786.000469576 1415.99013015 c 0
 1068 1415.99013015 1425.81599018 1408.96554073 1482 1396 c 0
 1534 1384 1544 1362 1544 1337 c 0
 1544 1320 1534 1297 1506 1297 c 0
 1483 1297 1465 1313 1428 1313 c 0
 1368 1313 1364 1225 1364 814 c 2
 1364 504 l 2
 1364 157 1373 80 1448 80 c 0
 1473 80 1499 101 1528 101 c 0
 1548 101 1560 85 1560 65 c 0
 1560 31 1531 17 1494 9 c 0
 1432 -4 1375 -15 1284 -15 c 0
 1198 -15 1115 -10 1068 1 c 0
 1016 13 994 28 994 53 c 0
 994 70 1004 90 1032 90 c 0
 1055 90 1071 75 1108 75 c 0
 1132 75 1148 88 1154 110 c 0
 1165 152 1178 294 1178 397 c 2
 1178 861 l 2
EndSplineSet
EndChar

StartChar: summation
Encoding: 8721 8721 421
Width: 1240
VWidth: 1920
Flags: MW
LayerCount: 2
Fore
SplineSet
106.758789062 1304.87597656 m 4
 91.3902904653 1327.16785945 67 1342.16113281 67 1365 c 0
 67 1399 95 1405 162 1405 c 0
 230 1405 300 1401 402 1401 c 0
 524 1401 698 1396 817 1396 c 0
 930 1396 971 1426 1008 1426 c 0
 1041 1426 1105 1298 1105 1168 c 0
 1105 1133 1076 1095 1058 1095 c 0
 1038 1095 1027 1134 1005 1183 c 0
 977 1246 938 1296 855 1309 c 0
 793 1319 674 1319 612 1319 c 0
 534.129821801 1319 470.2578125 1320.27050781 416 1320.27050781 c 0
 358 1320.27050781 326.188080557 1314.17719524 346.340341656 1271 c 4
 446.288056837 1056.85718045 562.733904353 864.375479326 691.135348226 684 c 4
 736.650790499 620.060923701 721.740685919 557.619185589 676.085526316 483 c 2
 273.493421053 -175 l 2
 220.291956742 -261.952930916 263.116256808 -273.680956614 392.999992127 -274.976800772 c 0
 514.548546531 -276.189485207 635.516451042 -277 732 -277 c 0
 817 -277 874 -276 927 -262 c 0
 984 -247 1030 -207 1063 -154 c 0
 1102 -91 1108 -43 1129 -43 c 0
 1150 -43 1182 -80 1182 -118 c 0
 1182 -191 1074 -384 1028 -384 c 0
 994 -384 985 -360 937 -360 c 0
 820 -360 709 -360 624 -360 c 0
 537 -360 451 -358 367 -358 c 0
 281 -358 249 -360 164 -360 c 0
 93 -360 58 -340 58 -306 c 0
 58 -277 102.564655394 -266.198922538 125 -226 c 2
 524.306849315 432 l 2
 550.25931874 474.765920271 551.857688409 524.904115335 526.533695404 576 c 4
 394.399812497 842.604782276 261.540886549 1080.36579631 106.758789062 1304.87597656 c 4
EndSplineSet
EndChar

StartChar: radical
Encoding: 8730 8730 422
Width: 1140
Flags: MW
LayerCount: 2
Fore
SplineSet
756 38 m 0
 744.533447927 -11.6119486353 712 -36 680 -36 c 0
 637.607495093 -36 583 -26 560 34 c 0
 434.094749668 362.448479126 371.647406694 484.208552483 241 761 c 0
 225.497070312 793.844726562 199.223632812 797 160 797 c 0
 110 797 74 790 59 790 c 0
 45 790 30 800 30 818 c 0
 30 842 41 855 69 885 c 0
 83 900 96 908 117 908 c 0
 180 908 311 903 364 903 c 0
 392 903 406.604156538 888.631184693 416 863 c 0
 487.358414046 668.339382542 564.115743779 484.408193213 643.756835938 296 c 0
 676.075195312 219.543945312 702.529767797 217.230523346 722.164639367 292 c 0
 825.55048999 685.692717406 887.738334984 972.145178593 984 1396 c 0
 995.277221023 1445.65532751 1028 1470 1060 1470 c 0
 1093.35253906 1470 1130 1456.48144531 1130 1419 c 0
 1130 1384 1066.51569437 1348.7173883 1043 1244 c 0
 1023.86438594 1158.78748208 906 687 756 38 c 0
EndSplineSet
EndChar

StartChar: infinity
Encoding: 8734 8734 423
Width: 1203
Flags: MW
LayerCount: 2
Fore
SplineSet
728 612 m 0
 693 583 674 558 674 529 c 0
 674 516 679 502 690 485 c 0
 739 413 801 365 895 365 c 0
 989 365 1048 413 1048 513 c 0
 1048 603 972 660 875 660 c 0
 818 660 763 640 728 612 c 0
846 249 m 0
 763 249 672 280 620 330 c 0
 601 348 591 355 585 355 c 0
 578 355 571 348 566 344 c 0
 520 297 452 249 332 249 c 0
 177 249 60 324 60 473 c 0
 60 648 187 732 357 732 c 0
 440 732 531 702 583 652 c 0
 602 634 612 627 618 627 c 0
 625 627 634 635 637 638 c 0
 683 685 751 732 871 732 c 0
 1006 732 1143 678 1143 509 c 0
 1143 334 1016 249 846 249 c 0
475 370 m 0
 510 399 529 424 529 453 c 0
 529 466 525 480 514 497 c 0
 465 569 403 617 309 617 c 0
 215 617 155 568 155 468 c 0
 155 378 221 322 328 322 c 0
 385 322 440 342 475 370 c 0
EndSplineSet
EndChar

StartChar: integral
Encoding: 8747 8747 424
Width: 682
VWidth: 1920
Flags: MW
LayerCount: 2
Fore
SplineSet
280 901 m 2
 279.884000206 987.999845334 252 1093 252 1172 c 0
 252 1327 371 1424 468 1424 c 0
 545 1424 582 1391 582 1341 c 0
 582 1288 555 1253 514 1253 c 0
 461 1253 450 1331 392 1331 c 0
 364 1331 349 1287 349 1260 c 0
 349 1184 411 1220 411 894 c 6
 411 154 l 6
 411 7 440 -48 440 -127 c 0
 440 -282 391 -369 234 -369 c 0
 127 -369 76 -316 76 -246 c 0
 76 -203 107 -167 158 -167 c 0
 206 -167 223 -197 231 -224 c 0
 241 -260 235 -296 280 -296 c 0
 308 -296 320 -272 320 -225 c 0
 320 -150 281.4213323 -164.999225303 281 151 c 2
 280 901 l 2
EndSplineSet
EndChar

StartChar: approxequal
Encoding: 8776 8776 425
Width: 1124
Flags: MW
LayerCount: 2
Fore
SplineSet
294 369 m 4
 167.153320312 369 211.934570312 244 138 244 c 4
 120 244 100 269 100 322 c 4
 100 412.711914062 156.814453125 472 274 472 c 4
 464 472 678 387 818 387 c 4
 932.227539062 387 919.219726562 512 972 512 c 4
 1000 512 1022 477 1022 424 c 4
 1022 340.943359375 961.909179688 284 838 284 c 4
 648 284 434 369 294 369 c 4
294 649 m 4
 167.153320312 649 211.934570312 524 138 524 c 4
 120 524 100 549 100 602 c 4
 100 692.711914062 156.814453125 752 274 752 c 4
 464 752 678 667 818 667 c 4
 932.227539062 667 919.219726562 792 972 792 c 4
 1000 792 1022 757 1022 704 c 4
 1022 620.943359375 961.909179688 564 838 564 c 4
 648 564 434 649 294 649 c 4
EndSplineSet
EndChar

StartChar: notequal
Encoding: 8800 8800 426
Width: 1124
Flags: MW
LayerCount: 2
Fore
SplineSet
587.456054688 473.98828125 m 6
 427.649414062 314.181640625 355.524414062 232.157226562 301.78515625 178.416992188 c 4
 282.692382812 159.325195312 271.37890625 152.25390625 256.530273438 167.103515625 c 6
 214.103515625 209.530273438 l 6
 199.25390625 224.37890625 206.325195312 235.692382812 225.416992188 254.78515625 c 4
 279.157226562 308.524414062 361.181640625 380.649414062 520.98828125 540.456054688 c 6
 535.836914062 555.3046875 l 6
 695.643554688 715.111328125 768.475585938 797.842773438 822.21484375 851.583007812 c 4
 841.307617188 870.674804688 852.62109375 877.74609375 867.469726562 862.896484375 c 6
 909.896484375 820.469726562 l 6
 924.74609375 805.62109375 917.674804688 794.307617188 898.583007812 775.21484375 c 4
 844.842773438 721.475585938 762.111328125 648.643554688 602.3046875 488.836914062 c 6
 587.456054688 473.98828125 l 6
EndSplineSet
Refer: 111 61 N 1 0 0 1 0 0 2
EndChar

